<?xml version="1.0" encoding="utf-8"?>
<!-- Generator: Adobe Illustrator 18.1.1, SVG Export Plug-In . SVG Version: 6.00 Build 0)  -->
<svg version="1.1" id="Layer_1" xmlns="http://www.w3.org/2000/svg" xmlns:xlink="http://www.w3.org/1999/xlink" x="0px" y="0px"
	 viewBox="0 0 357.7 224.1" enable-background="new 0 0 357.7 224.1" xml:space="preserve">
<g>
	<path fill="#A8CA38" d="M279.9,19.7c-4.1-8-16.1-15.6-26.1-15.2c-0.9-2.9-5.1-4.4-6.7-1c0,0,0,0,0,0.1c-1.4,0.1-2.1,1.6-2.6,3.3
		c-1.1,3.4-3.3,5.8-5.2,8.8c-2.3,3-3.4,6.1-5.7,9.2c-0.5,0.7-1.9,1.3-1.8,2c-3,2.6,0.6,8,4.6,5.9c4.4-2.3,2.6,5.4,1.3,7.2
		c-2.4,3.5,2.1,6.4,5.1,5.1c3.1-1.3,10.2-3.8,11.6,0.7c0.8,2.5,3.4,3.5,5.5,2.2C268.5,42.6,286.1,31.9,279.9,19.7z"/>
	<path fill="#FFEB92" d="M355,104.8c-4-8.9-11.1-13.8-19.7-14.1c-6.9-1.3-12.8-0.7-18.6,2.4c-24.3,8.2-37.6,40.7-59.6,52.9
		c-7.9,4.4-55.1,27.4-54.7,7c0-1.9-1.2-3.1-2.6-3.5c-2.2-1.6-6.1-0.6-6.1,2.9c0,9.5-20.1,0.7-23.5-1.5c-3.7-2.5-6.8-5.7-9.5-9.4
		c-1.6-4.2-3.5-8.3-5.5-12.3c-1.9-3.7-4-7.7-6.6-11.2c-10.6-24.6-17.8-50.6-37.3-70.7c-8.1-8.3-18.3-13.7-30-12.9
		c-3.9,0.3-7.1,1.7-9.3,4.1c-0.7,0.1-1.4,0.5-1.9,1.2c-9,11.1,4.1,22.7,10.9,32.9c0.1,0.1,1.8,1.7,1.8,1.8
		c7.4,11.5,13.3,23.1,16.8,36.4c2.3,8.8,3.2,18,1.9,27c-7.4-3.6-15.1-6.5-23.3-8.2c-10.2-2.2-20.5-1.5-30.9-1.5
		c-8.8,0-17.8,0.5-26.5,1.8c-6.1,1-13,1.2-17,6.2c-1.2,0.2-2.1,2.4-2.4,4.1c-0.8,5.2,4.6,7.5,8.5,9.3c6.3,2.9,12.7,5.3,19.3,7.3
		c18.2,5.6,27.1,21.3,38.3,34.8c3,3.6,4.6,7.2,7.9,10.7c5.2,8.2,19.6,18.6,31,20.4c12.1,2.6,31-0.7,35.8-14.6
		c7.1,4,21.7,2.9,29.6-0.3c11.8-4.6,20.1-15.1,24.2-26.7c0.1,0.1,0.2,0.3,0.3,0.4c3.2,7.5,6.8,16.7,14.2,20.6
		c5,4.6,11.9,6.7,18.4,8.5c15.4,4.2,31.7,0.4,44.1-9.4c11.9-9.4,19-22.5,26.4-35.6c3.7-6.5,7.1-14.2,11-19.8
		c2.1-2.9,4.3-5.8,6.2-8.9c2.5-4,3.9-6.6,8.5-8.8c0.3-0.2,0.5-1.9,0.8-2.1c3.5-2,6.8-3.5,10.4-5.3c3.7-1.9,7.8-3.4,11.9-4.3
		C355,115.2,358,111.6,355,104.8z M83.2,171.7c-0.2-0.1-0.3-0.2-0.5-0.3c0.1-0.7-0.1-1.5-0.3-2.2c0.3,0.1,0.6,0.2,0.9,0.3
		C83,170.1,83,170.9,83.2,171.7z M131.8,169.6c-0.6-1.2-1.1-2.4-1.7-3.6c0.7,1.3,1.4,2.5,2.1,3.7
		C132.1,169.7,131.9,169.7,131.8,169.6z M146.6,152.4c0,0-0.1,0-0.1,0c-0.7-1.5-1.3-2.9-1.9-4.4c0.8,1.6,1.7,3.1,2.6,4.7
		C147,152.5,146.8,152.4,146.6,152.4z M246.1,175.1c0.3-0.3,0.6-0.5,1-0.8c0.4,0,0.7,0,1.1,0C247.5,174.7,246.8,174.9,246.1,175.1z"
		/>
	<path fill="#EBCC1A" d="M258.2,48.2c1.4-2,0.1-5.4-1.8-6.8c-3.1-2.3-7.2-1.9-10.7-1.2c-10.5,2-16.7,13.2-22.4,21.1
		c-6.8,9.5-12.4,20-17,30.7c-1.2,2.7-2.3,5.5-3.3,8.4c-2.6,5.2-4.7,10.5-6.1,16.2c-2.2,9.1-2.5,24.1,1,33c1.9,0.6,3.6-2.3,2.2,6.7
		c-0.2,1.2,2.4,3.6,3.2,3.2c1.6,2.2,5.4,2.8,10.3,2.5c0.3,0.4,0.8,0.7,1.4,0.7c9.1,0.4,17.6-1.9,25.7-6.1c0.6-0.3,0.9-0.9,0.9-1.4
		c6-2.1,10.8-4.1,12.6-5.1c1.3-0.7,1.1-2.1,0.3-2.9c0-1.8-0.1-3.6-0.3-5.5c0.3-0.7-0.6-1.9-0.8-2.9c-1.5-7.7-1.4-17.3-5.9-24.4
		c-1.1-2.5-2.3-5-3.6-7.5c-3.4-6.4-8.3-14.4-9-21.8c-0.7-7,1.7-13.8,5.5-19.6C244.9,58.9,254,54.2,258.2,48.2z"/>
	<path fill="#F7DF29" d="M240.6,24.5c-1.2-1.5-4.7-1.8-5.8-0.4c-1.6,2.1-2.6,3.4-4,5.7c-1.1-0.2-2.3,1.3-3.1,2.3
		c-0.2,0.3-0.4,0.5-0.6,0.8c0,0,0,0,0,0c-0.1,0.2-0.3,0.4-0.4,0.5c-0.2,0.2-0.4,0.5-0.5,0.8c-10.8,14.9-30.1,22.6-46.6,33.5
		c-12.1,4.2-20.7,15.7-26.8,26.9c-2,3.7-6.8,12.7-6.1,18.5c-0.9,1-1.3,2.5-0.2,4.1c1.1,1.6,2.2,3.3,3.3,5.1
		c0.9,5.7,4.1,10.7,8.1,15.2c-0.5,0.9-0.4,2.1,0.4,3.3c2.2,3.2,5.2,5.3,8.5,6.8c4,4,8.6,7.3,14.6,9.3c7.3,2.4,16.4-3,17.3-9.7
		c0.5-3.6-1-7.1-1.8-10.6c-1.1-5-0.6-10.5,0.2-15.5c3.1-19.9,15.1-37.7,26.3-53.9c5-7.2,10.1-14.4,15.1-21.6
		C243.1,39,246,31.4,240.6,24.5z M177.6,103.6c-0.2-0.4-0.3-0.9-0.5-1.3c0.2-0.2,0.5-0.4,0.7-0.5c0,0.3,0,0.6,0.1,0.8
		C177.8,102.9,177.7,103.3,177.6,103.6z"/>
	<path fill="#936037" d="M351.5,98.4c-9.3-10.3-22-12.1-34.5-6.7c-26.3,11.3-39.2,39.5-62.1,55.2c-0.9-9.7-2.4-19.3-5.1-28.7
		c-2.8-9.7-8.4-17.7-12.5-26.8c-8.3-18.5,9.7-33.2,23.1-42.8c6.4-4.6,13-9.1,18.7-14.7c4.3-4.3,6.7-8.9,5.6-15.1
		c-0.9-5.4-3.9-9.5-7.8-12.4c-0.1-0.1-0.2-0.1-0.3-0.2c-5.7-4.1-13.5-5.8-20.4-6.2c-2.4-0.1-4.9,0-7.3,0.3c-1.1,0.1-1.8,0.6-2.4,1.3
		c-0.3,0.4-0.5,0.7-0.8,1.2c-0.6,1.1-1,2.3-1.6,3.4c-3.4,6.5-7.2,12.9-11.4,18.9c-8.4,11.9-19.4,21.4-31.8,29.1
		c-12.9,8.1-27.3,13.5-38.3,24.3c-9,8.8-13.9,20.4-16.5,32.5c-3.1-9-6.3-18-10-26.8c-6.7-16-16.1-34.1-31.1-43.9
		c-9.6-6.3-27.5-12.5-35.8-0.8c-4.7,6.6-2.7,13.7,1.1,20.2c4.5,7.7,10.9,14.2,15.8,21.6c5.7,8.4,9.8,17.8,12,27.7
		c2.1,9.2,2.4,18.7,2.7,28.1c-0.1,0-0.3,0.1-0.4,0.2c0,0-0.1-0.1-0.1-0.1c-15.7-11.2-37-11-55.4-9.9c-7.3,0.4-14.6,1.2-21.9,2
		c-6.3,0.6-13,1.5-18.6,4.6c-4,2.2-5.9,6.4-3.7,10.6c2.5,4.9,9.4,7.1,14.2,8.7c6,2,12.3,3.1,18.2,5.3c7.6,2.9,14.2,10.3,19.5,16.3
		c14.1,16.2,24.5,37.9,45.2,46.7c7.9,3.3,17.1,3,25.4,1.5c7.7-1.4,17.1-4.9,19.4-13.1c0-0.1,0-0.1,0-0.2c2.9,0.8,5.9,1.3,8.9,1.7
		c14.1,1.7,28.9-2.6,37.6-14.3c3.1-4.1,5.3-8.6,6.9-13.4c4,16.3,19,25.8,34.7,29.1c16.2,3.4,32.4-0.8,44.8-11.7
		c26.6-23.3,29.5-67.9,65.7-80.8c4.7-1.7,11.9-2.8,15.1-7.1C360.1,108,354.8,102,351.5,98.4z M172.5,72.6c7.7-5.5,16.3-9.3,24.5-14
		c7.3-4.2,14.2-8.9,20.6-14.3c12.6-10.7,21.6-24.7,29.1-39.3c0,0,0-0.1,0.1-0.1c7.6,11.8,29.3,9.5,31.9,25.4
		c0.1,0.5,0.4,0.6,0.8,0.6c-3.9,5-10.1,9-14.8,12.4c-9.8,7.2-20,13.5-26.5,24.1c-3.1,5-5.2,10.7-4.7,16.7c0.5,5.6,3.5,10.9,6.2,15.7
		c4.3,7.7,7.7,15.3,9.8,23.9c2,7.9,3,16,3.7,24.2c0,0,0,0,0,0c-14.1,9.3-37.3,20.4-52.5,9c0.2-1.7,0.3-3.4,0.5-5c0.1-1,0.2-2,0.3-3
		c0-0.2,0-0.7,0-0.8c0-0.6,0.1-0.6,0.1-0.9c2.8-32.2,4.7-68.9,29.2-92.7c3.2-3.1,6.8-5.8,10.5-8.2c1-0.6,0.1-2.2-0.9-1.5
		c-29.5,18.9-35.9,54.3-39.1,86.7c-0.5,5.4-0.9,10.9-1.3,16.5c-0.6,0.6-1.3,1.2-2,1.3c-0.2,0-0.5,0-0.7,0.3
		c-14.6,15.8-32.2,0.1-41-13.6c-4.2-6.6-6.6-14.1-9.2-21.5C150.3,97.2,158.1,82.9,172.5,72.6z M141,209.4
		c-2.1,7.4-10.5,10.3-17.3,11.7c-7,1.5-14.8,1.7-21.8-0.1c-16.5-4.2-27.7-20.9-37.2-33.7c-4.9-6.5-9.8-13.1-15.5-18.9
		c-4.7-4.8-10.6-10-17.1-12.1c-5.6-1.9-38.4-8-29-19c4.1-4.8,13.4-5.4,19.2-6.1c6.7-0.8,13.5-1.4,20.2-1.9c18.8-1.3,40.9-1.9,57,9.5
		c0.4,0.3,0.7,0.2,1-0.1l0.5,0.5c0.6,16.9,2.1,33.5,11,48.3c6.8,11.2,17.1,18.2,29,21.7C141,209.2,141,209.3,141,209.4z
		 M194.8,182.2c-5.1,16.2-18,26.8-35.1,27.6c-18.6,0.9-36.2-7.5-46.2-23.3c-8.9-14.2-10.1-30.6-10.8-46.9c0.3-0.3,0.4-0.8,0-1.2
		l-0.1-0.1c-0.1-1.8-0.1-3.6-0.2-5.4c-0.4-8.9-1.1-17.9-3.1-26.6c-2.2-9.4-6.4-18-11.7-26c-4.9-7.5-11.2-14-15.8-21.6
		c-2.5-4-4.3-8.7-3.5-13.5c0.8-4.7,5-8.3,9.3-9.8c6.9-2.4,15,0.4,21.3,3.4c7.6,3.6,13.5,9.5,18.7,16c12.4,15.5,19.2,34.9,25.7,53.5
		c0.7,2.1,1.4,4.1,2.1,6.2c0.1,0.3,0.2,0.5,0.2,0.7c1.7,5,3.4,10.1,5.6,14.9c3.2,6.8,7.7,13,13,18.2c4.5,4.5,10.4,8.6,16.9,9.5
		c6.9,0.9,12.7-2.1,17.4-7c0.5-0.1,1-0.3,1.5-0.6c-0.1,1.9-0.3,3.7-0.5,5.6c0,0.2,0,0.3-0.1,1.3c0,0.2,0,0.2-0.1,0.7
		C198.5,166.2,197.2,174.4,194.8,182.2z M354.2,112.8c-2.2,2.2-5.8,3.1-8.6,4c-3.2,1.1-6.5,2.1-9.6,3.5c-17,7.7-26.3,23.2-34.6,39
		c-7.9,15.2-15.9,31.2-29.4,42.2c-14.7,12.1-35.3,13.1-52.4,5.7c-10.5-4.6-19.1-13-21.8-24.4c-0.2-0.7-0.7-1.6-0.9-1.9
		c2.4-7.5,3.1-14.1,3.8-22.1c11.3,7.6,26.3,3.8,38.1-1.2c13.2-5.6,25.2-14.2,34.7-25c9.5-10.7,18.7-21.6,29.9-30.6
		c11.2-9,26.2-16.6,39.9-8.5C348.1,96.6,360.3,107,354.2,112.8z"/>
	<path fill="#936037" d="M135.5,212.1c-18.1-4.7-28.1-21-38.3-35.3c-9.8-13.9-21.3-26.4-39.1-28.6c-1.1-0.1-1.1,1.6,0,1.8
		c37.6,4.7,41.7,54.7,76.9,63.9C136.1,214.1,136.6,212.4,135.5,212.1z"/>
	<path fill="#936037" d="M172.7,196.6c-26.9-0.8-37-27.8-43-50c-3.4-12.6-5.9-25.4-9.2-38c-2.6-10.2-5.8-20.9-12-29.5
		c-0.7-0.9-2.2,0-1.5,0.9c6.8,9.3,9.8,21.1,12.6,32.2c3.3,13.2,5.9,26.6,9.7,39.7c6.3,21.8,17.6,45.7,43.4,46.5
		C173.8,198.4,173.8,196.6,172.7,196.6z"/>
	<path fill="#936037" d="M296.6,127.5c-11.1,14-19.6,30.1-30,44.7c-9.1,12.7-23.1,31.8-41,30c-1.1-0.1-1.1,1.7,0,1.8
		c16.7,1.6,29.8-14.2,38.9-26c12.1-15.7,21-33.7,33.4-49.2C298.5,127.8,297.3,126.6,296.6,127.5z"/>
</g>
</svg>
