<?xml version="1.0" encoding="utf-8"?>
<!-- Generator: Adobe Illustrator 18.1.1, SVG Export Plug-In . SVG Version: 6.00 Build 0)  -->
<svg version="1.1" id="Layer_1" xmlns="http://www.w3.org/2000/svg" xmlns:xlink="http://www.w3.org/1999/xlink" x="0px" y="0px"
	 viewBox="0 269.6 1000 252.8" enable-background="new 0 269.6 1000 252.8" xml:space="preserve">
<rect x="85.5" y="269.6" fill="#9E8A42" width="840.1" height="167.4"/>
<polygon fill="#D4B659" points="1000,522.4 1000,345.1 915.3,308.1 84.7,308.1 0,345.1 0,522.4 "/>
<polygon fill="#C4A952" points="647,353.2 1000,353.2 1000,345.1 915.3,308.1 647,308.1 353.2,308.1 84.7,308.1 0,345.1 0,353.2 
	353.2,353.2 "/>
<g>
	<path fill="#AE8548" d="M686.9,386.9c0-2.9,2.2-5.2,5.2-5.2l0,0c2.9,0,5.2,2.2,5.2,5.2v99.7c0,2.9-2.2,5.2-5.2,5.2l0,0
		c-2.9,0-5.2-2.2-5.2-5.2V386.9z"/>
	<path fill="#AE8548" d="M662.7,386.9c0-2.9,2.2-5.2,5.2-5.2l0,0c2.9,0,5.2,2.2,5.2,5.2v99.7c0,2.9-2.2,5.2-5.2,5.2l0,0
		c-2.9,0-5.2-2.2-5.2-5.2V386.9z"/>
	<path fill="#AE8548" d="M637.2,386.9c0-2.9,2.2-5.2,5.2-5.2l0,0c2.9,0,5.2,2.2,5.2,5.2v99.7c0,2.9-2.2,5.2-5.2,5.2l0,0
		c-2.9,0-5.2-2.2-5.2-5.2V386.9z"/>
	<path fill="#AE8548" d="M612.9,386.9c0-2.9,2.2-5.2,5.2-5.2l0,0c2.9,0,5.2,2.2,5.2,5.2v99.7c0,2.9-2.2,5.2-5.2,5.2l0,0
		c-2.9,0-5.2-2.2-5.2-5.2V386.9z"/>
	<path fill="#AE8548" d="M589.1,386.9c0-2.9,2.2-5.2,5.2-5.2l0,0c2.9,0,5.2,2.2,5.2,5.2v99.7c0,2.9-2.2,5.2-5.2,5.2l0,0
		c-2.9,0-5.2-2.2-5.2-5.2V386.9z"/>
	<circle opacity="0.22" fill="#231F20" enable-background="new    " cx="692.2" cy="453.8" r="12.6"/>
	<circle fill="#ECD066" cx="692.2" cy="457.7" r="12.6"/>
	<circle opacity="0.22" fill="#231F20" enable-background="new    " cx="668.8" cy="411.7" r="12.6"/>
	<path fill="#ECD066" d="M656,413.9c0-6.9,5.7-12.6,12.6-12.6c6.9,0,12.6,5.7,12.6,12.6c0,6.9-5.7,12.6-12.6,12.6
		C661.7,426.5,656,421,656,413.9z"/>
	<path opacity="0.22" fill="#231F20" enable-background="new    " d="M630.3,436.5c0-6.9,5.7-12.6,12.6-12.6s12.6,5.7,12.6,12.6
		c0,6.9-5.7,12.6-12.6,12.6C636,449.3,630.3,443.6,630.3,436.5z"/>
	<circle fill="#ECD066" cx="642.7" cy="438.8" r="12.6"/>
	<circle opacity="0.22" fill="#231F20" enable-background="new    " cx="617.9" cy="479.3" r="12.6"/>
	<circle fill="#ECD066" cx="617.9" cy="481.2" r="12.6"/>
	<circle opacity="0.22" fill="#231F20" enable-background="new    " cx="594.6" cy="388.9" r="12.6"/>
	<circle fill="#ECD066" cx="594.5" cy="390.8" r="12.6"/>
</g>
<g>
	<circle fill="#ECD066" cx="479.4" cy="467.6" r="17.6"/>
	<circle fill="#CEB758" cx="479.4" cy="467.6" r="11.2"/>
	<circle fill="#ECD066" cx="479.4" cy="405.7" r="17.6"/>
	<path fill="#F27970" d="M468.2,405.7c0-6.2,5-11.4,11.4-11.4c6.2,0,11.4,5,11.4,11.4c0,6.2-5,11.4-11.4,11.4
		C473.2,416.9,468.2,411.9,468.2,405.7z"/>
</g>
<g>
	<circle fill="#ECD066" cx="421" cy="467.6" r="17.6"/>
	<circle fill="#7CC684" cx="421" cy="467.6" r="11.2"/>
	<circle fill="#ECD066" cx="421" cy="405.7" r="17.6"/>
	<path fill="#CEB758" d="M409.6,405.7c0-6.2,5-11.4,11.4-11.4c6.2,0,11.4,5,11.4,11.4c0,6.2-5,11.4-11.4,11.4
		C414.6,416.9,409.6,411.9,409.6,405.7z"/>
</g>
<g>
	<circle fill="#ECD066" cx="372.4" cy="467.6" r="17.6"/>
	<circle fill="#C59C6D" cx="372.4" cy="467.6" r="11.2"/>
	<circle fill="#ECD066" cx="372.4" cy="405.7" r="17.6"/>
	<path fill="#CEB758" d="M361,405.7c0-6.2,5-11.4,11.4-11.4c6.2,0,11.4,5,11.4,11.4c0,6.2-5,11.4-11.4,11.4
		C366.1,416.9,361,411.9,361,405.7z"/>
</g>
</svg>
