<?xml version="1.0" encoding="utf-8"?>
<!-- Generator: Adobe Illustrator 18.1.1, SVG Export Plug-In . SVG Version: 6.00 Build 0)  -->
<svg version="1.1" id="Layer_1" xmlns="http://www.w3.org/2000/svg" xmlns:xlink="http://www.w3.org/1999/xlink" x="0px" y="0px"
	 viewBox="0 0 103.6 103.6" enable-background="new 0 0 103.6 103.6" xml:space="preserve">
<path fill="#FFFFFF" d="M93,73.8c7.4,0,10.9,3.3,10.6,9.9c-0.3,2.1-1.2,3.9-2.7,5.2c-1.5,1.4-3.4,2.1-5.6,2.1
	c-1.6,0-3.3-0.4-5.2-1.1c0.7,2,1.1,3.8,1.1,5.4c0,3.6-2.5,6.3-7.5,8.1c-6.7,0.8-10.1-3-10.1-11.3c0-1.9,0.2-3.7,0.6-5.4L51.9,64.3
	L29.4,86.8c0.3,1.7,0.4,3.4,0.4,5.4c0,8.4-3.3,12.1-10,11.3c-2.1-0.3-3.8-1.2-5.2-2.7c-1.4-1.5-2.1-3.3-2.1-5.5c0-1.6,0.3-3.4,1-5.4
	c-1.9,0.7-3.7,1.1-5.2,1.1c-3.6,0-6.3-2.4-8.1-7.3c-0.3-6.6,3.2-9.9,10.5-9.9c2,0,4.3,0.3,6.9,0.8l22.4-22.2l-23-23
	c-1.7,0.4-3.5,0.6-5.4,0.6C3,30-0.7,26.6,0.1,19.9c0.3-2.1,1.2-3.9,2.7-5.3c1.5-1.4,3.3-2.1,5.4-2.1c1.6,0,3.4,0.4,5.4,1.1
	c-0.7-1.9-1.1-3.7-1.1-5.2c0-3.6,2.4-6.4,7.3-8.3c6.6-0.3,9.9,3.3,9.9,10.6c0,2-0.3,4.3-0.8,6.9l22.9,22.9l22.6-23.2
	c-0.6-2.4-0.8-4.6-0.8-6.5c0-7.4,3.4-11,10.1-10.8c2.1,0.3,3.9,1.2,5.2,2.7C90.3,4.2,91,6.1,91,8.3c0,1.6-0.3,3.3-1,5.2
	c1.9-0.7,3.7-1.1,5.2-1.1c3.6,0,6.3,2.5,8.1,7.5c0.9,6.7-2.8,10.1-11.3,10.1c-1.9,0-3.7-0.2-5.4-0.6l-23,23l22.4,22.2
	C88.6,74.1,90.9,73.8,93,73.8z"/>
</svg>
