<?xml version="1.0" encoding="utf-8"?>
<!-- Generator: Adobe Illustrator 18.1.1, SVG Export Plug-In . SVG Version: 6.00 Build 0)  -->
<svg version="1.1" id="Layer_1" xmlns="http://www.w3.org/2000/svg" xmlns:xlink="http://www.w3.org/1999/xlink" x="0px" y="0px"
	 viewBox="0 0 1000 792" enable-background="new 0 0 1000 792" xml:space="preserve">
<path display="none" fill="#38504F" d="M918.7,325.2H81.3c-38.9,0-70.8,31.8-70.8,70.8l0,0c0,38.9,31.8,71.1,70.8,71.1h837.5
	c38.9,0,70.8-31.8,70.8-70.8l0,0C989.5,357.1,957.7,325.2,918.7,325.2z"/>
<path fill="#FFFFFF" d="M918.7,314.7H500.2v21h418.6c16.6,0,31.8,6.8,42.7,17.6c10.8,10.8,17.6,26.1,17.6,42.7l0,0
	c0,16.6-6.8,31.8-17.6,42.7c-10.8,10.8-26.1,17.6-42.7,17.6H500.2v21h418.6c22.4,0,42.7-9.1,57.6-24c14.9-14.9,24-35.2,24-57.6l0,0
	c0-22.4-9.1-42.7-24-57.6C961.4,323.9,941.1,314.7,918.7,314.7z M500.2,314.7H81.3c-22.4,0-42.7,9.1-57.6,24
	C9.1,353.3,0,373.6,0,396l0,0c0,22.4,9.1,42.7,24,57.6s35.2,24,57.6,24h418.6v-21H81.3c-16.6,0-31.8-6.8-42.7-17.6
	C27.8,427.8,21,412.6,21,396l0,0c0-16.6,6.8-31.8,17.6-42.7c10.8-10.8,26.1-17.6,42.7-17.6h418.6v-21H500.2z"/>
<path fill="#BAD7D5" d="M918.7,432.6c20,0,36.6-16.3,36.6-36.6c0-20-16.3-36.6-36.6-36.6c-20,0-36.6,16.3-36.6,36.6
	S898.7,432.6,918.7,432.6z"/>
<path fill="#BAD7D5" d="M799.2,432.6c20,0,36.6-16.3,36.6-36.6c0-20-16.3-36.6-36.6-36.6c-20,0-36.6,16.3-36.6,36.6
	S778.9,432.6,799.2,432.6z"/>
<path fill="#BAD7D5" d="M679.3,432.6c20,0,36.6-16.3,36.6-36.6c0-20-16.3-36.6-36.6-36.6c-20,0-36.6,16.3-36.6,36.6
	S659.3,432.6,679.3,432.6z"/>
<path fill="#BAD7D5" d="M559.8,432.6c20,0,36.6-16.3,36.6-36.6c0-20-16.3-36.6-36.6-36.6c-20.3,0-36.6,16.3-36.6,36.6
	S539.5,432.6,559.8,432.6z"/>
<path fill="#BAD7D5" d="M439.9,432.6c20,0,36.6-16.3,36.6-36.6c0-20-16.3-36.6-36.6-36.6c-20,0-36.6,16.3-36.6,36.6
	C403.7,416.3,419.9,432.6,439.9,432.6z"/>
<path fill="#BAD7D5" d="M320.4,432.6c20,0,36.6-16.3,36.6-36.6c0-20-16.3-36.6-36.6-36.6c-20,0-36.6,16.3-36.6,36.6
	C283.8,416.3,300.4,432.6,320.4,432.6z"/>
<path fill="#BAD7D5" d="M200.8,432.6c20,0,36.2-16.3,36.2-36.6c0-20-16.3-36.6-36.6-36.6S164.2,376,164.2,396
	C164.2,416.3,180.5,432.6,200.8,432.6z"/>
<path fill="#BAD7D5" d="M80.9,432.6c20,0,36.6-16.3,36.6-36.6c0-20-16.3-36.6-36.6-36.6S44.4,376,44.4,396
	C44.4,416.3,61,432.6,80.9,432.6z"/>
<path fill="#BAD7D5" d="M920.1,386.5H77.5c-5.4,0-9.8,4.4-9.8,9.8l0,0c0,5.4,4.4,9.8,9.8,9.8h842.5c5.4,0,9.8-4.4,9.8-9.8l0,0
	C929.9,390.6,925.5,386.5,920.1,386.5z"/>
<path fill="#FFFFFF" d="M799.2,407.9c6.4,0,11.9-5.4,11.9-11.9s-5.4-11.9-11.9-11.9c-6.4,0-11.9,5.4-11.9,11.9
	S792.4,407.9,799.2,407.9z"/>
<path fill="#FFFFFF" d="M679.3,407.9c6.4,0,11.9-5.4,11.9-11.9s-5.4-11.9-11.9-11.9c-6.4,0-11.9,5.4-11.9,11.9
	S672.9,407.9,679.3,407.9z"/>
<path fill="#FFFFFF" d="M559.8,407.9c6.4,0,11.9-5.4,11.9-11.9s-5.4-11.9-11.9-11.9c-6.4,0-11.9,5.4-11.9,11.9
	S553.3,407.9,559.8,407.9z"/>
<path fill="#FFFFFF" d="M439.9,407.9c6.4,0,11.9-5.4,11.9-11.9s-5.4-11.9-11.9-11.9c-6.4,0-11.9,5.4-11.9,11.9
	C428.4,402.4,433.5,407.9,439.9,407.9z"/>
<path fill="#FFFFFF" d="M320.4,407.9c6.4,0,11.9-5.4,11.9-11.9s-5.4-11.9-11.9-11.9s-11.9,5.4-11.9,11.9S313.9,407.9,320.4,407.9z"
	/>
<path fill="#FFFFFF" d="M200.8,407.9c6.4,0,11.9-5.4,11.9-11.9s-5.4-11.9-11.9-11.9c-6.4,0-11.9,5.4-11.9,11.9
	S194,407.9,200.8,407.9z"/>
</svg>
