<?xml version="1.0" encoding="utf-8"?>
<!-- Generator: Adobe Illustrator 18.1.1, SVG Export Plug-In . SVG Version: 6.00 Build 0)  -->
<svg version="1.1" id="Layer_1" xmlns="http://www.w3.org/2000/svg" xmlns:xlink="http://www.w3.org/1999/xlink" x="0px" y="0px"
	 viewBox="0 0 529.4 293.2" enable-background="new 0 0 529.4 293.2" xml:space="preserve">
<g>
	<g>
		<path fill="#D3BC5B" d="M485.5,110.9c0-1.4-0.2-2.8-0.6-4c1-3.5,3.3-6,6-6c3.6,0,6.5,4.5,6.5,10v123.7c0,5.5-2.9,10-6.5,10
			c-2.7,0-5-2.5-6-6c0.4-1.2,0.6-2.6,0.6-4V110.9z"/>
		<path fill="#D3BC5B" d="M473.6,110.9c0-1.4-0.2-2.8-0.6-4c1-3.5,3.3-6,6-6c2.7,0,5,2.5,6,6c-0.4,1.2-0.6,2.6-0.6,4v123.7
			c0,1.4,0.2,2.8,0.6,4c-1,3.5-3.3,6-6,6c-2.7,0-5-2.5-6-6c0.4-1.2,0.6-2.6,0.6-4V110.9z"/>
		<path fill="#D3BC5B" d="M461.6,110.9c0-1.4-0.2-2.8-0.6-4c1-3.5,3.3-6,6-6c2.7,0,5,2.5,6,6c-0.4,1.2-0.6,2.6-0.6,4v123.7
			c0,1.4,0.2,2.8,0.6,4c-1,3.5-3.3,6-6,6c-2.7,0-5-2.5-6-6c0.4-1.2,0.6-2.6,0.6-4V110.9z"/>
		<path fill="#D3BC5B" d="M449.7,110.9c0-1.4-0.2-2.8-0.6-4c1-3.5,3.3-6,6-6c2.7,0,5,2.5,6,6c-0.4,1.2-0.6,2.6-0.6,4v123.7
			c0,1.4,0.2,2.8,0.6,4c-1,3.5-3.3,6-6,6c-2.7,0-5-2.5-6-6c0.4-1.2,0.6-2.6,0.6-4V110.9z"/>
		<path fill="#D3BC5B" d="M437.7,110.9c0-1.4-0.2-2.8-0.6-4c1-3.5,3.3-6,6-6c2.7,0,5,2.5,6,6c-0.4,1.2-0.6,2.6-0.6,4v123.7
			c0,1.4,0.2,2.8,0.6,4c-1,3.5-3.3,6-6,6c-2.7,0-5-2.5-6-6c0.4-1.2,0.6-2.6,0.6-4V110.9z"/>
		<path fill="#D3BC5B" d="M425.8,110.9c0-1.4-0.2-2.8-0.6-4c1-3.5,3.3-6,6-6c2.7,0,5,2.5,6,6c-0.4,1.2-0.6,2.6-0.6,4v123.7
			c0,1.4,0.2,2.8,0.6,4c-1,3.5-3.3,6-6,6c-2.7,0-5-2.5-6-6c0.4-1.2,0.6-2.6,0.6-4V110.9z"/>
		<path fill="#D3BC5B" d="M413.8,110.9c0-1.4-0.2-2.8-0.6-4c1-3.5,3.3-6,6-6c2.7,0,5,2.5,6,6c-0.4,1.2-0.6,2.6-0.6,4v123.7
			c0,1.4,0.2,2.8,0.6,4c-1,3.5-3.3,6-6,6c-2.7,0-5-2.5-6-6c0.4-1.2,0.6-2.6,0.6-4V110.9z"/>
		<path fill="#D3BC5B" d="M401.9,110.9c0-1.4-0.2-2.8-0.6-4c1-3.5,3.3-6,6-6c2.7,0,5,2.5,6,6c-0.4,1.2-0.6,2.6-0.6,4v123.7
			c0,1.4,0.2,2.8,0.6,4c-1,3.5-3.3,6-6,6c-2.7,0-5-2.5-6-6c0.4-1.2,0.6-2.6,0.6-4V110.9z"/>
		<path fill="#D3BC5B" d="M395.4,100.9c2.7,0,5,2.5,6,6c-0.4,1.2-0.6,2.6-0.6,4v123.7c0,1.4,0.2,2.8,0.6,4c-1,3.5-3.3,6-6,6
			c-3.6,0-6.5-4.5-6.5-10V110.9C388.8,105.4,391.8,100.9,395.4,100.9z"/>
	</g>
	<path opacity="0.14" fill="#231F20" d="M493.4,232.6c0,8.6,5.1,15.6,11.3,15.6l0,0c6.3,0,11.3-7,11.3-15.6V112
		c0-8.6-5.1-15.6-11.3-15.6l0,0c-6.3,0-11.3,7-11.3,15.6V232.6z"/>
	<path opacity="0.14" fill="#231F20" d="M371.2,232.6c0,8.6,5.1,15.6,11.3,15.6l0,0c6.3,0,11.3-7,11.3-15.6V112
		c0-8.6-5.1-15.6-11.3-15.6l0,0c-6.3,0-11.3,7-11.3,15.6V232.6z"/>
	<path fill="#897C3A" d="M497.6,238.6c0,9.6,5.1,17.4,11.3,17.4l0,0c6.3,0,11.3-7.8,11.3-17.4V103.8c0-9.6-5.1-17.5-11.3-17.5l0,0
		c-6.3,0-11.3,7.8-11.3,17.5V238.6z"/>
	<path fill="#897C3A" d="M367.1,238.6c0,9.6,5.1,17.5,11.3,17.5l0,0c6.3,0,11.3-7.8,11.3-17.5V103.8c0-9.6-5.1-17.5-11.3-17.5l0,0
		c-6.3,0-11.3,7.8-11.3,17.5V238.6z"/>
</g>
<rect x="510.1" y="78.6" fill="#A89749" width="19.3" height="186.7"/>
<path fill="#9C8D43" d="M322.7,56.9c0-31.4-25.5-56.9-56.9-56.9s-56.9,25.5-56.9,56.9c0,31.4,25.5,56.9,56.9,56.9
	S322.7,88.4,322.7,56.9z M314.2,56.9c0,26.8-21.7,48.5-48.5,48.5s-48.5-21.7-48.5-48.5S239,8.5,265.8,8.5S314.2,30.2,314.2,56.9z"/>
<path fill="#9C8D43" d="M253.3,62.8c0-21-17-38-38-38c-21,0-38,17-38,38s17,38,38,38C236.3,100.8,253.3,83.8,253.3,62.8z
	 M247.6,62.8c0,17.9-14.5,32.3-32.3,32.3c-17.9,0-32.3-14.5-32.3-32.3c0-17.9,14.5-32.3,32.3-32.3C233.1,30.5,247.6,44.9,247.6,62.8
	z"/>
<path fill="#ECD066" d="M342,293.2H0L0,51.5h342c16.7,0,30.3,9.9,30.3,22v197.7C372.3,283.4,358.7,293.2,342,293.2z"/>
<rect x="0" y="88.4" fill="#CABA93" width="372.3" height="49.7"/>
<rect x="0" y="104.5" fill="#C99D6F" width="372.3" height="16.8"/>
<polygon fill="#9C8D43" points="328.6,66.6 59.9,66.6 72.7,148.9 315.8,148.9 "/>
<rect x="64.3" y="77.6" fill="#CEB758" width="259.8" height="71.3"/>
<g>
	<circle opacity="0.1" fill="#010101" cx="331.7" cy="133.6" r="3.2"/>
	<circle fill="#CDCCCC" cx="331.6" cy="133.7" r="3"/>
	<circle fill="#F3F3F3" cx="331.6" cy="133.7" r="2.6"/>
	<rect x="331.4" y="131.1" fill="#CDCCCC" width="0.5" height="5.1"/>
	<path opacity="0.1" fill="#010101" d="M329.1,133.3c0,1.7,1.3,3,3,3c0.6,0,1.1-0.2,1.6-0.5c-0.5,0.5-1.3,0.9-2.1,0.9
		c-1.7,0-3-1.3-3-3c0-1.1,0.6-2,1.4-2.5C329.5,131.7,329.1,132.5,329.1,133.3z"/>
</g>
<g>
	<circle opacity="0.1" fill="#010101" cx="56.7" cy="133.6" r="3.2"/>
	<circle fill="#CDCCCC" cx="56.6" cy="133.7" r="3"/>
	<circle fill="#F3F3F3" cx="56.6" cy="133.7" r="2.6"/>
	<rect x="56.4" y="131.1" fill="#CDCCCC" width="0.5" height="5.1"/>
	<path opacity="0.1" fill="#010101" d="M54.1,133.3c0,1.7,1.3,3,3,3c0.6,0,1.1-0.2,1.6-0.5c-0.5,0.5-1.3,0.9-2.1,0.9
		c-1.7,0-3-1.3-3-3c0-1.1,0.6-2,1.4-2.5C54.5,131.7,54.1,132.5,54.1,133.3z"/>
</g>
<g>
	<circle opacity="0.1" fill="#010101" cx="21.7" cy="133.6" r="3.2"/>
	<circle fill="#CDCCCC" cx="21.6" cy="133.7" r="3"/>
	<circle fill="#F3F3F3" cx="21.6" cy="133.7" r="2.6"/>
	<rect x="21.4" y="131.1" fill="#CDCCCC" width="0.5" height="5.1"/>
	<path opacity="0.1" fill="#010101" d="M19.1,133.3c0,1.7,1.3,3,3,3c0.6,0,1.1-0.2,1.6-0.5c-0.5,0.5-1.3,0.9-2.1,0.9
		c-1.7,0-3-1.3-3-3c0-1.1,0.6-2,1.4-2.5C19.5,131.7,19.1,132.5,19.1,133.3z"/>
</g>
<g>
	<circle opacity="0.1" fill="#010101" cx="56.7" cy="95.2" r="3.2"/>
	<circle fill="#CDCCCC" cx="56.6" cy="95.4" r="3"/>
	<circle fill="#F3F3F3" cx="56.6" cy="95.4" r="2.6"/>
	<rect x="56.4" y="92.8" fill="#CDCCCC" width="0.5" height="5.1"/>
	<path opacity="0.1" fill="#010101" d="M54.1,94.9c0,1.7,1.3,3,3,3c0.6,0,1.1-0.2,1.6-0.5c-0.5,0.5-1.3,0.9-2.1,0.9
		c-1.7,0-3-1.3-3-3c0-1.1,0.6-2,1.4-2.5C54.5,93.4,54.1,94.1,54.1,94.9z"/>
</g>
<g>
	<circle opacity="0.1" fill="#010101" cx="21.7" cy="95.2" r="3.2"/>
	<circle fill="#CDCCCC" cx="21.6" cy="95.4" r="3"/>
	<circle fill="#F3F3F3" cx="21.6" cy="95.4" r="2.6"/>
	<rect x="21.4" y="92.8" fill="#CDCCCC" width="0.5" height="5.1"/>
	<path opacity="0.1" fill="#010101" d="M19.1,94.9c0,1.7,1.3,3,3,3c0.6,0,1.1-0.2,1.6-0.5c-0.5,0.5-1.3,0.9-2.1,0.9
		c-1.7,0-3-1.3-3-3c0-1.1,0.6-2,1.4-2.5C19.5,93.4,19.1,94.1,19.1,94.9z"/>
</g>
<g>
	<circle opacity="0.1" fill="#010101" cx="363.9" cy="133.6" r="3.2"/>
	<circle fill="#CDCCCC" cx="363.8" cy="133.7" r="3"/>
	<circle fill="#F3F3F3" cx="363.8" cy="133.7" r="2.6"/>
	<rect x="363.6" y="131.1" fill="#CDCCCC" width="0.5" height="5.1"/>
	<path opacity="0.1" fill="#010101" d="M361.3,133.3c0,1.7,1.3,3,3,3c0.6,0,1.1-0.2,1.6-0.5c-0.5,0.5-1.3,0.9-2.1,0.9
		c-1.7,0-3-1.3-3-3c0-1.1,0.6-2,1.4-2.5C361.6,131.7,361.3,132.5,361.3,133.3z"/>
</g>
<g>
	<circle opacity="0.1" fill="#010101" cx="331.7" cy="92.9" r="3.2"/>
	<circle fill="#CDCCCC" cx="331.6" cy="93" r="3"/>
	<circle fill="#F3F3F3" cx="331.6" cy="93" r="2.6"/>
	<rect x="331.4" y="90.4" fill="#CDCCCC" width="0.5" height="5.1"/>
	<path opacity="0.1" fill="#010101" d="M329.1,92.6c0,1.7,1.3,3,3,3c0.6,0,1.1-0.2,1.6-0.5c-0.5,0.5-1.3,0.9-2.1,0.9
		c-1.7,0-3-1.3-3-3c0-1.1,0.6-2,1.4-2.5C329.5,91,329.1,91.8,329.1,92.6z"/>
</g>
<g>
	<circle opacity="0.1" fill="#010101" cx="363.9" cy="92.9" r="3.2"/>
	<circle fill="#CDCCCC" cx="363.8" cy="93" r="3"/>
	<circle fill="#F3F3F3" cx="363.8" cy="93" r="2.6"/>
	<rect x="363.6" y="90.4" fill="#CDCCCC" width="0.5" height="5.1"/>
	<path opacity="0.1" fill="#010101" d="M361.3,92.6c0,1.7,1.3,3,3,3c0.6,0,1.1-0.2,1.6-0.5c-0.5,0.5-1.3,0.9-2.1,0.9
		c-1.7,0-3-1.3-3-3c0-1.1,0.6-2,1.4-2.5C361.6,91,361.3,91.8,361.3,92.6z"/>
</g>
<path fill="#D3BC5B" d="M342,293.2H0l0-41.9h372.3v19.9C372.3,283.4,358.7,293.2,342,293.2z"/>
<g>
	<rect x="64.3" y="160.8" fill="#CEB758" width="174.2" height="82.7"/>
	<rect x="116.1" y="188.1" fill="#ECD066" width="71.8" height="1.6"/>
	<rect x="116.1" y="177.2" fill="#ECD066" width="71.8" height="1.6"/>
	<rect x="116.1" y="166.3" fill="#ECD066" width="71.8" height="1.6"/>
	<g>
		<rect x="68" y="194.4" fill="#ECD066" width="45.5" height="46.7"/>
		<g>
			<circle fill="#CEB758" cx="71.1" cy="237.8" r="1.5"/>
			<circle fill="#CEB758" cx="76.5" cy="237.8" r="1.5"/>
			<circle fill="#CEB758" cx="82" cy="237.8" r="1.5"/>
			<circle fill="#CEB758" cx="87.4" cy="237.8" r="1.5"/>
			<circle fill="#CEB758" cx="92.9" cy="237.8" r="1.5"/>
			<circle fill="#CEB758" cx="98.3" cy="237.8" r="1.5"/>
			<circle fill="#CEB758" cx="103.7" cy="237.8" r="1.5"/>
			<circle fill="#CEB758" cx="109.2" cy="237.8" r="1.5"/>
		</g>
		<g>
			<circle fill="#CEB758" cx="71.1" cy="233.5" r="1.5"/>
			<circle fill="#CEB758" cx="76.5" cy="233.5" r="1.5"/>
			<circle fill="#CEB758" cx="82" cy="233.5" r="1.5"/>
			<circle fill="#CEB758" cx="87.4" cy="233.5" r="1.5"/>
			<circle fill="#CEB758" cx="92.9" cy="233.5" r="1.5"/>
			<circle fill="#CEB758" cx="98.3" cy="233.5" r="1.5"/>
			<circle fill="#CEB758" cx="103.7" cy="233.5" r="1.5"/>
			<circle fill="#CEB758" cx="109.2" cy="233.5" r="1.5"/>
		</g>
		<g>
			<circle fill="#CEB758" cx="71.1" cy="229.2" r="1.5"/>
			<circle fill="#CEB758" cx="76.5" cy="229.2" r="1.5"/>
			<circle fill="#CEB758" cx="82" cy="229.2" r="1.5"/>
			<circle fill="#CEB758" cx="87.4" cy="229.2" r="1.5"/>
			<circle fill="#CEB758" cx="92.9" cy="229.2" r="1.5"/>
			<circle fill="#CEB758" cx="98.3" cy="229.2" r="1.5"/>
			<circle fill="#CEB758" cx="103.7" cy="229.2" r="1.5"/>
			<circle fill="#CEB758" cx="109.2" cy="229.2" r="1.5"/>
		</g>
		<g>
			<circle fill="#CEB758" cx="71.1" cy="224.9" r="1.5"/>
			<circle fill="#CEB758" cx="76.5" cy="224.9" r="1.5"/>
			<circle fill="#CEB758" cx="82" cy="224.9" r="1.5"/>
			<circle fill="#CEB758" cx="87.4" cy="224.9" r="1.5"/>
			<circle fill="#CEB758" cx="92.9" cy="224.9" r="1.5"/>
			<circle fill="#CEB758" cx="98.3" cy="224.9" r="1.5"/>
			<circle fill="#CEB758" cx="103.7" cy="224.9" r="1.5"/>
			<circle fill="#CEB758" cx="109.2" cy="224.9" r="1.5"/>
		</g>
		<g>
			<circle fill="#CEB758" cx="71.1" cy="220.6" r="1.5"/>
			<circle fill="#CEB758" cx="76.5" cy="220.6" r="1.5"/>
			<circle fill="#CEB758" cx="82" cy="220.6" r="1.5"/>
			<circle fill="#CEB758" cx="87.4" cy="220.6" r="1.5"/>
			<circle fill="#CEB758" cx="92.9" cy="220.6" r="1.5"/>
			<circle fill="#CEB758" cx="98.3" cy="220.6" r="1.5"/>
			<circle fill="#CEB758" cx="103.7" cy="220.6" r="1.5"/>
			<circle fill="#CEB758" cx="109.2" cy="220.6" r="1.5"/>
		</g>
		<g>
			<circle fill="#CEB758" cx="71.1" cy="216.3" r="1.5"/>
			<circle fill="#CEB758" cx="76.5" cy="216.3" r="1.5"/>
			<circle fill="#CEB758" cx="82" cy="216.3" r="1.5"/>
			<circle fill="#CEB758" cx="87.4" cy="216.3" r="1.5"/>
			<circle fill="#CEB758" cx="92.9" cy="216.3" r="1.5"/>
			<circle fill="#CEB758" cx="98.3" cy="216.3" r="1.5"/>
			<circle fill="#CEB758" cx="103.7" cy="216.3" r="1.5"/>
			<circle fill="#CEB758" cx="109.2" cy="216.3" r="1.5"/>
		</g>
		<g>
			<circle fill="#CEB758" cx="71.1" cy="212" r="1.5"/>
			<circle fill="#CEB758" cx="76.5" cy="212" r="1.5"/>
			<circle fill="#CEB758" cx="82" cy="212" r="1.5"/>
			<circle fill="#CEB758" cx="87.4" cy="212" r="1.5"/>
			<circle fill="#CEB758" cx="92.9" cy="212" r="1.5"/>
			<circle fill="#CEB758" cx="98.3" cy="212" r="1.5"/>
			<circle fill="#CEB758" cx="103.7" cy="212" r="1.5"/>
			<circle fill="#CEB758" cx="109.2" cy="212" r="1.5"/>
		</g>
		<g>
			<circle fill="#CEB758" cx="71.1" cy="207.8" r="1.5"/>
			<circle fill="#CEB758" cx="76.5" cy="207.8" r="1.5"/>
			<circle fill="#CEB758" cx="82" cy="207.8" r="1.5"/>
			<circle fill="#CEB758" cx="87.4" cy="207.8" r="1.5"/>
			<circle fill="#CEB758" cx="92.9" cy="207.8" r="1.5"/>
			<circle fill="#CEB758" cx="98.3" cy="207.8" r="1.5"/>
			<circle fill="#CEB758" cx="103.7" cy="207.8" r="1.5"/>
			<circle fill="#CEB758" cx="109.2" cy="207.8" r="1.5"/>
		</g>
		<g>
			<circle fill="#CEB758" cx="71.1" cy="203.5" r="1.5"/>
			<circle fill="#CEB758" cx="76.5" cy="203.5" r="1.5"/>
			<circle fill="#CEB758" cx="82" cy="203.5" r="1.5"/>
			<circle fill="#CEB758" cx="87.4" cy="203.5" r="1.5"/>
			<circle fill="#CEB758" cx="92.9" cy="203.5" r="1.5"/>
			<circle fill="#CEB758" cx="98.3" cy="203.5" r="1.5"/>
			<circle fill="#CEB758" cx="103.7" cy="203.5" r="1.5"/>
			<circle fill="#CEB758" cx="109.2" cy="203.5" r="1.5"/>
		</g>
		<g>
			<circle fill="#CEB758" cx="71.1" cy="199.2" r="1.5"/>
			<circle fill="#CEB758" cx="76.5" cy="199.2" r="1.5"/>
			<circle fill="#CEB758" cx="82" cy="199.2" r="1.5"/>
			<circle fill="#CEB758" cx="87.4" cy="199.2" r="1.5"/>
			<circle fill="#CEB758" cx="92.9" cy="199.2" r="1.5"/>
			<circle fill="#CEB758" cx="98.3" cy="199.2" r="1.5"/>
			<circle fill="#CEB758" cx="103.7" cy="199.2" r="1.5"/>
			<circle fill="#CEB758" cx="109.2" cy="199.2" r="1.5"/>
		</g>
	</g>
	<g>
		<rect x="116.9" y="194.4" fill="#ECD066" width="45.5" height="46.7"/>
		<g>
			<circle fill="#CEB758" cx="120.1" cy="237.8" r="1.5"/>
			<circle fill="#CEB758" cx="125.5" cy="237.8" r="1.5"/>
			<circle fill="#CEB758" cx="130.9" cy="237.8" r="1.5"/>
			<circle fill="#CEB758" cx="136.4" cy="237.8" r="1.5"/>
			<circle fill="#CEB758" cx="141.8" cy="237.8" r="1.5"/>
			<circle fill="#CEB758" cx="147.2" cy="237.8" r="1.5"/>
			<circle fill="#CEB758" cx="152.7" cy="237.8" r="1.5"/>
			<circle fill="#CEB758" cx="158.1" cy="237.8" r="1.5"/>
		</g>
		<g>
			<circle fill="#CEB758" cx="120.1" cy="233.5" r="1.5"/>
			<circle fill="#CEB758" cx="125.5" cy="233.5" r="1.5"/>
			<circle fill="#CEB758" cx="130.9" cy="233.5" r="1.5"/>
			<circle fill="#CEB758" cx="136.4" cy="233.5" r="1.5"/>
			<circle fill="#CEB758" cx="141.8" cy="233.5" r="1.5"/>
			<circle fill="#CEB758" cx="147.2" cy="233.5" r="1.5"/>
			<circle fill="#CEB758" cx="152.7" cy="233.5" r="1.5"/>
			<circle fill="#CEB758" cx="158.1" cy="233.5" r="1.5"/>
		</g>
		<g>
			<circle fill="#CEB758" cx="120.1" cy="229.2" r="1.5"/>
			<circle fill="#CEB758" cx="125.5" cy="229.2" r="1.5"/>
			<circle fill="#CEB758" cx="130.9" cy="229.2" r="1.5"/>
			<circle fill="#CEB758" cx="136.4" cy="229.2" r="1.5"/>
			<circle fill="#CEB758" cx="141.8" cy="229.2" r="1.5"/>
			<circle fill="#CEB758" cx="147.2" cy="229.2" r="1.5"/>
			<circle fill="#CEB758" cx="152.7" cy="229.2" r="1.5"/>
			<circle fill="#CEB758" cx="158.1" cy="229.2" r="1.5"/>
		</g>
		<g>
			<circle fill="#CEB758" cx="120.1" cy="224.9" r="1.5"/>
			<circle fill="#CEB758" cx="125.5" cy="224.9" r="1.5"/>
			<circle fill="#CEB758" cx="130.9" cy="224.9" r="1.5"/>
			<circle fill="#CEB758" cx="136.4" cy="224.9" r="1.5"/>
			<circle fill="#CEB758" cx="141.8" cy="224.9" r="1.5"/>
			<circle fill="#CEB758" cx="147.2" cy="224.9" r="1.5"/>
			<circle fill="#CEB758" cx="152.7" cy="224.9" r="1.5"/>
			<circle fill="#CEB758" cx="158.1" cy="224.9" r="1.5"/>
		</g>
		<g>
			<circle fill="#CEB758" cx="120.1" cy="220.6" r="1.5"/>
			<circle fill="#CEB758" cx="125.5" cy="220.6" r="1.5"/>
			<circle fill="#CEB758" cx="130.9" cy="220.6" r="1.5"/>
			<circle fill="#CEB758" cx="136.4" cy="220.6" r="1.5"/>
			<circle fill="#CEB758" cx="141.8" cy="220.6" r="1.5"/>
			<circle fill="#CEB758" cx="147.2" cy="220.6" r="1.5"/>
			<circle fill="#CEB758" cx="152.7" cy="220.6" r="1.5"/>
			<circle fill="#CEB758" cx="158.1" cy="220.6" r="1.5"/>
		</g>
		<g>
			<circle fill="#CEB758" cx="120.1" cy="216.3" r="1.5"/>
			<circle fill="#CEB758" cx="125.5" cy="216.3" r="1.5"/>
			<circle fill="#CEB758" cx="130.9" cy="216.3" r="1.5"/>
			<circle fill="#CEB758" cx="136.4" cy="216.3" r="1.5"/>
			<circle fill="#CEB758" cx="141.8" cy="216.3" r="1.5"/>
			<circle fill="#CEB758" cx="147.2" cy="216.3" r="1.5"/>
			<circle fill="#CEB758" cx="152.7" cy="216.3" r="1.5"/>
			<circle fill="#CEB758" cx="158.1" cy="216.3" r="1.5"/>
		</g>
		<g>
			<circle fill="#CEB758" cx="120.1" cy="212" r="1.5"/>
			<circle fill="#CEB758" cx="125.5" cy="212" r="1.5"/>
			<circle fill="#CEB758" cx="130.9" cy="212" r="1.5"/>
			<circle fill="#CEB758" cx="136.4" cy="212" r="1.5"/>
			<circle fill="#CEB758" cx="141.8" cy="212" r="1.5"/>
			<circle fill="#CEB758" cx="147.2" cy="212" r="1.5"/>
			<circle fill="#CEB758" cx="152.7" cy="212" r="1.5"/>
			<circle fill="#CEB758" cx="158.1" cy="212" r="1.5"/>
		</g>
		<g>
			<circle fill="#CEB758" cx="120.1" cy="207.8" r="1.5"/>
			<circle fill="#CEB758" cx="125.5" cy="207.8" r="1.5"/>
			<circle fill="#CEB758" cx="130.9" cy="207.8" r="1.5"/>
			<circle fill="#CEB758" cx="136.4" cy="207.8" r="1.5"/>
			<circle fill="#CEB758" cx="141.8" cy="207.8" r="1.5"/>
			<circle fill="#CEB758" cx="147.2" cy="207.8" r="1.5"/>
			<circle fill="#CEB758" cx="152.7" cy="207.8" r="1.5"/>
			<circle fill="#CEB758" cx="158.1" cy="207.8" r="1.5"/>
		</g>
		<g>
			<circle fill="#CEB758" cx="120.1" cy="203.5" r="1.5"/>
			<circle fill="#CEB758" cx="125.5" cy="203.5" r="1.5"/>
			<circle fill="#CEB758" cx="130.9" cy="203.5" r="1.5"/>
			<circle fill="#CEB758" cx="136.4" cy="203.5" r="1.5"/>
			<circle fill="#CEB758" cx="141.8" cy="203.5" r="1.5"/>
			<circle fill="#CEB758" cx="147.2" cy="203.5" r="1.5"/>
			<circle fill="#CEB758" cx="152.7" cy="203.5" r="1.5"/>
			<circle fill="#CEB758" cx="158.1" cy="203.5" r="1.5"/>
		</g>
		<g>
			<circle fill="#CEB758" cx="120.1" cy="199.2" r="1.5"/>
			<circle fill="#CEB758" cx="125.5" cy="199.2" r="1.5"/>
			<circle fill="#CEB758" cx="130.9" cy="199.2" r="1.5"/>
			<circle fill="#CEB758" cx="136.4" cy="199.2" r="1.5"/>
			<circle fill="#CEB758" cx="141.8" cy="199.2" r="1.5"/>
			<circle fill="#CEB758" cx="147.2" cy="199.2" r="1.5"/>
			<circle fill="#CEB758" cx="152.7" cy="199.2" r="1.5"/>
			<circle fill="#CEB758" cx="158.1" cy="199.2" r="1.5"/>
		</g>
	</g>
	<g>
		<rect x="165.8" y="194.4" fill="#ECD066" width="45.5" height="46.7"/>
		<g>
			<circle fill="#CEB758" cx="169" cy="237.8" r="1.5"/>
			<circle fill="#CEB758" cx="174.4" cy="237.8" r="1.5"/>
			<circle fill="#CEB758" cx="179.9" cy="237.8" r="1.5"/>
			<circle fill="#CEB758" cx="185.3" cy="237.8" r="1.5"/>
			<circle fill="#CEB758" cx="190.8" cy="237.8" r="1.5"/>
			<circle fill="#CEB758" cx="196.2" cy="237.8" r="1.5"/>
			<circle fill="#CEB758" cx="201.6" cy="237.8" r="1.5"/>
			<circle fill="#CEB758" cx="207.1" cy="237.8" r="1.5"/>
		</g>
		<g>
			<circle fill="#CEB758" cx="169" cy="233.5" r="1.5"/>
			<circle fill="#CEB758" cx="174.4" cy="233.5" r="1.5"/>
			<circle fill="#CEB758" cx="179.9" cy="233.5" r="1.5"/>
			<circle fill="#CEB758" cx="185.3" cy="233.5" r="1.5"/>
			<circle fill="#CEB758" cx="190.8" cy="233.5" r="1.5"/>
			<circle fill="#CEB758" cx="196.2" cy="233.5" r="1.5"/>
			<circle fill="#CEB758" cx="201.6" cy="233.5" r="1.5"/>
			<circle fill="#CEB758" cx="207.1" cy="233.5" r="1.5"/>
		</g>
		<g>
			<circle fill="#CEB758" cx="169" cy="229.2" r="1.5"/>
			<circle fill="#CEB758" cx="174.4" cy="229.2" r="1.5"/>
			<circle fill="#CEB758" cx="179.9" cy="229.2" r="1.5"/>
			<circle fill="#CEB758" cx="185.3" cy="229.2" r="1.5"/>
			<circle fill="#CEB758" cx="190.8" cy="229.2" r="1.5"/>
			<circle fill="#CEB758" cx="196.2" cy="229.2" r="1.5"/>
			<circle fill="#CEB758" cx="201.6" cy="229.2" r="1.5"/>
			<circle fill="#CEB758" cx="207.1" cy="229.2" r="1.5"/>
		</g>
		<g>
			<circle fill="#CEB758" cx="169" cy="224.9" r="1.5"/>
			<circle fill="#CEB758" cx="174.4" cy="224.9" r="1.5"/>
			<circle fill="#CEB758" cx="179.9" cy="224.9" r="1.5"/>
			<circle fill="#CEB758" cx="185.3" cy="224.9" r="1.5"/>
			<circle fill="#CEB758" cx="190.8" cy="224.9" r="1.5"/>
			<circle fill="#CEB758" cx="196.2" cy="224.9" r="1.5"/>
			<circle fill="#CEB758" cx="201.6" cy="224.9" r="1.5"/>
			<circle fill="#CEB758" cx="207.1" cy="224.9" r="1.5"/>
		</g>
		<g>
			<circle fill="#CEB758" cx="169" cy="220.6" r="1.5"/>
			<circle fill="#CEB758" cx="174.4" cy="220.6" r="1.5"/>
			<circle fill="#CEB758" cx="179.9" cy="220.6" r="1.5"/>
			<circle fill="#CEB758" cx="185.3" cy="220.6" r="1.5"/>
			<circle fill="#CEB758" cx="190.8" cy="220.6" r="1.5"/>
			<circle fill="#CEB758" cx="196.2" cy="220.6" r="1.5"/>
			<circle fill="#CEB758" cx="201.6" cy="220.6" r="1.5"/>
			<circle fill="#CEB758" cx="207.1" cy="220.6" r="1.5"/>
		</g>
		<g>
			<circle fill="#CEB758" cx="169" cy="216.3" r="1.5"/>
			<circle fill="#CEB758" cx="174.4" cy="216.3" r="1.5"/>
			<circle fill="#CEB758" cx="179.9" cy="216.3" r="1.5"/>
			<circle fill="#CEB758" cx="185.3" cy="216.3" r="1.5"/>
			<circle fill="#CEB758" cx="190.8" cy="216.3" r="1.5"/>
			<circle fill="#CEB758" cx="196.2" cy="216.3" r="1.5"/>
			<circle fill="#CEB758" cx="201.6" cy="216.3" r="1.5"/>
			<circle fill="#CEB758" cx="207.1" cy="216.3" r="1.5"/>
		</g>
		<g>
			<circle fill="#CEB758" cx="169" cy="212" r="1.5"/>
			<circle fill="#CEB758" cx="174.4" cy="212" r="1.5"/>
			<circle fill="#CEB758" cx="179.9" cy="212" r="1.5"/>
			<circle fill="#CEB758" cx="185.3" cy="212" r="1.5"/>
			<circle fill="#CEB758" cx="190.8" cy="212" r="1.5"/>
			<circle fill="#CEB758" cx="196.2" cy="212" r="1.5"/>
			<circle fill="#CEB758" cx="201.6" cy="212" r="1.5"/>
			<circle fill="#CEB758" cx="207.1" cy="212" r="1.5"/>
		</g>
		<g>
			<circle fill="#CEB758" cx="169" cy="207.8" r="1.5"/>
			<circle fill="#CEB758" cx="174.4" cy="207.8" r="1.5"/>
			<circle fill="#CEB758" cx="179.9" cy="207.8" r="1.5"/>
			<circle fill="#CEB758" cx="185.3" cy="207.8" r="1.5"/>
			<circle fill="#CEB758" cx="190.8" cy="207.8" r="1.5"/>
			<circle fill="#CEB758" cx="196.2" cy="207.8" r="1.5"/>
			<circle fill="#CEB758" cx="201.6" cy="207.8" r="1.5"/>
			<circle fill="#CEB758" cx="207.1" cy="207.8" r="1.5"/>
		</g>
		<g>
			<circle fill="#CEB758" cx="169" cy="203.5" r="1.5"/>
			<circle fill="#CEB758" cx="174.4" cy="203.5" r="1.5"/>
			<circle fill="#CEB758" cx="179.9" cy="203.5" r="1.5"/>
			<circle fill="#CEB758" cx="185.3" cy="203.5" r="1.5"/>
			<circle fill="#CEB758" cx="190.8" cy="203.5" r="1.5"/>
			<circle fill="#CEB758" cx="196.2" cy="203.5" r="1.5"/>
			<circle fill="#CEB758" cx="201.6" cy="203.5" r="1.5"/>
			<circle fill="#CEB758" cx="207.1" cy="203.5" r="1.5"/>
		</g>
		<g>
			<circle fill="#CEB758" cx="169" cy="199.2" r="1.5"/>
			<circle fill="#CEB758" cx="174.4" cy="199.2" r="1.5"/>
			<circle fill="#CEB758" cx="179.9" cy="199.2" r="1.5"/>
			<circle fill="#CEB758" cx="185.3" cy="199.2" r="1.5"/>
			<circle fill="#CEB758" cx="190.8" cy="199.2" r="1.5"/>
			<circle fill="#CEB758" cx="196.2" cy="199.2" r="1.5"/>
			<circle fill="#CEB758" cx="201.6" cy="199.2" r="1.5"/>
			<circle fill="#CEB758" cx="207.1" cy="199.2" r="1.5"/>
		</g>
	</g>
</g>
<g>
	<circle fill="#ECD066" cx="226.1" cy="232.1" r="5.6"/>
	<circle fill="#CEB758" cx="226.1" cy="232.1" r="3.6"/>
	<circle fill="#ECD066" cx="226.1" cy="192" r="5.6"/>
	<circle fill="#59C1A2" cx="226.1" cy="192" r="3.6"/>
	<circle fill="#ECD066" cx="226.1" cy="212.2" r="5.6"/>
	<circle fill="#F27970" cx="226.1" cy="212.2" r="3.6"/>
</g>
<g>
	<g>
		<rect x="286.4" y="173.3" fill="#CEB758" width="13.4" height="72.5"/>
		<rect x="289.5" y="178" fill="#F3F3F3" width="7.1" height="63.7"/>
	</g>
	<rect x="283.7" y="233.9" fill="#AF9D4B" width="18.8" height="7.8"/>
	<g>
		<rect x="315.1" y="173.3" fill="#CEB758" width="13.4" height="72.5"/>
		<rect x="318.2" y="178" fill="#F3F3F3" width="7.1" height="63.7"/>
	</g>
	<rect x="312.4" y="203.5" fill="#AF9D4B" width="18.8" height="7.8"/>
	<g>
		<rect x="343.7" y="173.3" fill="#CEB758" width="13.4" height="72.5"/>
		<rect x="346.8" y="178" fill="#F3F3F3" width="7.1" height="63.7"/>
	</g>
	<rect x="341" y="188.5" fill="#AF9D4B" width="18.8" height="7.8"/>
</g>
<g>
	<path fill="#F3F3F3" d="M278.2,109.2c9.6,0,18.1-5,23-12.5c2.8,4.3,4.4,9.4,4.4,14.9c0,15.1-12.3,27.4-27.4,27.4
		c-15.1,0-27.4-12.3-27.4-27.4c0-5.5,1.6-10.6,4.4-14.9C260.1,104.3,268.6,109.2,278.2,109.2z"/>
	<g opacity="5.000000e-002">
		<path fill="#010101" d="M255.7,111.7c0,14.3,11,26.1,25,27.3c-0.8,0.1-1.6,0.1-2.4,0.1c-15.1,0-27.4-12.3-27.4-27.4
			c0-5.5,1.6-10.6,4.4-14.9c0.8,1.3,1.8,2.5,2.8,3.7C256.6,103.8,255.7,107.7,255.7,111.7z"/>
		<path fill="#010101" d="M283.1,109.2c-0.8,0-1.6,0-2.4-0.1c8.6-0.8,16.1-5.5,20.6-12.4c0.8,1.2,1.4,2.4,2,3.7
			C298.2,105.8,291,109.2,283.1,109.2z"/>
	</g>
	
		<ellipse transform="matrix(0.9071 0.4209 -0.4209 0.9071 73.8208 -105.0879)" fill="#F1698D" cx="275" cy="114.7" rx="0.9" ry="17.1"/>
	<path fill="#9C8D43" d="M300.3,92.9c-3.5,8.8-12.1,14.9-22.1,14.9c-10,0-18.6-6.2-22.1-14.9H300.3z"/>
	<path fill="#857A38" d="M282.1,107.5c-1.2,0.2-2.5,0.3-3.8,0.3c-10,0-18.6-6.2-22.1-14.9h7.7C266.9,100.5,273.7,106.2,282.1,107.5z
		"/>
	<rect x="277.8" y="134.7" fill="#D6D6D7" width="0.5" height="4"/>
	<rect x="300.5" y="109" fill="#D6D6D7" width="4" height="0.5"/>
	<rect x="251.7" y="109" fill="#D6D6D7" width="4" height="0.5"/>
	
		<rect x="259.2" y="125.8" transform="matrix(-0.7078 -0.7064 0.7064 -0.7078 352.8775 401.5157)" fill="#D6D6D7" width="0.5" height="4"/>
	
		<rect x="296.4" y="125.8" transform="matrix(0.7058 -0.7084 0.7084 0.7058 -3.2348 247.7625)" fill="#D6D6D7" width="0.5" height="4"/>
</g>
<g>
	<path fill="#F3F3F3" d="M195.3,109.2c9.6,0,18.1-5,23-12.5c2.8,4.3,4.4,9.4,4.4,14.9c0,15.1-12.3,27.4-27.4,27.4
		c-15.1,0-27.4-12.3-27.4-27.4c0-5.5,1.6-10.6,4.4-14.9C177.2,104.3,185.6,109.2,195.3,109.2z"/>
	<g opacity="5.000000e-002">
		<path fill="#010101" d="M172.7,111.7c0,14.3,11,26.1,25,27.3c-0.8,0.1-1.6,0.1-2.4,0.1c-15.1,0-27.4-12.3-27.4-27.4
			c0-5.5,1.6-10.6,4.4-14.9c0.8,1.3,1.8,2.5,2.8,3.7C173.6,103.8,172.7,107.7,172.7,111.7z"/>
		<path fill="#010101" d="M200.1,109.2c-0.8,0-1.6,0-2.4-0.1c8.6-0.8,16.1-5.5,20.6-12.4c0.8,1.2,1.4,2.4,2,3.7
			C215.2,105.8,208.1,109.2,200.1,109.2z"/>
	</g>
	
		<ellipse transform="matrix(0.7381 -0.6746 0.6746 0.7381 -24.6039 164.3158)" fill="#F1698D" cx="199.4" cy="113.9" rx="0.9" ry="17.1"/>
	<path fill="#9C8D43" d="M217.4,92.9c-3.5,8.8-12.1,14.9-22.1,14.9c-10,0-18.6-6.2-22.1-14.9H217.4z"/>
	<path fill="#857A38" d="M199.1,107.5c-1.2,0.2-2.5,0.3-3.8,0.3c-10,0-18.6-6.2-22.1-14.9h7.7C183.9,100.5,190.7,106.2,199.1,107.5z
		"/>
	<rect x="194.8" y="134.7" fill="#D6D6D7" width="0.5" height="4"/>
	<rect x="217.5" y="109" fill="#D6D6D7" width="4" height="0.5"/>
	<rect x="168.7" y="109" fill="#D6D6D7" width="4" height="0.5"/>
	
		<rect x="176.3" y="125.8" transform="matrix(-0.7085 -0.7057 0.7057 -0.7085 211.3597 342.8573)" fill="#D6D6D7" width="0.5" height="4"/>
	
		<rect x="213.4" y="125.8" transform="matrix(0.7071 -0.7071 0.7071 0.7071 -27.7643 188.5226)" fill="#D6D6D7" width="0.5" height="4"/>
</g>
<g>
	<path fill="#F3F3F3" d="M112.3,109.2c9.6,0,18.1-5,23-12.5c2.8,4.3,4.4,9.4,4.4,14.9c0,15.1-12.3,27.4-27.4,27.4
		c-15.1,0-27.4-12.3-27.4-27.4c0-5.5,1.6-10.6,4.4-14.9C94.2,104.3,102.6,109.2,112.3,109.2z"/>
	<g opacity="5.000000e-002">
		<path fill="#010101" d="M89.7,111.7c0,14.3,11,26.1,25,27.3c-0.8,0.1-1.6,0.1-2.4,0.1c-15.1,0-27.4-12.3-27.4-27.4
			c0-5.5,1.6-10.6,4.4-14.9c0.8,1.3,1.8,2.5,2.8,3.7C90.6,103.8,89.7,107.7,89.7,111.7z"/>
		<path fill="#010101" d="M117.1,109.2c-0.8,0-1.6,0-2.4-0.1c8.6-0.8,16.1-5.5,20.6-12.4c0.8,1.2,1.4,2.4,2,3.7
			C132.2,105.8,125.1,109.2,117.1,109.2z"/>
	</g>
	<ellipse fill="#F1698D" cx="112.2" cy="115.4" rx="0.9" ry="17.1"/>
	<path fill="#9C8D43" d="M134.4,92.9c-3.5,8.8-12.1,14.9-22.1,14.9c-10,0-18.6-6.2-22.1-14.9H134.4z"/>
	<path fill="#857A38" d="M116.1,107.5c-1.2,0.2-2.5,0.3-3.8,0.3c-10,0-18.6-6.2-22.1-14.9h7.7C100.9,100.5,107.8,106.2,116.1,107.5z
		"/>
	<rect x="111.8" y="134.7" fill="#D6D6D7" width="0.5" height="4"/>
	<rect x="134.5" y="109" fill="#D6D6D7" width="4" height="0.5"/>
	<rect x="85.7" y="109" fill="#D6D6D7" width="4" height="0.5"/>
	
		<rect x="93.3" y="125.8" transform="matrix(-0.7071 -0.7071 0.7071 -0.7071 69.2675 284.2431)" fill="#D6D6D7" width="0.5" height="4"/>
	
		<rect x="130.5" y="125.8" transform="matrix(0.7058 -0.7084 0.7084 0.7058 -52.0671 130.1803)" fill="#D6D6D7" width="0.5" height="4"/>
</g>
</svg>
