<?xml version="1.0" encoding="utf-8"?>
<!-- Generator: Adobe Illustrator 18.1.1, SVG Export Plug-In . SVG Version: 6.00 Build 0)  -->
<svg version="1.1" id="Layer_1" xmlns="http://www.w3.org/2000/svg" xmlns:xlink="http://www.w3.org/1999/xlink" x="0px" y="0px"
	 viewBox="0 0 96.9 96.9" enable-background="new 0 0 96.9 96.9" xml:space="preserve">
<path fill-rule="evenodd" clip-rule="evenodd" fill="#FFFFFF" d="M73.1,26.8c1.9,0,3.5-1.6,3.5-3.5c0-1.9-1.6-3.5-3.5-3.5
	c-1.9,0-3.5,1.6-3.5,3.5C69.7,25.3,71.2,26.8,73.1,26.8z"/>
<g>
	
		<path fill="none" stroke="#D3EBEB" stroke-width="6.0001" stroke-linecap="round" stroke-linejoin="round" stroke-miterlimit="22.9256" d="
		M41.2,7.5c-2.4,0.4-4.8,1.1-7,1.9l-1.3-3.6c-2.5,0.9-4.9,2-7.2,3.4l1.9,3.4c-2.1,1.2-4.1,2.6-5.9,4.2l-2.5-3
		c-2,1.7-3.9,3.6-5.6,5.6l3,2.5c-1.6,1.8-2.9,3.8-4.2,5.9l-3.4-1.9c-1.3,2.3-2.4,4.7-3.4,7.2l3.6,1.3c-0.8,2.2-1.4,4.6-1.9,7
		l-3.8-0.7C3.2,43.1,3,45.7,3,48.4l0,0h3.9c0,2.5,0.2,4.9,0.6,7.2l-3.8,0.7c0.5,2.6,1.1,5.2,2,7.7l3.6-1.3c0.8,2.3,1.9,4.5,3.1,6.6
		l-3.4,1.9c1.3,2.3,2.9,4.5,4.5,6.5l3-2.5c1.6,1.9,3.3,3.6,5.1,5.1l-2.5,3c2,1.7,4.2,3.2,6.5,4.5l1.9-3.4c2.1,1.2,4.3,2.2,6.6,3.1
		l-1.3,3.6c2.5,0.9,5,1.6,7.7,2l0.7-3.8c2.3,0.4,4.8,0.6,7.2,0.6v3.9c2.7,0,5.3-0.2,7.9-0.7l-0.7-3.8c2.4-0.4,4.8-1.1,7-1.9l1.3,3.6
		c2.5-0.9,4.9-2,7.2-3.4l-1.9-3.4c2.1-1.2,4.1-2.6,5.9-4.2l2.5,3c2-1.7,3.9-3.6,5.6-5.6l-3-2.5c1.6-1.8,2.9-3.8,4.2-5.9l3.4,1.9
		c1.3-2.3,2.4-4.7,3.4-7.2l-3.6-1.3c0.8-2.2,1.4-4.6,1.9-7l3.8,0.7c0.4-2.6,0.7-5.2,0.7-7.9l0,0H90c0-2.5-0.2-4.9-0.6-7.2l3.8-0.7
		c-0.5-2.6-1.1-5.2-2-7.7l-3.6,1.3c-0.8-2.3-1.9-4.5-3.1-6.6l3.4-1.9c-1.3-2.3-2.9-4.5-4.5-6.5l-3,2.5c-1.6-1.9-3.3-3.6-5.1-5.1
		l2.5-3c-2-1.7-4.2-3.2-6.5-4.5l-1.9,3.4c-2.1-1.2-4.3-2.2-6.6-3.1L64,5.7c-2.5-0.9-5-1.6-7.7-2l-0.7,3.8c-2.3-0.4-4.8-0.6-7.2-0.6
		V3c-2.7,0-5.3,0.2-7.9,0.7L41.2,7.5z"/>
	<path fill-rule="evenodd" clip-rule="evenodd" fill="#539493" d="M41.2,7.5c-2.4,0.4-4.8,1.1-7,1.9l-1.3-3.6
		c-2.5,0.9-4.9,2-7.2,3.4l1.9,3.4c-2.1,1.2-4.1,2.6-5.9,4.2l-2.5-3c-2,1.7-3.9,3.6-5.6,5.6l3,2.5c-1.6,1.8-2.9,3.8-4.2,5.9l-3.4-1.9
		c-1.3,2.3-2.4,4.7-3.4,7.2l3.6,1.3c-0.8,2.2-1.4,4.6-1.9,7l-3.8-0.7C3.2,43.1,3,45.7,3,48.4l0,0h3.9c0,2.5,0.2,4.9,0.6,7.2
		l-3.8,0.7c0.5,2.6,1.1,5.2,2,7.7l3.6-1.3c0.8,2.3,1.9,4.5,3.1,6.6l-3.4,1.9c1.3,2.3,2.9,4.5,4.5,6.5l3-2.5c1.6,1.9,3.3,3.6,5.1,5.1
		l-2.5,3c2,1.7,4.2,3.2,6.5,4.5l1.9-3.4c2.1,1.2,4.3,2.2,6.6,3.1l-1.3,3.6c2.5,0.9,5,1.6,7.7,2l0.7-3.8c2.3,0.4,4.8,0.6,7.2,0.6v3.9
		c2.7,0,5.3-0.2,7.9-0.7l-0.7-3.8c2.4-0.4,4.8-1.1,7-1.9l1.3,3.6c2.5-0.9,4.9-2,7.2-3.4l-1.9-3.4c2.1-1.2,4.1-2.6,5.9-4.2l2.5,3
		c2-1.7,3.9-3.6,5.6-5.6l-3-2.5c1.6-1.8,2.9-3.8,4.2-5.9l3.4,1.9c1.3-2.3,2.4-4.7,3.4-7.2l-3.6-1.3c0.8-2.2,1.4-4.6,1.9-7l3.8,0.7
		c0.4-2.6,0.7-5.2,0.7-7.9l0,0H90c0-2.5-0.2-4.9-0.6-7.2l3.8-0.7c-0.5-2.6-1.1-5.2-2-7.7l-3.6,1.3c-0.8-2.3-1.9-4.5-3.1-6.6l3.4-1.9
		c-1.3-2.3-2.9-4.5-4.5-6.5l-3,2.5c-1.6-1.9-3.3-3.6-5.1-5.1l2.5-3c-2-1.7-4.2-3.2-6.5-4.5l-1.9,3.4c-2.1-1.2-4.3-2.2-6.6-3.1
		L64,5.7c-2.5-0.9-5-1.6-7.7-2l-0.7,3.8c-2.3-0.4-4.8-0.6-7.2-0.6V3c-2.7,0-5.3,0.2-7.9,0.7L41.2,7.5z"/>
</g>
<circle fill-rule="evenodd" clip-rule="evenodd" fill="#38504F" cx="48.4" cy="48.4" r="27.2"/>
<path fill-rule="evenodd" clip-rule="evenodd" fill="#BAD7D5" d="M48.4,59.2c5.9,0,10.8-4.8,10.8-10.8c0-5.9-4.8-10.8-10.8-10.8
	c-5.9,0-10.8,4.8-10.8,10.8C37.7,54.4,42.5,59.2,48.4,59.2z"/>
<path fill-rule="evenodd" clip-rule="evenodd" fill="#FFFFFF" d="M48.4,51.9c1.9,0,3.5-1.6,3.5-3.5c0-1.9-1.6-3.5-3.5-3.5
	c-1.9,0-3.5,1.6-3.5,3.5C45,50.3,46.5,51.9,48.4,51.9z"/>
</svg>
