<?xml version="1.0" encoding="utf-8"?>
<!-- Generator: Adobe Illustrator 18.1.1, SVG Export Plug-In . SVG Version: 6.00 Build 0)  -->
<svg version="1.1" id="Layer_1" xmlns="http://www.w3.org/2000/svg" xmlns:xlink="http://www.w3.org/1999/xlink" x="0px" y="0px"
	 viewBox="0 0 180.3 180.3" enable-background="new 0 0 180.3 180.3" xml:space="preserve">
<g>
	
		<path fill-rule="evenodd" clip-rule="evenodd" fill="none" stroke="#D3EBEB" stroke-width="6.0001" stroke-linecap="round" stroke-linejoin="round" stroke-miterlimit="22.9256" d="
		M103.9,12.2c4.6,0.8,9.1,2,13.3,3.6l2.7-7.5c4.8,1.7,9.4,3.9,13.8,6.4l-4,6.9c4,2.3,7.8,5,11.3,7.9l5.1-6.1
		c3.9,3.3,7.5,6.9,10.7,10.7l-6.1,5.1c3,3.5,5.6,7.3,7.9,11.3l6.9-4c2.5,4.4,4.7,9,6.4,13.8l-7.5,2.7c1.6,4.3,2.8,8.7,3.6,13.3
		L176,75c0.9,4.9,1.3,10,1.3,15.1l0,0h-8c0,4.7-0.4,9.3-1.2,13.8l7.8,1.4c-0.9,5.1-2.2,10-3.9,14.7l-7.5-2.7
		c-1.6,4.4-3.5,8.5-5.8,12.5l6.9,4c-2.5,4.4-5.5,8.6-8.7,12.4l-6.1-5.1c-3,3.5-6.2,6.8-9.8,9.8l5.1,6.1c-3.9,3.3-8,6.2-12.4,8.7
		l-4-6.9c-4,2.3-8.1,4.3-12.5,5.8l2.7,7.5c-4.7,1.7-9.6,3-14.7,3.9l-1.4-7.9c-4.5,0.8-9.1,1.2-13.8,1.2v8c-5.2,0-10.2-0.5-15.1-1.3
		l1.4-7.8c-4.6-0.8-9.1-2-13.3-3.6l-2.7,7.5c-4.8-1.7-9.4-3.9-13.8-6.4l4-6.9c-4-2.3-7.8-5-11.3-7.9l-5.1,6.1
		c-3.9-3.3-7.5-6.9-10.7-10.7l6.1-5.1c-3-3.5-5.6-7.3-7.9-11.3l-6.9,4c-2.5-4.4-4.7-9-6.4-13.8l7.5-2.7c-1.6-4.3-2.8-8.7-3.6-13.3
		l-7.8,1.4C3.5,100.4,3,95.3,3,90.1l0,0h8c0-4.7,0.4-9.3,1.2-13.8L4.3,75c0.9-5.1,2.2-10,3.9-14.7l7.5,2.7c1.6-4.4,3.5-8.5,5.8-12.5
		l-6.9-4c2.5-4.4,5.5-8.6,8.7-12.4l6.1,5.1c3-3.5,6.2-6.8,9.8-9.8l-5.1-6.1c3.9-3.3,8-6.2,12.4-8.7l4,6.9c4-2.3,8.1-4.3,12.5-5.8
		l-2.7-7.5c4.7-1.7,9.6-3,14.7-3.9l1.4,7.9c4.5-0.8,9.1-1.2,13.8-1.2V3c5.2,0,10.2,0.5,15.1,1.3L103.9,12.2z"/>
	<path fill-rule="evenodd" clip-rule="evenodd" fill="#539493" d="M103.9,12.2c4.6,0.8,9.1,2,13.3,3.6l2.7-7.5
		c4.8,1.7,9.4,3.9,13.8,6.4l-4,6.9c4,2.3,7.8,5,11.3,7.9l5.1-6.1c3.9,3.3,7.5,6.9,10.7,10.7l-6.1,5.1c3,3.5,5.6,7.3,7.9,11.3l6.9-4
		c2.5,4.4,4.7,9,6.4,13.8l-7.5,2.7c1.6,4.3,2.8,8.7,3.6,13.3L176,75c0.9,4.9,1.3,10,1.3,15.1l0,0h-8c0,4.7-0.4,9.3-1.2,13.8l7.8,1.4
		c-0.9,5.1-2.2,10-3.9,14.7l-7.5-2.7c-1.6,4.4-3.5,8.5-5.8,12.5l6.9,4c-2.5,4.4-5.5,8.6-8.7,12.4l-6.1-5.1c-3,3.5-6.2,6.8-9.8,9.8
		l5.1,6.1c-3.9,3.3-8,6.2-12.4,8.7l-4-6.9c-4,2.3-8.1,4.3-12.5,5.8l2.7,7.5c-4.7,1.7-9.6,3-14.7,3.9l-1.4-7.9
		c-4.5,0.8-9.1,1.2-13.8,1.2v8c-5.2,0-10.2-0.5-15.1-1.3l1.4-7.8c-4.6-0.8-9.1-2-13.3-3.6l-2.7,7.5c-4.8-1.7-9.4-3.9-13.8-6.4l4-6.9
		c-4-2.3-7.8-5-11.3-7.9l-5.1,6.1c-3.9-3.3-7.5-6.9-10.7-10.7l6.1-5.1c-3-3.5-5.6-7.3-7.9-11.3l-6.9,4c-2.5-4.4-4.7-9-6.4-13.8
		l7.5-2.7c-1.6-4.3-2.8-8.7-3.6-13.3l-7.8,1.4C3.5,100.4,3,95.3,3,90.1l0,0h8c0-4.7,0.4-9.3,1.2-13.8L4.3,75
		c0.9-5.1,2.2-10,3.9-14.7l7.5,2.7c1.6-4.4,3.5-8.5,5.8-12.5l-6.9-4c2.5-4.4,5.5-8.6,8.7-12.4l6.1,5.1c3-3.5,6.2-6.8,9.8-9.8
		l-5.1-6.1c3.9-3.3,8-6.2,12.4-8.7l4,6.9c4-2.3,8.1-4.3,12.5-5.8l-2.7-7.5c4.7-1.7,9.6-3,14.7-3.9l1.4,7.9c4.5-0.8,9.1-1.2,13.8-1.2
		V3c5.2,0,10.2,0.5,15.1,1.3L103.9,12.2z"/>
</g>
<path fill-rule="evenodd" clip-rule="evenodd" fill="#38504F" d="M98.2,44.5c2.7,0.5,5.3,1.2,7.8,2.1l1.6-4.4c2.8,1,5.5,2.3,8.1,3.8
	l-2.3,4c2.3,1.4,4.6,2.9,6.6,4.6l3-3.6c2.3,1.9,4.4,4,6.3,6.3l-3.6,3c1.7,2.1,3.3,4.3,4.6,6.6l4-2.3c1.5,2.6,2.7,5.2,3.8,8.1
	l-4.4,1.6c0.9,2.5,1.6,5.1,2.1,7.8l4.6-0.8c0.5,2.9,0.8,5.8,0.8,8.9l0,0h-4.7c0,2.7-0.2,5.4-0.7,8l4.6,0.8c-0.5,3-1.3,5.8-2.3,8.6
	l-4.4-1.6c-0.9,2.6-2.1,5-3.4,7.3l4,2.3c-1.5,2.6-3.2,5-5.1,7.3l-3.6-3c-1.7,2.1-3.6,4-5.7,5.7l3,3.6c-2.3,1.9-4.7,3.6-7.3,5.1
	l-2.3-4c-2.3,1.3-4.8,2.5-7.3,3.4l1.6,4.4c-2.8,1-5.6,1.8-8.6,2.3l-0.8-4.6c-2.6,0.5-5.3,0.7-8,0.7v4.7c-3,0-6-0.3-8.9-0.8l0.8-4.6
	c-2.7-0.5-5.3-1.2-7.8-2.1l-1.6,4.4c-2.8-1-5.5-2.3-8.1-3.8l2.3-4c-2.3-1.4-4.6-2.9-6.6-4.6l-3,3.6c-2.3-1.9-4.4-4-6.3-6.3l3.6-3
	c-1.7-2.1-3.3-4.3-4.6-6.6l-4,2.3c-1.5-2.6-2.7-5.2-3.8-8.1l4.4-1.6c-0.9-2.5-1.6-5.1-2.1-7.8L39.9,99c-0.5-2.9-0.8-5.8-0.8-8.9l0,0
	h4.7c0-2.7,0.2-5.4,0.7-8l-4.6-0.8c0.5-3,1.3-5.8,2.3-8.6l4.4,1.6c0.9-2.6,2.1-5,3.4-7.3l-4-2.3c1.5-2.6,3.2-5,5.1-7.3l3.6,3
	c1.7-2.1,3.6-4,5.7-5.7l-3-3.6c2.3-1.9,4.7-3.6,7.3-5.1l2.3,4c2.3-1.3,4.8-2.5,7.3-3.4l-1.6-4.4c2.8-1,5.6-1.8,8.6-2.3l0.8,4.6
	c2.6-0.5,5.3-0.7,8-0.7v-4.7c3,0,6,0.3,8.9,0.8L98.2,44.5z"/>
<g>
	<path fill-rule="evenodd" clip-rule="evenodd" fill="#BAD7D5" d="M89.2,100.9c5.9,0,10.8-4.8,10.8-10.8c0-5.9-4.8-10.8-10.8-10.8
		c-5.9,0-10.8,4.8-10.8,10.8C78.5,96.1,83.3,100.9,89.2,100.9z"/>
	<path fill-rule="evenodd" clip-rule="evenodd" fill="#FFFFFF" d="M89.2,93.6c1.9,0,3.5-1.6,3.5-3.5c0-1.9-1.6-3.5-3.5-3.5
		s-3.5,1.6-3.5,3.5C85.7,92.1,87.3,93.6,89.2,93.6z"/>
</g>
</svg>
