<?xml version="1.0" encoding="utf-8"?>
<!-- Generator: Adobe Illustrator 18.1.1, SVG Export Plug-In . SVG Version: 6.00 Build 0)  -->
<svg version="1.1" id="Layer_1" xmlns="http://www.w3.org/2000/svg" xmlns:xlink="http://www.w3.org/1999/xlink" x="0px" y="0px"
	 viewBox="0 0 1400 898" enable-background="new 0 0 1400 898" xml:space="preserve">
<rect fill="#C9E7F7" width="1400" height="897"/>
<g>
	<g>
		<path fill="#A2CC21" d="M553.5,864.1c0-15.8-12.1-28.7-27.6-30c2.5-4.1,3.9-8.9,3.9-14.1c0-15.1-12.2-27.3-27.3-27.3
			c-2.3,0-4.5,0.3-6.6,0.8c-8-5.8-17.1-9.3-26.6-9.3c-13.8,0-25.9,7.5-35,18.4c-14.5,1.1-25.9,13.3-25.9,28.1c0,2.5,0.3,4.8,0.9,7.1
			c-12.8,6.2-21.6,19.1-21.9,34.2h165C553.2,869.5,553.5,866.9,553.5,864.1z"/>
	</g>
	<g>
		<path fill="#A2CC21" d="M1122.5,879.1c0-15.8-12.1-28.7-27.6-30c2.5-4.1,3.9-8.9,3.9-14.1c0-15.1-12.2-27.3-27.3-27.3
			c-2.3,0-4.5,0.3-6.6,0.8c-8-5.8-17.1-9.3-26.6-9.3c-13.8,0-25.9,7.5-35,18.4c-14.5,1.1-25.9,13.3-25.9,28.1c0,2.5,0.3,4.8,0.9,7.1
			c-12.8,6.2-21.6,19.1-21.9,34.2h165C1122.2,884.5,1122.5,881.9,1122.5,879.1z"/>
	</g>
	<g>
		<path fill="#A2CC21" d="M676.2,856.2c0-13.7,10.5-25,24-26.1c-2.2-3.6-3.4-7.8-3.4-12.2c0-13.1,10.6-23.7,23.7-23.7
			c2,0,3.9,0.2,5.7,0.7c7-5,14.9-8.1,23.1-8.1c12,0,22.6,6.5,30.4,16c12.6,1,22.5,11.5,22.5,24.4c0,2.1-0.3,4.2-0.8,6.2
			c11.1,5.4,18.8,16.6,19,29.7H677.1C676.5,860.8,676.2,858.5,676.2,856.2z"/>
	</g>
	<g>
		<path fill="#A2CC21" d="M766.6,855.6c0-19,12.8-34.5,29.2-36.1c-2.6-4.9-4.1-10.7-4.1-16.9c0-18.1,12.9-32.8,28.9-32.8
			c2.4,0,4.7,0.3,7,1c8.5-6.9,18.1-11.2,28.1-11.2c14.6,0,27.4,9,37,22.2c15.3,1.4,27.4,16,27.4,33.7c0,2.9-0.3,5.8-1,8.5
			c13.5,7.4,22.8,23,23.1,41.1H767.7C767,862,766.6,858.8,766.6,855.6z"/>
	</g>
	<g>
		<path fill="#A2CC21" d="M341.5,861.2c0-21.6-16.6-39.4-37.8-41.1c3.4-5.6,5.4-12.2,5.4-19.3c0-20.7-16.7-37.4-37.4-37.4
			c-3.1,0-6.1,0.4-9,1.1c-11-7.9-23.5-12.8-36.5-12.8c-18.9,0-35.6,10.2-48,25.3c-19.9,1.6-35.5,18.2-35.5,38.5
			c0,3.4,0.4,6.6,1.2,9.7c-17.5,8.4-29.6,26.2-29.9,46.8h226.1C341,868.6,341.5,865,341.5,861.2z"/>
	</g>
	<g>
		<path fill="#A2CC21" d="M1116.6,856.6c0-19,12.8-34.5,29.2-36.1c-2.6-4.9-4.1-10.7-4.1-16.9c0-18.1,12.9-32.8,28.9-32.8
			c2.4,0,4.7,0.3,7,1c8.5-6.9,18.1-11.2,28.1-11.2c14.6,0,27.4,9,37,22.2c15.3,1.4,27.4,16,27.4,33.7c0,2.9-0.3,5.8-1,8.5
			c13.5,7.4,22.8,23,23.1,41.1h-174.5C1117,863,1116.6,859.8,1116.6,856.6z"/>
	</g>
	<g>
		<rect x="129" y="675" fill="#A06D4A" width="12" height="197"/>
		<g>
			<path fill="#8FBF13" d="M129,691c10-30,26-18,10-54c-4-10-14-12-14-28c0-14,14-14,18-26c10.2-23.9,1.5-28.9-9.9-46
				c-47.7,1-86.1,40-86.1,88c0,45.9,35.1,83.5,79.9,87.6C125.3,706.1,125.6,698.9,129,691z"/>
			<path fill="#91AF23" d="M223,625c0-48.6-39.4-88-88-88c-0.6,0-1.3,0-1.9,0c11.5,17.1,20.2,22.1,9.9,46c-4,12-18,12-18,26
				c0,16,10,18,14,28c16,36,0,24-10,54c-3.4,7.9-3.7,15.1-2.1,21.6c2.7,0.2,5.4,0.4,8.1,0.4C183.6,713,223,673.6,223,625z"/>
		</g>
	</g>
	<g>
		<rect x="1252" y="656" fill="#A06D4A" width="12" height="219"/>
		<g>
			<path fill="#8FBF13" d="M1253.1,677.8c8.2-27.4,21.4-16.5,8.2-49.4c-3.3-9.1-11.5-11-11.5-25.6c0-12.8,11.5-12.8,14.8-23.8
				c8.4-21.9,1.3-26.4-8.2-42c-39.2,0.9-70.7,36.6-70.7,80.5c0,42,28.8,76.4,65.6,80.1C1250,691.6,1250.3,685.1,1253.1,677.8z"/>
			<path fill="#91AF23" d="M1330.3,617.5c0-44.4-32.4-80.5-72.3-80.5c-0.5,0-1.1,0-1.6,0c9.4,15.6,16.6,20.2,8.2,42
				c-3.3,11-14.8,11-14.8,23.8c0,14.6,8.2,16.5,11.5,25.6c13.1,32.9,0,21.9-8.2,49.4c-2.8,7.3-3.1,13.8-1.7,19.8
				c2.2,0.2,4.4,0.3,6.6,0.3C1297.9,698,1330.3,661.9,1330.3,617.5z"/>
		</g>
	</g>
	<g>
		<rect x="587" y="668" fill="#A06D4A" width="12" height="197"/>
		<g>
			<path fill="#8FBF13" d="M606.9,693.1c-3.4-15.9-20.1-10.4-14.7-32.7c3.2-13.4,18.8-15.8,19.3-30.5c0.3-20.5-20.7-22.1-22.8-38
				c-2.1-15.9,13.3-19.9,16.7-31.8c0.3-0.8,0.5-1.5,0.7-2.2c-3.7-2-7.5-3.1-11.4-3.1c-32.2,0-58.3,73.4-58.3,127
				c0,53.6,26.1,67.1,58.3,67.1c0.1,0,0.2,0,0.3,0C587.6,734.2,610.8,706.2,606.9,693.1z"/>
			<path fill="#91AF23" d="M652.9,681.9c0-47.1-20.2-109.5-46.9-123.9c-0.2,0.7-0.4,1.5-0.7,2.2c-3.3,11.9-18.8,15.8-16.7,31.8
				c2.1,15.9,23.1,17.5,22.8,38c-0.6,14.7-16.1,17.1-19.3,30.5c-5.4,22.3,11.3,16.8,14.7,32.7c3.9,13.1-19.3,41-12.1,55.9
				C626.9,748.9,652.9,735.3,652.9,681.9z"/>
		</g>
	</g>
	<g>
		<rect x="314" y="679" fill="#A06D4A" width="12" height="197"/>
		<g>
			<path fill="#8FBF13" d="M338.4,683.4c-5.3-21.7-30.9-14.3-22.6-44.8c5-18.3,28.8-21.7,29.7-41.8c0.4-28.1-31.8-30.2-35-52.1
				c-3.3-21.8,20.5-27.2,25.6-43.5c0.4-1,0.7-2,1-3.1c-5.7-2.7-11.5-4.2-17.5-4.2c-49.4,0-89.5,100.5-89.5,174s40.1,92,89.5,92
				c0.1,0,0.3,0,0.4,0C308.8,739.7,344.4,701.4,338.4,683.4z"/>
			<path fill="#91AF23" d="M409,668c0-64.5-30.9-150-72-169.8c-0.3,1-0.6,2-1,3.1c-5.1,16.3-28.8,21.7-25.6,43.5
				c3.3,21.8,35.4,24,35,52.1c-0.9,20.1-24.7,23.4-29.7,41.8c-8.3,30.5,17.3,23,22.6,44.8c6,18-29.6,56.2-18.5,76.6
				C369.2,759.9,409,741.2,409,668z"/>
		</g>
	</g>
	<g>
		<rect x="936" y="666" fill="#A06D4A" width="12" height="197"/>
		<g>
			<path fill="#91AF23" d="M1002.2,733.5l-52.7-175.2c0.2,4.1,0,8-1,11.5c-3.2,11.4-14.6,17.8-17.8,32.4
				c-8.1,30.8,24.3,42.2,26,68.1c1.6,24.3-21.1,29.2-24.3,50.3c-1.6,11.7,2.1,20.7,8.1,28.4h50.3C999.6,749,1004.8,742,1002.2,733.5
				z"/>
			<path fill="#8FBF13" d="M932.3,720.6c3.2-21.1,26-26,24.3-50.3c-1.6-26-34.1-37.3-26-68.1c3.2-14.6,14.6-21.1,17.8-32.4
				c1-3.5,1.2-7.4,1-11.5l-2.8-9.4c-2.6-8.5-6.8-8.5-9.3,0l-55.5,184.6c-2.6,8.5,2.6,15.5,11.5,15.5h47
				C934.4,741.3,930.7,732.3,932.3,720.6z"/>
		</g>
	</g>
	<g>
		<rect x="1080" y="670" fill="#A06D4A" width="12" height="197"/>
		<g>
			<path fill="#8FBF13" d="M1101.4,678.3c-3.9-20.7-22.7-13.5-16.6-42.6c3.6-17.4,21.2-20.6,21.8-39.7c0.3-26.7-23.4-28.7-25.8-49.5
				c-2.4-20.8,15.1-25.9,18.8-41.4c0.3-1,0.5-1.9,0.8-2.9c-4.2-2.6-8.5-4-12.9-4c-36.4,0-65.8,95.5-65.8,165.3s29.5,87.4,65.8,87.4
				c0.1,0,0.2,0,0.3,0C1079.7,731.7,1105.9,695.3,1101.4,678.3z"/>
			<path fill="#91AF23" d="M1153.4,663.6c0-61.3-22.8-142.5-52.9-161.3c-0.2,1-0.5,1.9-0.8,2.9c-3.7,15.5-21.2,20.6-18.8,41.4
				c2.4,20.8,26.1,22.8,25.8,49.5c-0.6,19.1-18.2,22.3-21.8,39.7c-6.1,29,12.8,21.9,16.6,42.6c4.4,17.1-21.8,53.4-13.6,72.7
				C1124,750.9,1153.4,733.2,1153.4,663.6z"/>
		</g>
	</g>
	<g>
		<rect x="767" y="662" fill="#A06D4A" width="12" height="197"/>
		<g>
			<path fill="#8FBF13" d="M764.3,671.6c12.9-38.7,33.5-23.2,12.9-69.7c-5.2-12.9-18.1-15.5-18.1-36.1c0-18.1,18.1-18.1,23.2-33.5
				c13.2-30.8,2-37.2-12.8-59.3c-61.5,1.3-111,51.6-111,113.5c0,59.2,45.3,107.8,103.1,113C759.4,691.1,759.9,681.9,764.3,671.6z"/>
			<path fill="#91AF23" d="M885.5,586.5c0-62.7-50.8-113.5-113.5-113.5c-0.8,0-1.7,0-2.5,0c14.8,22.1,26,28.5,12.8,59.3
				c-5.2,15.5-23.2,15.5-23.2,33.5c0,20.6,12.9,23.2,18.1,36.1c20.6,46.4,0,31-12.9,69.7c-4.4,10.2-4.8,19.4-2.7,27.9
				c3.4,0.3,6.9,0.5,10.4,0.5C834.7,700,885.5,649.2,885.5,586.5z"/>
		</g>
	</g>
	<g>
		<rect x="479" y="743" fill="#A06D4A" width="11" height="141"/>
		<g>
			<path fill="#91AF23" d="M538.1,789.1l-46.5-154.6c0.2,3.6,0,7-0.9,10.1c-2.9,10-12.9,15.7-15.7,28.6c-7.1,27.2,21.4,37.2,22.9,60
				c1.4,21.4-18.6,26-21.4,44.6c-1.4,10.3,1.9,18.3,7.2,25.3h44.3C535.8,803,540.3,796.6,538.1,789.1z"/>
			<path fill="#8FBF13" d="M476.4,777.7c2.9-18.6,22.9-23,21.4-44.4c-1.4-22.9-30-32.9-22.9-60.1c2.9-12.9,12.9-18.6,15.7-28.6
				c0.9-3.1,1.1-6.5,0.9-10.2l-2.5-8.3c-2.3-7.5-6-7.5-8.2,0l-49,163c-2.3,7.5,2.3,13.9,10.2,13.9h41.5
				C478.3,796,475.1,788,476.4,777.7z"/>
		</g>
	</g>
</g>
<path fill="#91BC1B" d="M1313.6,862.5L1313.6,862.5c-11.2-29.1-18.1-10.6-20.8,0l-3,0c-9.1-29.1-15-10.6-17.3,0l-2.5,0
	c-10-38.4-20.4-9-23.1,0l-5.8,0c-11.2-29.3-18.2-10.6-20.8,0l-3,0c-9.2-29.3-15.1-10.6-17.4,0l-2.5,0c-10.1-38.7-20.5-8.9-23.1,0
	l-5.7,0c-11.3-29.5-18.2-10.6-20.9,0l-2.9,0c-9.2-29.5-15.1-10.6-17.4,0l-2.4,0c-10.1-38.9-20.6-8.8-23.2,0l-5.7,0
	c-11.3-29.7-18.3-10.6-20.9,0l-2.9,0c-9.2-29.7-15.2-10.6-17.5,0l-2.4,0c-10.2-39.2-20.7-8.6-23.2,0l-5.6,0
	c-11.4-29.9-18.4-10.5-21,0l-2.8,0c-9.3-29.9-15.2-10.5-17.5,0l-2.4,0c-10.2-39.4-20.8-8.5-23.3,0l-5.6,0
	c-11.4-30.1-18.4-10.5-21.1,0l-2.8,0c-9.3-30.1-15.3-10.5-17.6,0l-2.3,0c-10.2-39.7-20.8-8.4-23.3,0l-5.5,0
	c-11.5-30.3-18.5-10.5-21.1,0l-2.7,0c-9.4-30.3-15.4-10.5-17.6,0l-2.3,0c-10.3-40-20.9-8.3-23.4,0l-5.4,0
	c-11.5-30.5-18.6-10.5-21.2,0l-2.7,0c-9.4-30.5-15.4-10.5-17.6,0l-2.2,0c-10.3-40.3-21-8.2-23.4,0l-5.4,0
	c-11.6-30.7-18.6-10.5-21.2,0l-2.6,0c-9.4-30.7-15.5-10.5-17.7,0l-2.2,0c-10.4-40.5-21.1-8-23.5,0l-5.3,0
	c-11.6-30.9-18.7-10.5-21.3,0l-2.6,0c-9.5-30.9-15.5-10.5-17.7,0l-2.2,0c-10.4-40.8-21.2-7.9-23.5,0l-5.3,0
	c-11.7-31.1-18.8-10.5-21.3,0l-2.5,0c-9.5-31.2-15.6-10.5-17.8,0l-2.1,0c-10.5-41.1-21.3-7.7-23.6,0l-5.2,0
	c-11.7-31.3-18.8-10.4-21.4,0l-2.5,0c-9.6-31.4-15.6-10.4-17.8,0l-2.1,0c-10.5-41.4-21.4-7.6-23.6,0l-5.2,0
	c-11.8-31.5-18.9-10.4-21.4,0l-2.4,0c-9.6-31.6-15.7-10.4-17.9,0l-2,0c-10.6-41.7-21.5-7.4-23.7,0l-5.1,0c-11.8-31.7-19-10.4-21.5,0
	l-2.4,0c-9.6-31.8-15.8-10.4-17.9,0l-2,0c-10.6-42-21.6-7.2-23.7,0l-5,0c-11.9-31.9-19.1-10.4-21.5,0l-2.3,0c-9.7-32-15.8-10.4-18,0
	l-2,0c-10.7-42.3-21.8-7-23.8,0l-5,0c-11.9-32.2-19.1-10.4-21.6,0l-2.3,0c-9.7-32.2-15.9-10.4-18,0l-1.9,0
	c-10.7-42.6-21.9-6.8-23.8,0l-4.9,0c-12-32.4-19.2-10.3-21.6,0l-2.2,0c-9.8-32.4-15.9-10.3-18,0l-1.9,0c-10.8-42.9-22-7-23.9,0H85
	l-1,19h1239.8L1313.6,862.5z"/>
<g>
	<path fill="#B27E54" d="M1324,882c0-5.5-4.5-10-10-10H84c-5.5,0-10,4.5-10,10v3h1250V882z"/>
	<path fill="#A06D4A" d="M74,885v3c0,5.5,4.5,10,10,10h1230c5.5,0,10-4.5,10-10v-3H74z"/>
</g>
<path fill="#FFFFFF" d="M406,271h-5c1-5,1.5-10,1.5-15.1c0-40.8-33-73.8-73.8-73.8c-33.6,0-61.9,22.4-70.9,53.2
	c-6.2-3.9-13.5-6.2-21.3-6.2c-22.1,0-39.9,18-39.9,40c0,0.6,0,1,0,2h-7.5c-16.1,0-29.1,12.8-29.1,28.9v2.7c0,16.1,13,29.4,29.1,29.4
	H406c16.1,0,29-13.3,29-29.4v-2.7C435,283.8,422.1,271,406,271z"/>
<path fill="#FFFFFF" d="M967,271h5c-1-5-1.5-10-1.5-15.1c0-40.8,33-73.8,73.8-73.8c33.6,0,61.9,22.4,70.9,53.2
	c6.2-3.9,13.5-6.2,21.3-6.2c22.1,0,39.9,18,39.9,40c0,0.6,0,1,0,2h7.5c16.1,0,29.1,12.8,29.1,28.9v2.7c0,16.1-13,29.4-29.1,29.4H967
	c-16.1,0-29-13.3-29-29.4v-2.7C938,283.8,950.9,271,967,271z"/>
</svg>
