<?xml version="1.0" encoding="utf-8"?>
<!-- Generator: Adobe Illustrator 18.1.1, SVG Export Plug-In . SVG Version: 6.00 Build 0)  -->
<svg version="1.1" id="Layer_1" xmlns="http://www.w3.org/2000/svg" xmlns:xlink="http://www.w3.org/1999/xlink" x="0px" y="0px"
	 viewBox="0 42.1 1000 598.8" enable-background="new 0 42.1 1000 598.8" xml:space="preserve">
<g>
	<g>
		<polygon fill="#666766" points="159.2,579.5 42,581.2 42,558.5 3.3,558.5 3.3,637.6 43.1,637.6 43.1,613.8 167.5,613.8 		"/>
		<path fill="#1D1D1B" d="M46.4,640.9H0v-85.7h45.3v22.7l116.1-1.7l10.5,40.9H46.4V640.9z M6.6,634.3h33.2v-23.8h123.8l-7.2-27.6
			l-117.7,1.7v-22.7H6.6V634.3z"/>
	</g>
	<polygon opacity="0.5" fill="#3E3F3E" enable-background="new    " points="3.3,601.6 3.3,637.6 43.1,637.6 43.1,613.8 
		167.5,613.8 164.7,601.6 	"/>
	<polygon opacity="0.7" fill="#9F9F9F" enable-background="new    " points="9.4,565.2 35.4,565.2 35.4,588.4 90.1,588.4 
		29.3,595.6 29.3,571.2 	"/>
</g>
<g>
	<g>
		<polygon fill="#666766" points="841.3,579.5 958,581.2 958,558.5 996.7,558.5 996.7,637.6 956.9,637.6 956.9,613.8 832.5,613.8 		
			"/>
		<path fill="#1D1D1B" d="M953.6,617.1H828.1l10.5-40.9l116.1,1.7v-22.7h45.3v85.7h-46.4V617.1z M993.4,561.8h-32.1v22.7l-117.7-1.1
			l-7.2,27.6h123.8v23.8h33.2V561.8z"/>
	</g>
	<polygon opacity="0.5" fill="#3E3F3E" enable-background="new    " points="996.7,601.6 996.7,637.6 956.9,637.6 956.9,613.8 
		832.5,613.8 835.8,601.6 	"/>
	<polygon opacity="0.7" fill="#9F9F9F" enable-background="new    " points="990.6,565.2 964.6,565.2 964.6,588.4 910.4,588.4 
		970.7,595.6 970.7,571.2 	"/>
</g>
<g>
	<g>
		<rect x="142.6" y="510.4" fill="#3E3F3E" width="719.2" height="111.7"/>
		<path fill="#1D1D1B" d="M865.1,626H139.3V507.1h725.8V626z M145.9,618.8h712V514.3h-712V618.8z"/>
	</g>
	<rect x="142.6" y="610.5" fill="#3E3F3E" width="719.2" height="12.2"/>
	<rect x="142.6" y="510.4" opacity="0.5" fill="#3E3F3E" enable-background="new    " width="719.2" height="80.7"/>
</g>
<g>
	<path fill="#A99B8E" d="M692.1,70.4H312.3H68l51.4,497h192.9h379.2h192.9l51.4-497L692.1,70.4L692.1,70.4z M821.4,513.2H171.4
		l-36.5-374.8h721.9L821.4,513.2z"/>
	<g>
		<path fill="#4A4A4A" d="M168.6,517.1h656.2l37-381.4H132.1L168.6,517.1z M818.1,509.9H174.7l-35.4-367.6h714.2L818.1,509.9z"/>
		<path fill="#5F5E5F" d="M64.1,67.1l51.4,500.8l0.6,3.3h772.2l52-504.1C940.3,67.1,64.1,67.1,64.1,67.1z M881.7,564H214.5
			c2.2-1.1,8.8-2.8,8.8-5c0.6-5-12.2-7.7-17.1-10.5c5-2.8,10-5,13.8-9.4c1.1-1.1-14.4,3.3-21,7.2c-1.7,1.1-3.3,3.9-1.7,5
			c3.3,3.3,8.3,4.4,12.2,7.7c-1.1,0.6-8.3,2.8-10.5,3.9c-0.6,0-0.6,0.6-1.1,1.1h-75.7l-37-359.9c0-0.6,3.9-6.1,4.4-6.6
			c5,3.3,8.8,15.5,11.1,14.4c3.3-1.7,14.9-41.5,13.3-39.8c-5,3.9-7.2,5.5-14.4,6.1c-0.6,0,3.9,10.5,3.3,11.1
			c-1.7,2.2-3.9,6.6-4.4,10c0,1.7-7.7-5-8.8-6.1c-1.7-1.1-3.9,0.6-5,1.7L71.9,74.3h860.7L881.7,564z"/>
	</g>
</g>
<path opacity="0.4" fill="#7C7C7C" enable-background="new    " d="M857.4,139l-36.5,374.8H171.4L134.9,139L857.4,139L857.4,139z
	 M872.3,125.1h-14.9H135.4h-14.9l1.7,14.9l36.5,374.8l1.1,12.2h11.6h649.5h12.2l1.1-12.2l36.5-374.8L872.3,125.1L872.3,125.1z"/>
<polygon opacity="0.8" fill="#9F9F9F" enable-background="new    " points="932,113.5 936.4,70.4 68,70.4 72.4,113.5 "/>
<g>
	<path opacity="0.4" fill="#9F9F9F" enable-background="new    " d="M169.7,101.4c14.9-10.5,30.4-20.5,45.9-31H68l10,97.8
		C108.3,145.6,138.8,122.9,169.7,101.4z"/>
	<path opacity="0.4" fill="#9F9F9F" enable-background="new    " d="M367.1,136.2C403,114.1,438.9,92,475.4,70.4h-39.8
		c-39.2,22.1-79,44.2-117.7,67.4c-0.6,0.6-1.1,0.6-1.7,1.1h47C364.8,137.8,365.9,137.3,367.1,136.2z"/>
	<path opacity="0.4" fill="#9F9F9F" enable-background="new    " d="M927,158.9l2.8-24.3c-25.4,16-50.9,32.1-76.3,48.1l-2.8,26
		C876.2,192,901.6,175.4,927,158.9z"/>
	<path opacity="0.4" fill="#9F9F9F" enable-background="new    " d="M901.1,412l2.2-23.8c-23.2,15.5-46.4,31-69.7,46.4
		c-1.7,1.1-3.9,2.8-5.5,3.9l-2.8,27.6C850.7,448,876.2,430.3,901.1,412z"/>
	<path opacity="0.4" fill="#9F9F9F" enable-background="new    " d="M759.5,513.2h-39.8c-24.9,17.7-49.8,35.9-74.1,54.2h35.9
		C708.1,549.7,734.1,531.4,759.5,513.2z"/>
	<path opacity="0.4" fill="#9F9F9F" enable-background="new    " d="M409.6,513.2h-51.4c-24.9,18.2-49.8,36.5-75.2,54.2h53.1
		C360.4,549.7,384.7,531.4,409.6,513.2z"/>
	<path opacity="0.4" fill="#9F9F9F" enable-background="new    " d="M149.8,285.4l-3.3-33.2c-18.2,14.4-36.5,28.7-55.3,42.6
		l2.8,29.3C112.8,311.4,131,298.7,149.8,285.4z"/>
</g>
<g>
	<circle opacity="0.3" fill="#4A4A4A" enable-background="new    " cx="112.2" cy="226.3" r="12.7"/>
	<circle fill="#4A4A4A" cx="111.1" cy="225.7" r="10.5"/>
	<circle fill="#FFFFFF" cx="108.9" cy="223" r="4.4"/>
</g>
<g>
	<circle opacity="0.3" fill="#4A4A4A" enable-background="new    " cx="123.3" cy="330.2" r="12.7"/>
	<circle fill="#4A4A4A" cx="122.2" cy="329.7" r="10.5"/>
	<circle fill="#FFFFFF" cx="120" cy="326.9" r="4.4"/>
</g>
<g>
	<circle opacity="0.3" fill="#4A4A4A" enable-background="new    " cx="147" cy="538.6" r="12.7"/>
	<circle fill="#4A4A4A" cx="145.4" cy="538.1" r="10.5"/>
	<circle fill="#FFFFFF" cx="143.2" cy="535.3" r="4.4"/>
</g>
<g>
	<circle opacity="0.3" fill="#4A4A4A" enable-background="new    " cx="264.2" cy="538.6" r="12.7"/>
	<circle fill="#4A4A4A" cx="262.6" cy="538.1" r="10.5"/>
	<circle fill="#FFFFFF" cx="260.4" cy="535.3" r="4.4"/>
</g>
<g>
	<circle opacity="0.3" fill="#4A4A4A" enable-background="new    " cx="381.4" cy="538.6" r="12.7"/>
	<circle fill="#4A4A4A" cx="380.3" cy="538.1" r="10.5"/>
	<circle fill="#FFFFFF" cx="377.6" cy="535.3" r="4.4"/>
</g>
<g>
	<circle opacity="0.3" fill="#4A4A4A" enable-background="new    " cx="498.6" cy="538.6" r="12.7"/>
	<circle fill="#4A4A4A" cx="497.5" cy="538.1" r="10.5"/>
	<circle fill="#FFFFFF" cx="495.3" cy="535.3" r="4.4"/>
</g>
<g>
	<circle opacity="0.3" fill="#4A4A4A" enable-background="new    " cx="615.8" cy="538.6" r="12.7"/>
	<circle fill="#4A4A4A" cx="614.7" cy="538.1" r="10.5"/>
	<circle fill="#FFFFFF" cx="612.5" cy="535.3" r="4.4"/>
</g>
<g>
	<circle opacity="0.3" fill="#4A4A4A" enable-background="new    " cx="733" cy="538.6" r="12.7"/>
	<circle fill="#4A4A4A" cx="731.9" cy="538.1" r="10.5"/>
	<circle fill="#FFFFFF" cx="729.7" cy="535.3" r="4.4"/>
</g>
<g>
	<circle opacity="0.3" fill="#4A4A4A" enable-background="new    " cx="134.9" cy="434.7" r="12.7"/>
	<circle fill="#4A4A4A" cx="133.2" cy="433.6" r="10.5"/>
	<circle fill="#FFFFFF" cx="131" cy="431.4" r="4.4"/>
</g>
<g>
	<circle opacity="0.3" fill="#4A4A4A" enable-background="new    " cx="883.9" cy="226.3" r="12.7"/>
	<circle fill="#4A4A4A" cx="882.8" cy="225.7" r="10.5"/>
	<circle fill="#FFFFFF" cx="880.6" cy="223" r="4.4"/>
</g>
<g>
	<circle opacity="0.3" fill="#4A4A4A" enable-background="new    " cx="876.2" cy="330.2" r="12.7"/>
	<circle fill="#4A4A4A" cx="875.1" cy="329.7" r="10.5"/>
	<circle fill="#FFFFFF" cx="872.3" cy="326.9" r="4.4"/>
</g>
<g>
	<circle opacity="0.3" fill="#4A4A4A" enable-background="new    " cx="850.7" cy="538.6" r="12.7"/>
	<circle fill="#4A4A4A" cx="849.1" cy="538.1" r="10.5"/>
	<circle fill="#FFFFFF" cx="846.9" cy="535.3" r="4.4"/>
</g>
<g>
	<circle opacity="0.3" fill="#4A4A4A" enable-background="new    " cx="864.6" cy="434.7" r="12.7"/>
	<circle fill="#4A4A4A" cx="863.5" cy="433.6" r="10.5"/>
	<circle fill="#FFFFFF" cx="860.7" cy="431.4" r="4.4"/>
</g>
<g>
	<g>
		<g>
			<rect x="53.1" y="47.7" fill="#666766" width="903.3" height="92.3"/>
			<path opacity="0.7" fill="#4A4A4A" enable-background="new    " d="M405.2,63.2c22.1,0,44.8-2.8,66.9-5c18.8-1.7,37.6-4.4,56.4-5
				c36.5-7.2,77.9,1.1,113.3,1.7c18.2,0.6,37,1.7,55.3,1.1c16.6-0.6,33.2-3.3,49.8-4.4c18.2-1.1,36.5,0.6,54.7,1.7
				c8.3,0.6,16.6,1.1,25.4,1.1c0.6,0,1.1,0,2.2,0c11.6-5,31.5-2.2,39.8-2.8c20.5-0.6,40.4-1.1,60.8-4.4H53.1v3.3
				c16.6,5,34.3,2.8,50.9,2.8c7.7,0,16,0,23.8,2.2c8.8,2.2,15.5,6.6,24.9,5c19.9-3.3,39.2-9.4,59.7-10.5c21.6-1.1,43.1,0.6,64.7,1.7
				s43.1,0,64.7,2.8C362.6,57.7,383.6,63.8,405.2,63.2z"/>
			<path opacity="0.7" fill="#4A4A4A" enable-background="new    " d="M940.3,76.5c-7.2,10-12.2,16.6-25.4,15.5
				c-8.8-1.1-17.7-2.8-26.5-0.6c-3.9,1.1-7.7,2.2-12.2,2.8c-7.7,1.1-12.2-2.8-16-8.8c-4.4,8.3-5,17.7-14.9,21.6s-22.1,6.6-32.6,6.1
				c-1.7,0-2.2-1.7-2.2-2.8c2.2-15.5-13.8-26-22.7-34.8c-1.7-1.7-9.4-10.5-11.6-7.2c-1.7,2.2-2.8,4.4-3.9,7.2
				c-2.2,3.9-4.4,7.7-6.6,11.1c-0.6,1.1-2.2,0.6-3.3,0c-5-4.4-5.5-10.5-7.7-16.6c-4.4,12.2-3.9,26-6.6,39.2
				c-0.6,1.1-1.7,1.7-2.8,1.7c-27.6-6.1-55.3-5-83.5-4.4c-13.8,0.6-27.6,2.8-41.5,3.9c-5,0.6-11.6,1.1-16.6-0.6
				c-5-1.7-8.8-5-14.4,1.1c-0.6,1.1-2.2,1.1-3.3,0c-10.5-13.8-4.4-30.4-4.4-45.9c-8.8,10.5-7.2,28.2-14.9,39.8
				c-2.2,3.3-5.5,7.2-9.4,7.7c-8.3,1.1-14.9-5-23.2-3.9c-0.6,0-1.1,0-1.7-0.6c-10.5,0-20.5,1.1-31,2.2c-14.4,1.7-28.7,1.1-43.1,1.1
				c-28.7,0-57.5,2.8-86.2,3.3c-5.5,0-11.6,0.6-17.7,0c-7.2-1.1-16-5-23.8-4.4c-5,0.6-12.7,3.9-17.1,0c-6.1-5.5-7.2-13.3-8.8-21
				c-1.7-9.4-3.9-18.8-7.7-27.6c-12.7,14.4-9.4,37.6-22.1,52.5c-1.1,1.1-2.8,0.6-3.3-0.6c-5-10-17.7-4.4-25.4-3.3
				c-6.1,1.1-12.7,1.7-18.8,1.7c-15.5,0.6-31-0.6-46.4-0.6c-19.9,0-26-17.7-29.9-35.9c-6.6,13.8-14.9,39.2-30.4,35.4
				c-12.7-2.8-23.8-1.1-36.5-2.2c-7.2-0.6-13.3-5-18.2-10c-5,5-9.4,10.5-13.8,15.5V139h904.4V62.1C950.2,66,944.2,70.4,940.3,76.5z"
				/>
			<path fill="#4A4A4A" d="M959.1,142.8H49.8V44.4h909.3V142.8z M55.8,136.7H953V51.1H55.8V136.7z"/>
		</g>
	</g>
	<path opacity="0.5" fill="#4A4A4A" enable-background="new    " d="M853.5,141.7c19.3-0.6,38.7-1.1,57.5-2.8
		c13.3-1.1,26.5,0,39.8-2.2c-2.8-1.1-6.6-1.7-10-2.2c-3.3,0.6-7.2,0.6-10.5,0.6c-7.7,0.6-15.5-1.7-23.2-0.6c0,0,0,0-0.6,0
		c-25.4-0.6-50.9,2.2-76.3-1.1c-6.1-0.6-11.6-1.1-17.7-1.7c-11.1,0.6-22.1,1.7-33.2,3.3c-1.7,0-3.9-0.6-3.9-2.8
		c-1.1-6.6-1.7-13.8,1.1-19.9c3.9-7.7,4.4-13.3,2.8-22.1c-0.6-2.2-0.6-4.4-1.1-6.6c-4.4,6.6-4.4,13.8-5.5,21.6
		c-0.6,2.2-1.7,3.9-2.2,6.1c-2.8-4.4-5-9.4-7.2-13.8c0,0-0.6,0-0.6-0.6c-3.9-3.3-7.7-7.2-10.5-12.2c1.1,2.8,1.7,6.1,2.2,8.8
		c0.6,1.7,0.6,3.9,1.1,5.5c1.7,3.9,3.3,7.2,5,11.1c3.9,8.3,14.9,22.7-2.8,20.5c-25.4-2.8-52-2.8-76.8-2.2c-23.8,0.6-47,6.1-70.8,2.8
		c-10-1.1-20.5-2.8-30.4-1.1c-0.6-0.6-1.1-0.6-1.7-0.6c-1.7,0-2.2-2.2-2.8-5.5c0.6-2.8,0.6-5,1.1-7.7c0,0,0,0,0-0.6
		c-1.1-4.4-1.7-8.8-2.8-13.3c-3.3,10.5-3.3,27.1-14.9,30.4c-6.6,1.7-13.8,0-20.5-2.2c-10.5,0-21.6-1.7-29.3-1.7
		c-27.6,0.6-54.7,1.1-82.4,0c-28.2,0-56.4,0.6-84,1.7c-13.3,0.6-26.5-1.1-39.8,0.6c0-2.2-0.6-3.9-1.7-8.3
		c-3.3-11.6-2.2-22.7-2.2-33.7c-1.7-3.3-2.2-6.6-2.8-10.5c-1.1,5.5-2.8,11.1-2.2,17.1c0.6,8.3,1.7,17.1,0,25.4
		c-0.6,3.3-2.2,12.7-7.2,12.7c-3.3,0-6.6-0.6-9.4-1.1c-13.8,3.9-38.1,1.1-44.2,1.7c-14.4,0.6-28.2,1.1-42.6,0
		c-9.4-0.6-27.1,2.2-37.6-1.7c0-0.6,0-0.6,0-1.1c0-2.2-2.2-3.3-2.8-5c-1.1-4.4,0.6-8.8-1.1-13.3c0,0,0,0,0-0.6c0-5-0.6-10-1.1-14.4
		c0-1.7-1.1-2.2-1.7-1.7c0,4.4-0.6,8.3-2.2,12.2c-1.7,4.4-3.3,8.8-4.4,13.3c-0.6,1.7-1.1,2.8-1.7,4.4c-3.9,4.4-7.7,7.2-12.2,8.3
		c0,0,0,0.6-0.6,0.6c-6.6,1.7-14.9,2.2-24.3,2.2c-4.4,0-9.4,0-13.8,0c-11.6,0.6-25.4-2.8-35.9,2.8c0,0.6,0,1.1,1.1,1.1
		c22.7-1.1,45.9,4.4,68.5,2.2c8.8-0.6,14.9-2.2,18.2-6.1c4.4,8.8,16.6,6.1,31,6.6c13.3,0.6,26.5,1.7,39.8,1.1
		c15.5-0.6,29.3-5.5,44.8-3.9c9.4,0.6,18.8,2.8,27.1,0.6c0,0,0.6,0.6,1.1,0.6c29.9-1.7,59.7-0.6,89.6-1.7
		c35.4-1.7,71.3,1.1,106.7,0.6c17.1,0,34.3-1.1,51.4-0.6c11.1,0.6,21,2.8,31.5,0.6l0,0c0,0.6,0.6,1.1,1.7,1.1
		c2.8-0.6,5.5-1.1,8.3-1.7c0.6,0,1.1,0,1.7,0c0.6,0,1.1,0,1.7-0.6c20.5-1.7,41.5,3.9,61.9,2.2c34.8-2.8,69.1-3.3,103.9-2.2
		c7.2,0,19.3,3.9,28.2,1.1c12.7,6.1,39.2,1.1,50.3,1.7c10.5,0.6,21,1.1,31.5,1.1C851.9,142.3,852.4,141.7,853.5,141.7z"/>
	<path opacity="0.5" fill="#4A4A4A" enable-background="new    " d="M742.4,43.9c16.6,0.6,33.2,1.1,49.8,2.2
		c11.6,0.6,23.2,0,34.3,1.7c-2.8,1.1-5.5,1.1-8.3,1.7c-2.8,0-6.1-0.6-8.8-0.6c-6.6,0-13.3,1.1-20.5,0.6c0,0,0,0-0.6,0
		c-22.1,0.6-43.7-1.7-65.8,0.6c-5,0.6-10,1.1-15.5,1.1c-9.4-0.6-19.3-1.1-28.7-2.2c-1.7,0-3.3,0.6-3.3,2.2
		c-0.6,5.5-1.7,10.5,1.1,15.5c3.3,6.1,3.9,10.5,2.2,17.7c-0.6,1.7-0.6,3.3-1.1,5c-3.9-5-3.9-11.1-5-17.1c-0.6-1.7-1.1-3.3-2.2-5
		c-2.2,3.9-4.4,7.2-6.1,11.1c0,0-0.6,0-0.6,0.6c-3.3,2.8-6.6,6.1-8.8,9.4c0.6-2.2,1.7-4.4,2.2-7.2c0.6-1.7,0.6-2.8,1.1-4.4
		c1.1-2.8,2.8-5.5,3.9-8.8c3.3-6.6,12.7-17.7-2.2-16c-21.6,2.2-44.8,2.2-66.3,1.7c-20.5-0.6-40.4-5-60.8-2.2
		c-8.8,1.1-17.7,2.2-26.5,0.6c-0.6,0-0.6,0.6-1.7,0.6c-1.7,0-2.2,1.7-2.2,4.4c0.6,2.2,0.6,3.9,0.6,6.1c0,0,0,0,0,0.6
		c-1.1,3.3-1.7,7.2-2.2,10.5c-2.8-8.3-2.8-21.6-13.3-23.8c-6.1-1.1-11.6,0-17.7,1.7c-8.8,0-18.2,1.7-24.9,1.1
		c-22.7,0.6-46.4,0-69.7,0.6c-24.3,1.1-48.1,0.6-72.4-0.6c-11.1-0.6-22.7,0.6-34.3-0.6c0,1.7-0.6,2.8-1.7,6.6
		c-2.8,9.4-1.7,17.7-1.7,26.5c-1.1,2.8-2.2,5.5-2.8,8.3c-1.1-3.9-2.2-8.3-1.7-13.3c0.6-6.6,1.1-13.8,0-19.9c-0.6-2.8-2.2-10-6.1-10
		c-2.8,0-5.5,0.6-8.3,1.1c-12.2-3.3-33.2-1.1-38.1-1.1c-12.2-0.6-24.3-0.6-36.5,0c-7.7,0.6-23.2-1.7-32.6,1.1c0,0.6,0,0.6,0,1.1
		c0,1.7-1.7,2.8-2.2,3.9c-0.6,3.3,0.6,7.2-1.1,10.5c0,0,0,0,0,0.6c0,3.9,0,7.7-0.6,11.6c0,1.1-1.1,1.7-1.7,1.7c0-3.3-0.6-6.6-1.7-10
		c-1.7-3.3-2.8-6.6-3.9-10.5c-0.6-1.7-0.6-2.8-1.7-3.9c-3.3-3.9-6.6-5.5-10.5-6.6c0,0,0-0.6-0.6-0.6c-5.5-1.1-12.7-1.7-20.5-1.7
		c-3.9,0-7.7,0-12.2,0c-9.4,0-21.6,2.2-31-2.2c0-0.6,0-0.6,0.6-0.6c19.9,1.1,39.8-3.3,59.1-1.7c7.7,0.6,12.7,1.7,16,5
		c3.9-7.2,13.8-5,26.5-5c11.6,0,22.7-1.7,34.3-1.1c13.3,0.6,25.4,4.4,38.7,3.3c7.7-0.6,16-2.2,23.2-0.6c0,0,0.6-0.6,1.1-0.6
		c25.4,1.7,51.4,0.6,76.8,1.7c30.4,1.1,61.4-1.1,92.3-0.6c14.9,0,29.3,1.1,44.2,0.6c9.4-0.6,18.2-2.2,27.6-0.6l0,0
		c0-0.6,0.6-1.1,1.7-0.6c2.2,0.6,5,1.1,7.2,1.1c0.6,0,1.1,0,1.7,0c0.6,0,1.1,0,1.1,0c17.7,1.1,35.9-2.8,53.1-1.7
		c30.4,2.2,59.1,2.8,89.6,1.7c6.1,0,16.6-2.8,24.3-1.1c11.1-5,33.7-1.1,43.1-1.1c8.8,0,17.7-0.6,27.1-1.1
		C740.7,43.9,741.8,43.9,742.4,43.9z"/>
</g>
<g>
	<circle opacity="0.3" fill="#4A4A4A" enable-background="new    " cx="105" cy="93.1" r="12.7"/>
	<circle fill="#232322" cx="103.4" cy="92" r="10.5"/>
	<circle fill="#FFFFFF" cx="101.2" cy="89.8" r="4.4"/>
</g>
<g>
	<circle opacity="0.3" fill="#4A4A4A" enable-background="new    " cx="907.7" cy="93.1" r="12.7"/>
	<circle fill="#232322" cx="906.6" cy="92" r="10.5"/>
	<circle fill="#FFFFFF" cx="904.4" cy="89.8" r="4.4"/>
</g>
<g>
	<circle opacity="0.3" fill="#4A4A4A" enable-background="new    " cx="238.8" cy="93.1" r="12.7"/>
	<circle fill="#232322" cx="237.7" cy="92" r="10.5"/>
	<circle fill="#FFFFFF" cx="234.9" cy="89.8" r="4.4"/>
</g>
<g>
	<circle opacity="0.3" fill="#4A4A4A" enable-background="new    " cx="372.6" cy="93.1" r="12.7"/>
	<circle fill="#232322" cx="371.5" cy="92" r="10.5"/>
	<circle fill="#FFFFFF" cx="368.7" cy="89.8" r="4.4"/>
</g>
<g>
	<circle opacity="0.3" fill="#4A4A4A" enable-background="new    " cx="506.4" cy="93.1" r="12.7"/>
	<circle fill="#232322" cx="505.3" cy="92" r="10.5"/>
	<circle fill="#FFFFFF" cx="502.5" cy="89.8" r="4.4"/>
</g>
<g>
	<circle opacity="0.3" fill="#4A4A4A" enable-background="new    " cx="640.1" cy="93.1" r="12.7"/>
	<circle fill="#232322" cx="639" cy="92" r="10.5"/>
	<circle fill="#FFFFFF" cx="636.3" cy="89.8" r="4.4"/>
</g>
<g>
	<circle opacity="0.3" fill="#4A4A4A" enable-background="new    " cx="773.9" cy="93.1" r="12.7"/>
	<circle fill="#232322" cx="772.8" cy="92" r="10.5"/>
	<circle fill="#FFFFFF" cx="770" cy="89.8" r="4.4"/>
</g>
</svg>
