<?xml version="1.0" encoding="utf-8"?>
<!-- Generator: Adobe Illustrator 18.1.1, SVG Export Plug-In . SVG Version: 6.00 Build 0)  -->
<svg version="1.1" id="Layer_1" xmlns="http://www.w3.org/2000/svg" xmlns:xlink="http://www.w3.org/1999/xlink" x="0px" y="0px"
	 viewBox="0 33.4 1000 614.7" enable-background="new 0 33.4 1000 614.7" xml:space="preserve">
<g>
	<g>
		<g>
			<polygon fill="#666766" points="159.2,586.7 42,588.4 42,565.7 3.3,565.7 3.3,644.8 43.1,644.8 43.1,621 167.5,621 			"/>
			<path fill="#1D1D1B" d="M46.4,648.1H0v-85.7h45.3v22.7l116.1-1.7l10.5,40.9H46.4V648.1z M6.6,641.4h33.2v-23.8h123.8l-7.2-27.6
				l-117.7,1.7V569H6.6V641.4z"/>
		</g>
		<polygon opacity="0.5" fill="#3E3F3E" enable-background="new    " points="3.3,608.3 3.3,644.8 43.1,644.8 43.1,621 167.5,621 
			164.7,608.3 		"/>
		<polygon opacity="0.7" fill="#9F9F9F" enable-background="new    " points="9.4,571.8 35.4,571.8 35.4,595.6 90.1,595.6 
			29.3,602.2 29.3,578.4 		"/>
	</g>
	<g>
		<g>
			<polygon fill="#666766" points="841.3,586.7 958,588.4 958,565.7 996.7,565.7 996.7,644.8 956.9,644.8 956.9,621 832.5,621 			
				"/>
			<path fill="#1D1D1B" d="M953.6,624.3H828.1l10.5-40.9l116.1,1.7v-22.7h45.3v85.7h-46.4V624.3z M993.4,569h-32.1v22.7L844.1,590
				l-7.2,27.6h123.8v23.8h33.2V569H993.4z"/>
		</g>
		<polygon opacity="0.5" fill="#3E3F3E" enable-background="new    " points="996.7,608.3 996.7,644.8 956.9,644.8 956.9,621 
			832.5,621 835.8,608.3 		"/>
		<polygon opacity="0.7" fill="#9F9F9F" enable-background="new    " points="990.6,571.8 964.6,571.8 964.6,595.6 910.4,595.6 
			970.7,602.2 970.7,578.4 		"/>
	</g>
	<g>
		<g>
			<rect x="142.6" y="519.3" fill="#3E3F3E" width="719.2" height="111.7"/>
			<path fill="#1D1D1B" d="M865.1,634.3H139.3V516h725.8V634.3z M145.9,627.6h712v-105h-712V627.6z"/>
		</g>
		<rect x="142.6" y="618.8" fill="#3E3F3E" width="719.2" height="12.2"/>
		<rect x="142.6" y="519.3" opacity="0.5" fill="#3E3F3E" enable-background="new    " width="719.2" height="80.7"/>
	</g>
</g>
<g>
	<g>
		<polygon fill="#BA6E29" points="44.8,38.3 106.7,597.8 214.5,597.8 181.3,125.7 		"/>
		<path fill="#743D26" d="M214.5,602.2H106.7c-2.2,0-4.4-1.7-4.4-3.9L40.4,38.9c0-1.7,0.6-3.3,2.2-4.4s3.3-1.1,5,0l136,87.3
			c1.1,0.6,2.2,2.2,2.2,3.3l33.2,472.1c0,1.1-0.6,2.8-1.1,3.3C216.7,601.6,215.6,602.2,214.5,602.2z M110.6,593.3h98.9l-32.6-464.9
			L50.3,47.2L110.6,593.3z"/>
	</g>
	<g>
		<polygon fill="#BA6E29" points="964.1,40.6 891.7,597.8 783.9,597.8 834.2,131.8 		"/>
		<path fill="#743D26" d="M891.7,602.2H783.9c-1.1,0-2.8-0.6-3.3-1.7c-1.1-1.1-1.1-2.2-1.1-3.3l50.3-466c0-1.1,1.1-2.2,1.7-3.3
			l130.5-90.7c1.7-1.1,3.3-1.1,5,0c1.7,1.1,2.2,2.8,2.2,4.4l-73,557.2C895.5,600.5,893.9,602.2,891.7,602.2z M788.8,593.3h98.9
			l70.8-542.8l-120,84L788.8,593.3z"/>
	</g>
	<g>
		<polygon fill="#BA6E29" points="206.7,519.8 106.7,597.8 885,597.8 792.2,504.3 		"/>
		<path fill="#743D26" d="M885,602.2H106.7c-2.2,0-3.9-1.1-4.4-3.3c-0.6-1.7,0-3.9,1.7-5L204,516c0.6-0.6,1.7-1.1,2.8-1.1l585.4-16
			c1.1,0,2.2,0.6,3.3,1.1l92.9,94c1.1,1.1,1.7,3.3,1.1,5C888.3,601.1,886.7,602.2,885,602.2z M120,593.3h754l-84-84.6l-581.5,16
			L120,593.3z"/>
	</g>
	<g>
		<polygon fill="#BA6E29" points="45.3,37.8 181.9,125.7 836.4,132.9 964.1,37.8 		"/>
		<path fill="#743D26" d="M836.4,137.3L836.4,137.3l-654.5-7.2c-1.1,0-1.7,0-2.2-0.6L42.6,41.7c-1.7-1.1-2.2-3.3-1.7-5
			c0.6-2.2,2.2-3.3,4.4-3.3h918.7c2.2,0,3.9,1.1,4.4,3.3c0.6,1.7,0,3.9-1.7,5l-127.7,95.1C838.6,137.3,837.5,137.3,836.4,137.3z
			 M183,121.3l651.7,7.2l115-85.7H60.8L183,121.3z"/>
	</g>
</g>
<path opacity="0.3" fill="#7D4C1F" enable-background="new    " d="M964.1,37.8H45.3l4.4,2.8l-5-2.2l61.9,559.4h785l72.4-557.2V37.8
	z M107.2,54.9c26.5-3.3,53.6,1.1,80.2-0.6c27.6-1.7,54.7-2.2,81.8-1.1c55.3,2.2,110,4.4,165.3,2.8c56.9-1.1,113.9-4.4,170.8-5
	c28.7-0.6,56.9-0.6,85.7,0.6c20.5,0.6,42,0.6,62.5,2.2c11.6-0.6,23.8-1.7,35.4-2.2c44.8-2.8,90.1,3.9,134.3-3.9
	c2.2-0.6,3.9,2.2,2.2,3.9c-0.6,0.6-1.7,1.7-2.2,2.2c0,0.6,0,0.6,0,1.1c-3.9,7.7-12.2,10.5-19.9,13.3c-0.6,0-1.1,0.6-1.7,0.6
	c-7.7,4.4-16,9.4-23.2,14.9c-13.3,10-27.6,20.5-43.1,26.5c-5.5,2.8-10,3.3-15.5,2.2c-0.6,0-0.6,0.6-1.1,0.6
	c-124.9,0-250.4,2.8-375.3-1.7c-61.9-2.2-123.8-4.4-185.7-3.3c-26.5,0.6-55.3,3.9-81.3-6.1c-20.5-7.7-38.7-19.3-55.3-32.6
	c-5-2.8-10-6.1-14.4-10.5C104.5,57.7,105.6,55.5,107.2,54.9z M834.2,132.9l-40.4,372.6l-1.7-1.7l-583.2,16l-27.6-394.7l0.6,0.6
	L834.2,132.9z M115,565.7c-4.4-16.6-3.9-33.7-5.5-50.3c-2.2-20.5-5.5-41.5-7.7-61.9c-3.9-41.5-9.4-82.9-14.4-123.8
	c-5-40.9-7.7-81.8-11.6-123.3c-2.2-21-5-42-8.8-63c-1.1-6.6-2.2-12.7-3.3-19.3c-4.4-16.6-8.3-32.6-8.8-49.8c0.6-2.2,2.2-2.8,3.9-2.2
	c22.7,9.4,40.4,27.1,60.3,41.5c13.8,10,31,21,37.6,37.6c8.8,22.1,8.3,48.1,8.3,70.8c0.6,26,2.8,52,5,78.5c2.8,29.3,6.1,58,7.7,87.3
	c1.1,27.1,1.7,54.2,4.4,81.3c2.2,19.9,13.3,44.2-5.5,59.1c-8.3,6.6-18.2,10.5-27.1,16c-10.5,7.2-20.5,14.9-29.9,22.7
	C117.7,567.9,115.5,567.4,115,565.7z M840.8,577.9c-26,1.7-52,3.9-77.9,0c-0.6,0-1.1-0.6-1.7-1.1c-44.8-1.1-89,0-133.8,0.6
	c-56.4,0.6-113.3-3.9-169.7,2.8c-29.3,3.3-57.5,5.5-87.3,2.8c-26.5-2.2-52.5-2.8-79.6,0c-27.6,2.8-55.3,3.9-83.5,3.9
	c-19.3,0-41.5,2.8-59.7-5c-1.1-0.6-1.7-2.8-0.6-3.9c19.3-14.9,39.2-28.7,58-44.2c0-1.1,0.6-1.7,1.7-2.2c0.6,0,1.1,0,1.1,0
	c0.6-0.6,1.7-0.6,2.2-0.6c19.9-2.8,42,0.6,61.9,0.6c24.9,0.6,49.8,1.1,74.6,1.1c48.1,0,96.2-1.1,144.3-6.6
	c49.2-5.5,97.3-5.5,147-3.9c25.4,1.1,50.3,1.7,75.7,0c22.7-1.7,47.5,1.1,69.7-5.5c0.6,0,1.7,0,2.2,0.6c10,10,18.2,21.6,28.2,31
	c9.4,8.8,19.9,16,28.2,26C843.6,575.7,842.5,577.9,840.8,577.9z M949.7,67.6c-11.1,40.4-12.7,83.5-19.9,124.9
	c-7.2,42-14.9,83.5-21.6,125.5c-6.6,42.6-11.6,85.7-18.2,128.2c-3.3,22.7-8.3,45.3-9.4,68c-1.1,17.7-0.6,35.4-4.4,53.1
	c-0.6,1.7-2.8,2.2-3.9,1.1c-17.1-16-33.7-33.7-47-53.1c-5.5-7.7-13.3-17.1-15.5-26.5c-1.7-8.3,0-16,1.1-24.3
	c7.2-51.4,10.5-102.8,18.2-153.7c2.8-18.8,6.1-37.6,9.4-55.8c2.8-25.4,5.5-50.3,8.8-75.7c1.7-12.2-0.6-26.5,3.3-38.1
	c2.8-8.8,11.1-14.4,18.8-19.3c27.1-16.6,52-35.9,76.8-55.8C947.5,64.3,950.2,65.4,949.7,67.6z"/>
<path opacity="0.4" fill="#BA6E29" enable-background="new    " d="M892.2,112.4c-5,3.3-10,6.6-15.5,10c-6.1,3.3-12.7,7.2-17.1,12.2
	c0,0,0,0,0,0.6c6.1-5.5,13.3-8.8,19.9-13.3C883.9,118.5,888.3,115.7,892.2,112.4z"/>
<path opacity="0.4" fill="#BA6E29" enable-background="new    " d="M792.7,56c-7.7,0.6-16,1.1-24.3,1.7c7.2,0,14.4,0,21,0
	c22.1,0,43.7-1.7,65.8-1.7C834.7,55.5,813.7,54.9,792.7,56z"/>
<path opacity="0.4" fill="#BA6E29" enable-background="new    " d="M723.1,58.2c-2.2,0-5-0.6-7.2-0.6c-4.4,0-8.8-0.6-12.7-0.6
	c-2.2,0-5,0-7.2,0.6c-7.2,0.6-14.9,1.7-22.1,2.2C689.9,58.8,706.5,58.2,723.1,58.2z"/>
<g>
	<circle opacity="0.3" fill="#4A4A4A" enable-background="new    " cx="899.4" cy="124" r="14.4"/>
	<circle fill="#543E2D" cx="897.7" cy="123.5" r="12.2"/>
	<circle fill="#FFFFFF" cx="895" cy="120.2" r="5"/>
</g>
<g>
	<circle opacity="0.3" fill="#4A4A4A" enable-background="new    " cx="857.9" cy="79.8" r="14.4"/>
	<circle fill="#543E2D" cx="856.8" cy="78.7" r="12.2"/>
	<circle fill="#FFFFFF" cx="854.1" cy="75.9" r="5"/>
</g>
<g>
	<circle opacity="0.3" fill="#4A4A4A" enable-background="new    " cx="192.4" cy="567.4" r="14.4"/>
	<circle fill="#543E2D" cx="190.7" cy="566.3" r="12.2"/>
	<circle fill="#FFFFFF" cx="188.5" cy="563.5" r="5"/>
</g>
<g>
	<circle opacity="0.3" fill="#4A4A4A" enable-background="new    " cx="148.1" cy="529.2" r="14.4"/>
	<circle fill="#543E2D" cx="146.5" cy="528.7" r="12.2"/>
	<circle fill="#FFFFFF" cx="143.7" cy="525.4" r="5"/>
</g>
<g>
	<circle opacity="0.3" fill="#4A4A4A" enable-background="new    " cx="109.5" cy="115.2" r="14.4"/>
	<circle fill="#543E2D" cx="107.8" cy="114.1" r="12.2"/>
	<circle fill="#FFFFFF" cx="105" cy="111.3" r="5"/>
</g>
<g>
	<circle opacity="0.3" fill="#4A4A4A" enable-background="new    " cx="155.9" cy="77.6" r="14.4"/>
	<circle fill="#543E2D" cx="154.2" cy="76.5" r="12.2"/>
	<circle fill="#FFFFFF" cx="152" cy="73.7" r="5"/>
</g>
<g>
	<circle opacity="0.3" fill="#4A4A4A" enable-background="new    " cx="846.9" cy="521.5" r="14.4"/>
	<circle fill="#543E2D" cx="845.2" cy="520.4" r="12.2"/>
	<circle fill="#FFFFFF" cx="842.5" cy="517.6" r="5"/>
</g>
<g>
	<circle opacity="0.3" fill="#4A4A4A" enable-background="new    " cx="807.1" cy="559.1" r="14.4"/>
	<circle fill="#543E2D" cx="805.4" cy="558" r="12.2"/>
	<circle fill="#FFFFFF" cx="802.7" cy="555.2" r="5"/>
</g>
<g opacity="0.3">
	<g>
		<path fill="#E59051" d="M62.5,66.5c-1.1,5.5-1.1,11.1-1.7,16.6c1.7,17.7,6.6,35.4,12.2,53.1C69.7,112.4,66.3,89.8,62.5,66.5z"/>
		<path fill="#E59051" d="M121.1,562.4c2.2-14.4,5-28.7,7.2-43.1c1.7-26,2.8-52,2.2-77.9c-1.1-43.7-10-85.7-17.7-128.2
			c-8.3-41.5-13.8-83.5-20.5-124.9c-3.3-21-10-41.5-15.5-61.4c2.2,13.8,3.9,28.2,6.1,42c1.1,4.4,2.2,8.8,2.8,13.8
			c7.7,41.5,11.1,84,18.8,125.5c7.7,42.6,16.6,84.6,19.3,127.7C127.1,478.4,121.1,519.8,121.1,562.4z"/>
		<path fill="#E59051" d="M101.2,440.2c0-33.2,1.1-65.2-3.3-98.4c-4.4-33.7-13.8-66.3-19.9-99.5c-5-28.7-7.7-57.5-12.7-86.8
			c1.1,16.6,2.8,33.2,3.9,49.8c1.1,10,2.2,19.9,3.3,29.9c3.9,33.7,13.8,66.9,19.3,100.1c5,31,5.5,62.5,4.4,93.4
			c0.6,18.2,2.2,36.5,5,54.7c1.1,5.5,2.8,11.6,4.4,17.1C103.9,481.1,101.7,460.7,101.2,440.2z"/>
		<path fill="#E59051" d="M154.8,221.9c0,8.3,0,16,0.6,24.3c1.1,17.7,5,35.4,8.8,52.5c-1.7-21-2.8-41.5-2.8-63
			c0-17.7,0.6-35.9,0-54.2c-1.1-6.1-2.2-12.7-3.3-18.8c-1.7-8.8-3.3-17.7-5-26.5C156.4,164.4,154.8,193.7,154.8,221.9z"/>
		<path fill="#E59051" d="M159.8,312.5c-0.6-2.2-1.1-5-2.2-7.2c0.6,8.3,1.7,16.6,2.8,24.9c5,35.9,11.1,71.9,13.3,107.8
			c1.1,18.8-1.1,38.1-3.3,56.9c-0.6,5.5-1.7,12.2-1.7,17.1c-0.6,22.7-8.3-6.1-9.4-10.5c-6.6-29.9-13.3-59.1-21-89
			c-10-37.6-7.7-76.8-14.9-115c-7.2-37.6-13.8-75.2-20.5-113.3c-5.5-31.5-12.2-61.9-13.8-94c-0.6-4.4-1.7-8.8-2.2-12.7l0,0
			c-3.3,37,5.5,73,11.6,108.9c7.2,43.7,16.6,86.2,23.2,129.9c6.1,39.2,7.2,77.4,16.6,116.1c5.5,21.6,10.5,43.1,14.9,64.7
			c2.8,13.3,5,25.4,13.8,35.9c1.1,1.7,3.9-0.6,4.4-1.7c4.4-8.3,3.3-20.5,4.4-29.3c2.2-16.6,4.4-33.2,5-50.3
			c1.1-35.4-5.5-71.3-10.5-106.7C166.4,334.1,163.1,323,159.8,312.5z"/>
		<path fill="#E59051" d="M146.5,326.3c-1.7-26-2.8-52-6.6-77.4c-3.9-30.4-8.3-61.9-10.5-92.9c-1.7-15.5-3.3-30.4-5-45.9
			c0,0.6-0.6,0.6-0.6,1.1c-0.6,46.4,5,94,10.5,139.9c5.5,44.8,5.5,89.6,11.6,134.3c0,0.6,0.6,1.1,1.1,1.1
			C145.9,366.7,146.5,346.8,146.5,326.3z"/>
	</g>
	<g>
		<path fill="#E59051" d="M298.5,558.5c-8.8,0-17.1,0-26-0.6c-6.6,0-13.3-0.6-19.9-0.6c-7.2,1.1-14.4,1.7-21,2.8
			c-8.8,1.7-18.2,2.8-27.1,3.9c6.1-0.6,12.2-0.6,17.7-1.1c16.6-1.1,32.6-0.6,49.2-0.6c-14.9,2.8-29.3,5.5-44.2,7.7
			c-24.9,3.3-49.8,0-74.1,4.4c1.7,0,2.8,0.6,4.4,0.6c8.8,0.6,17.7,1.1,26.5,2.2c11.6-0.6,22.7-0.6,34.3-1.1
			c31.5-2.2,61.4-12.2,92.9-14.4l0,0h0.6c1.1,0,2.8-2.2,2.8-3.3C309,558.5,304,558.5,298.5,558.5z"/>
		<path fill="#E59051" d="M760.1,523.1c-7.2-1.1-14.4-1.7-21.6-1.7c-3.3,0-7.2,0.6-10.5,0.6c-24.9,1.7-49.2,7.2-73.5,6.6
			c-49.8-1.1-98.4,10.5-148.1,8.8c-52-2.2-103.4,1.7-155.3,2.2c-35.4,0.6-70.8-0.6-106.1,0.6c-14.9,0.6-31.5,2.2-46.4,6.6
			c50.3-3.9,100.1-1.7,149.8-1.7c52,0,103.4-3.9,154.8-0.6c49.8,2.8,97.8-9.4,148.1-8.3c20.5,0.6,39.2-3.3,59.1-5.5
			c23.2-2.8,46.4-3.3,69.7-4.4C773.9,524.8,767.3,523.7,760.1,523.1z"/>
		<path fill="#E59051" d="M758.4,534.2c-55.3,1.1-110,8.8-165.3,15.5c-40.4,5-77.9,3.3-118.9,0c-38.1-3.3-76.8,0-114.4,6.1
			c11.1,0,22.1,0.6,33.2,0.6c63.6-1.7,126,8.8,189.6,2.2c48.6-5,96.7-12.7,144.8-17.1c5-1.1,10-2.2,14.9-3.3
			c7.2-1.7,13.8-2.8,21-3.3C762.3,534.8,760.6,534.8,758.4,534.2z"/>
		<path fill="#E59051" d="M803.2,574c5-1.7,10-3.3,14.9-5c-9.4,0.6-19.9-0.6-28.2,0.6c-22.1,2.8-44.2,5.5-65.8,7.7
			c-49.8,5-100.6-3.9-150.4-2.8c-45.9,1.1-90.7,0.6-136.5-4.4c-17.7-2.2-34.8-2.2-52-1.7c-5,0.6-9.4,0.6-14.4,1.1
			c-17.1,1.1-33.2,2.8-50.3,6.6c-4.4,1.1-8.8,1.7-12.7,2.8c45.3-2.2,88.4-7.2,134.9-1.1c51.4,6.6,101.7,5,153.1,5.5
			c48.1,0.6,95.6,7.7,143.7,0C760.1,579.5,781.6,575.1,803.2,574z"/>
		<path fill="#E59051" d="M854.6,587.8c2.2-1.7,4.4-2.8,6.1-5c-13.3,3.3-27.1,0.6-39.8,2.8c-0.6,0.6-1.1,1.1-1.7,1.7
			C830.8,588.4,843,590,854.6,587.8L854.6,587.8z"/>
		<path fill="#E59051" d="M804.9,551.9c-26.5,1.1-53.6,1.1-79.6,6.6c-1.7,1.1-3.3,2.2-5,3.3C748.5,561.3,776.7,557.4,804.9,551.9z"
			/>
	</g>
	<g>
		<path fill="#E59051" d="M854.1,134.5c-4.4,28.7-3.9,56.9-9.4,85.7c-6.1,30.4-12.2,60.8-19.9,90.7c-6.1,25.4-8.3,50.9-10,76.8
			c-1.7,31-6.1,61.4-11.1,91.8c1.7-3.9,2.8-7.7,3.9-12.2c3.9-14.9,5-30.4,9.4-44.8c2.8-34.8,3.3-69.7,10.5-103.9
			c6.6-30.4,15.5-59.7,20.5-90.7c2.8-14.9,5.5-30.4,7.7-45.3c0-0.6,0-1.1,0-1.7C856.8,164.9,856.8,149.5,854.1,134.5z"/>
		<path fill="#E59051" d="M878.9,438.6c-0.6-11.6-1.1-83.5-18.2-82.9c-17.7,0.6-16.6,47-17.7,56.9c-4.4,35.4-11.1,70.8-14.4,106.1
			c6.6-27.6,11.6-56.4,17.7-84c2.2-11.6,3.9-23.2,5-34.8c0.6-6.1,6.1-44.8,10.5-29.9c10.5,32.6,10,71.3,11.1,105.6
			c1.1,33.2-0.6,66.9,1.7,100.1c0,0.6,0,0.6,0,1.1c2.2-7.7,2.2-16,3.3-23.8c0.6-5.5,1.7-11.1,2.8-16.6
			C881.7,503.8,881.1,470.6,878.9,438.6z"/>
		<path fill="#E59051" d="M874,579c-7.7-15.5-5.5-33.7-5-50.3c0.6-18.8-2.2-37-2.8-55.8c0-4.4-6.1-1.7-7.2,0.6
			c-3.9,7.2-7.2,14.4-10,22.1c0.6,0.6,0.6,1.1,0.6,2.2c-6.1,16-10.5,38.1-6.1,56.4c1.7-3.3,3.9-6.1,5-10c2.2-18.8,3.9-37,10-54.7
			c0.6,9.4,1.7,19.3,2.2,28.7c0.6,0.6,0.6,1.1,0.6,2.2c0,0,0,0.6,0,1.1c0.6,5.5,0.6,11.1,0.6,16.6c0,2.8,0,5.5,0,7.7
			c1.7,12.7,6.6,24.3,11.6,35.9C874,580.6,874,579.5,874,579z"/>
		<path fill="#E59051" d="M877.8,166c-18.8,55.8-34.3,116.6-44.8,174.7c-4.4,26.5-7.2,54.2-10,81.3c0.6,0.6,0.6,1.1,0.6,1.7
			c-1.7,19.9-2.2,39.8-2.2,59.7c0,4.4,0,8.8,0,13.3c5-49.8,10.5-100.1,17.7-149.3c5.5-39.2,16-78.5,26.5-117.2
			c0.6-2.8,1.1-5.5,1.7-8.8c3.9-18.8,6.1-38.1,11.1-56.9C878.4,164.9,877.8,165.5,877.8,166z"/>
		<path fill="#E59051" d="M877.3,290.4c6.1-14.4,10.5-28.2,13.3-43.7c2.8-17.7,4.4-34.8,6.1-52.5c0.6-5.5,0.6-11.1,1.1-16.6
			C892.2,215.8,884.5,252.8,877.3,290.4z"/>
		<path fill="#E59051" d="M934.2,155c5-29.3,8.3-58,11.1-87.3l-0.6,0.6c-12.2,64.7-29.3,128.8-36.5,194.6
			c-6.6,59.1-7.2,118.3-6.1,177.4c0.6-2.8,1.1-5.5,1.7-8.3c0-1.1,0.6-1.7,0.6-2.8c0-11.6,0-23.2,1.1-34.8c1.1-7.2,1.7-14.4,2.8-21
			c1.1-37.6,2.8-75.2,6.6-112.2c3.3-32.1,9.4-63,16.6-94C932.6,163.3,933.1,159.4,934.2,155z"/>
	</g>
	<g>
		<path fill="#E59051" d="M743.5,52.7c-33.7,4.4-68,10-102.3,11.1c-35.4,1.7-70.2-0.6-105.6-1.1c-68-1.7-135.4,7.7-203.4,10
			c-66.3,2.2-133.8-5.5-200.1-12.7c7.7,1.7,14.9,4.4,21,6.6c55.3,7.2,111.1,12.7,166.9,12.7c71.3,0,141.5-11.1,212.8-10
			c65.2,1.1,127.7,0.6,192.4-8.3c36.5-5,73.5-11.1,110.6-11.6c12.7,0,25.4,0.6,38.1,1.7c1.7,0,3.3,0,5,0c12.2-2.2,24.3-3.9,37-5.5
			C857.4,42.8,801.5,45,743.5,52.7z"/>
		<path fill="#E59051" d="M779.4,100.8c-33.2-2.8-66.3-5-99.5-9.4c29.3-10.5,64.7-8.8,95.1-11.6c43.1-3.9,86.8-6.1,129.9-11.6
			c-7.2-0.6-14.4-0.6-21-1.1c-38.7,3.9-77.4,5-116.6,7.7c-32.1,2.2-69.1,0.6-98.4,15.5c-1.7,1.1-5,5.5-1.1,6.1
			c38.7,6.1,77.9,8.3,116.6,11.6c14.4,1.1,28.7,1.1,43.7,1.1c5.5-0.6,10.5-1.1,15.5-2.8c4.4-1.1,8.3-2.8,12.7-4.4
			C830.8,105.2,803.8,103,779.4,100.8z"/>
		<path fill="#E59051" d="M834.2,90.3c4.4-0.6,9.4-1.1,13.8-1.7c10.5-2.8,21.6-5.5,32.1-7.7c0.6,0,0.6,0,1.1-0.6
			c-24.3,0-49.2,2.8-73.5,5c-0.6,0-0.6,0-1.1,0.6C816.5,88.1,825.3,89.8,834.2,90.3z"/>
		<path fill="#E59051" d="M401.3,92c-35.4-1.1-70.2-1.7-105.6,0.6c-28.2,2.2-59.7,6.1-89.6,5c-3.3,1.1-6.6,2.2-10.5,2.8
			c23.8,2.8,48.1,1.7,71.3,0.6c40.9-1.7,81.3-3.9,122.7-2.8c63.6,2.8,127.7,6.6,190.7,1.7c11.1-2.2,21.6-4.4,32.6-7.2
			C542.8,99.7,472.1,94.7,401.3,92z"/>
		<path fill="#E59051" d="M623,94.7c4.4-0.6,8.3-1.1,12.7-2.2c1.1,0,1.7-1.1,1.7-2.2C632.9,92,628,93.1,623,94.7z"/>
		<path fill="#E59051" d="M292.4,53.8c-22.7-5-44.8-6.6-67.4-7.2c-1.1,0-2.8,0-3.9,0c-8.3,0-16,0-24.3-0.6c-18.8,0-37-2.8-55.8-4.4
			c-2.2,0-3.9,0-6.1,0c-5,0.6-10,1.1-14.4,1.7c-8.3,1.1-17.1,2.8-25.4,2.8c-1.7,1.1-3.3,2.2-4.4,3.3c13.3,2.2,26-1.1,39.8-1.7
			c21-1.1,42.6,5.5,63.6,6.1c35.4,0.6,71.3,2.8,106.7,1.7C298,54.9,295.2,54.4,292.4,53.8z"/>
	</g>
</g>
<path opacity="0.5" fill="#BA6E29" enable-background="new    " d="M125.5,512.1c-4.4-69.7-14.9-139.3-20.5-209
	c-1.7-22.1-2.2-44.2-3.9-65.8c-1.1-6.1-2.2-12.2-3.9-18.2c-5.5-23.8-9.4-48.6-14.9-72.4c-1.7-6.6-3.3-13.3-5-19.3
	c-2.8-10.5-6.6-21-10.5-31c0,0.6-0.6,0.6-0.6,1.1c1.1,32.1,7.7,66.3,13.8,97.8c7.7,38.1,10,74.6,12.7,113.9
	c5.5,75.2,19.3,149.3,29.9,223.9C122.7,525.4,124.4,518.7,125.5,512.1z"/>
<path opacity="0.5" fill="#BA6E29" enable-background="new    " d="M699.8,537c10.5-2.2,20.5-5,31-6.6c5.5-1.1,11.6-1.1,17.7-1.7
	c-19.9,0-39.2,3.3-58.6,4.4c-21.6,1.1-43.7,0-65.2-1.7c-43.7-3.3-86.8-2.8-130.5,1.1c-48.6,3.9-96.2,10-144.8,8.8
	c-27.6-1.1-55.3-0.6-82.9,0c-14.9,1.1-29.3,2.8-44.2,3.9c13.8,2.2,28.7,1.1,42.6,2.2c21,1.1,42,1.1,63,3.3
	c45.9,5,91.8-0.6,137.6-6.1c52.5-5.5,103.4-10.5,155.9-6.6C648.4,539.7,673.9,539.2,699.8,537z"/>
<path opacity="0.5" fill="#BA6E29" enable-background="new    " d="M857.9,167.1c-2.2,11.6-4.4,23.2-6.6,34.3c0,1.1,0,2.2,0,3.3
	c-1.7,33.2-2.2,65.8-10,98.4c-6.6,28.7-9.4,59.7-13.3,88.4c-3.9,28.7-12.2,59.1-10.5,88.4c0.6-8.3,3.3-18.2,3.9-21.6
	c2.2-12.2,5.5-23.8,10-35.4c1.1-4.4,2.2-8.8,3.3-13.8c5.5-33.7,10.5-67.4,15.5-101.2c3.9-27.6,8.8-53.6,10-81.8
	c1.1-28.7-1.1-58.6,7.2-86.8V139C863.5,148.3,860.7,157.7,857.9,167.1z"/>
<path opacity="0.5" fill="#BA6E29" enable-background="new    " d="M634.1,67.1c11.1-1.7,22.1-4.4,33.2-7.2
	c-90.1,0.6-180.2,2.2-270.3-1.7c-45.3-1.7-90.7-2.8-136-0.6c-22.1,1.1-44.8,2.2-66.9,3.3c-7.2,0.6-14.9,1.1-22.7,1.7
	c1.7,0,2.8,0,4.4,0c27.1,1.7,54.7-0.6,81.8,0c21,0.6,41.5,1.1,61.9,2.2c21.6,0,43.1,0.6,64.7,1.1C467.1,69.9,551.1,71,634.1,67.1z"
	/>
</svg>
