<?xml version="1.0" encoding="utf-8"?>
<!-- Generator: Adobe Illustrator 18.1.1, SVG Export Plug-In . SVG Version: 6.00 Build 0)  -->
<svg version="1.1" id="Layer_1" xmlns="http://www.w3.org/2000/svg" xmlns:xlink="http://www.w3.org/1999/xlink" x="0px" y="0px"
	 viewBox="0 51.9 1000 577.1" enable-background="new 0 51.9 1000 577.1" xml:space="preserve">
<g>
	<g>
		<g>
			<polygon fill="#666766" points="159.2,568.2 42,569.3 42,546.6 3.3,546.6 3.3,625.7 43.1,625.7 43.1,601.9 167.5,601.9 			"/>
			<path fill="#1D1D1B" d="M46.4,629H0v-85.7h45.3V566l116.1-1.7l10.5,40.9H46.4V629z M6.6,622.4h33.2v-23.8h123.8l-7.2-27.6
				l-117.7,1.7V550H6.6V622.4z"/>
		</g>
		<polygon opacity="0.5" fill="#3E3F3E" enable-background="new    " points="3.3,589.8 3.3,625.7 43.1,625.7 43.1,601.9 
			167.5,601.9 164.7,589.8 		"/>
		<polygon opacity="0.7" fill="#9F9F9F" enable-background="new    " points="9.4,553.3 35.4,553.3 35.4,576.5 90.1,576.5 
			29.3,583.7 29.3,559.3 		"/>
	</g>
	<g>
		<g>
			<polygon fill="#666766" points="841.3,568.2 958,569.3 958,546.6 996.7,546.6 996.7,625.7 956.9,625.7 956.9,601.9 832.5,601.9 
							"/>
			<path fill="#1D1D1B" d="M953.6,605.2H828.1l10.5-40.9l116.1,1.7v-22.7h45.3V629h-46.4V605.2z M993.4,550h-32.1v22.7l-117.7-1.1
				l-7.2,27.6h123.8v23.8h33.2V550z"/>
		</g>
		<polygon opacity="0.5" fill="#3E3F3E" enable-background="new    " points="996.7,589.8 996.7,625.7 956.9,625.7 956.9,601.9 
			832.5,601.9 835.8,589.8 		"/>
		<polygon opacity="0.7" fill="#9F9F9F" enable-background="new    " points="990.6,553.3 964.6,553.3 964.6,576.5 910.4,576.5 
			970.7,583.7 970.7,559.3 		"/>
	</g>
	<g>
		<g>
			<rect x="142.6" y="500.2" fill="#3E3F3E" width="719.2" height="111.7"/>
			<path fill="#1D1D1B" d="M865.1,615.7H139.3V496.9h725.8V615.7z M145.9,608.5h712V504.1h-712V608.5z"/>
		</g>
		<rect x="142.6" y="599.7" fill="#3E3F3E" width="719.2" height="12.2"/>
		<rect x="142.6" y="500.2" opacity="0.5" fill="#3E3F3E" enable-background="new    " width="719.2" height="80.7"/>
	</g>
</g>
<g>
	<path fill="#A16F58" d="M692.1,60.2H312.3H68l51.4,497h192.9h379.2h192.9l51.4-497H692.1z M821.4,503H171.4l-36.5-374.8h721.9
		L821.4,503z"/>
	<path fill="#5E3822" d="M888.3,561H116.1l-0.6-3.3L64.1,56.9h876.2L888.3,561z M122.2,553.8h759.5L932,63.5H71.9L122.2,553.8z
		 M824.2,506.8H168.6l-37-381.4h729.7L824.2,506.8z M174.7,499.6h643.4L853.5,132H139.3L174.7,499.6z"/>
</g>
<g opacity="0.5">
	<path fill="#A16F58" d="M857.4,128.7l-36.5,374.8H171.4l-36.5-374.8L857.4,128.7L857.4,128.7z M872.3,114.9h-14.9H135.4h-14.9
		l1.7,14.9l36.5,374.8l1.1,12.2h11.6h649.5h12.2l1.1-12.2l36.5-374.8L872.3,114.9L872.3,114.9z"/>
</g>
<g opacity="0.9">
	<polygon opacity="0.3" fill="#A16F58" enable-background="new    " points="932,103.3 936.4,60.2 68,60.2 72.4,103.3 	"/>
</g>
<g>
	<g>
		<rect x="39.8" y="53" fill="#A16F58" width="924.3" height="34.3"/>
		<path fill="#5E3822" d="M967.4,88.4H37V51.9h930.3V88.4z M43.1,86.2h918.2V54.1H43.1V86.2z"/>
	</g>
	<rect x="45.3" y="55.8" opacity="0.7" fill="#939292" enable-background="new    " width="909.3" height="2.8"/>
	<rect x="39.8" y="70.7" opacity="0.4" fill="#A16F58" enable-background="new    " width="924.3" height="16.6"/>
</g>
<g>
	<g>
		<circle fill="#763E2B" cx="103.4" cy="108.3" r="12.7"/>
		<circle fill="#763E2B" cx="102.3" cy="107.7" r="10.5"/>
		<circle fill="#EBEBEB" cx="99.5" cy="105" r="4.4"/>
	</g>
	<g>
		<circle fill="#763E2B" cx="112.2" cy="216.1" r="12.7"/>
		<circle fill="#763E2B" cx="111.1" cy="215.5" r="10.5"/>
		<circle fill="#EBEBEB" cx="108.9" cy="212.7" r="4.4"/>
	</g>
	<g>
		<circle fill="#763E2B" cx="123.3" cy="320" r="12.7"/>
		<circle fill="#763E2B" cx="122.2" cy="319.4" r="10.5"/>
		<circle fill="#EBEBEB" cx="120" cy="316.7" r="4.4"/>
	</g>
	<g>
		<circle fill="#763E2B" cx="147" cy="528.4" r="12.7"/>
		<circle fill="#763E2B" cx="145.4" cy="527.3" r="10.5"/>
		<circle fill="#EBEBEB" cx="143.2" cy="525.1" r="4.4"/>
	</g>
	<g>
		<circle fill="#763E2B" cx="264.2" cy="528.4" r="12.7"/>
		<circle fill="#763E2B" cx="262.6" cy="527.3" r="10.5"/>
		<circle fill="#EBEBEB" cx="260.4" cy="525.1" r="4.4"/>
	</g>
	<g>
		<circle fill="#763E2B" cx="381.4" cy="528.4" r="12.7"/>
		<circle fill="#763E2B" cx="380.3" cy="527.3" r="10.5"/>
		<circle fill="#EBEBEB" cx="377.6" cy="525.1" r="4.4"/>
	</g>
	<g>
		<circle fill="#763E2B" cx="498.6" cy="528.4" r="12.7"/>
		<circle fill="#763E2B" cx="497.5" cy="527.3" r="10.5"/>
		<circle fill="#EBEBEB" cx="495.3" cy="525.1" r="4.4"/>
	</g>
	<g>
		<circle fill="#763E2B" cx="615.8" cy="528.4" r="12.7"/>
		<circle fill="#763E2B" cx="614.7" cy="527.3" r="10.5"/>
		<circle fill="#EBEBEB" cx="612.5" cy="525.1" r="4.4"/>
	</g>
	<g>
		<circle fill="#763E2B" cx="733" cy="528.4" r="12.7"/>
		<circle fill="#763E2B" cx="731.9" cy="527.3" r="10.5"/>
		<circle fill="#EBEBEB" cx="729.7" cy="525.1" r="4.4"/>
	</g>
	<g>
		<circle fill="#763E2B" cx="134.9" cy="423.9" r="12.7"/>
		<circle fill="#763E2B" cx="133.2" cy="423.4" r="10.5"/>
		<circle fill="#EBEBEB" cx="131" cy="420.6" r="4.4"/>
	</g>
	<g>
		<circle fill="#763E2B" cx="898.8" cy="108.3" r="12.7"/>
		<circle fill="#763E2B" cx="897.2" cy="107.7" r="10.5"/>
		<circle fill="#EBEBEB" cx="895" cy="105" r="4.4"/>
	</g>
	<g>
		<circle fill="#763E2B" cx="883.9" cy="216.1" r="12.7"/>
		<circle fill="#763E2B" cx="882.8" cy="215.5" r="10.5"/>
		<circle fill="#EBEBEB" cx="880.6" cy="212.7" r="4.4"/>
	</g>
	<g>
		<circle fill="#763E2B" cx="876.2" cy="320" r="12.7"/>
		<circle fill="#763E2B" cx="874.5" cy="319.4" r="10.5"/>
		<circle fill="#EBEBEB" cx="872.3" cy="316.7" r="4.4"/>
	</g>
	<g>
		<circle fill="#763E2B" cx="850.7" cy="528.4" r="12.7"/>
		<circle fill="#763E2B" cx="849.1" cy="527.3" r="10.5"/>
		<circle fill="#EBEBEB" cx="846.9" cy="525.1" r="4.4"/>
	</g>
	<g>
		<circle fill="#763E2B" cx="236" cy="108.3" r="12.7"/>
		<circle fill="#763E2B" cx="234.4" cy="107.7" r="10.5"/>
		<circle fill="#EBEBEB" cx="232.2" cy="105" r="4.4"/>
	</g>
	<g>
		<circle fill="#763E2B" cx="368.7" cy="108.3" r="12.7"/>
		<circle fill="#763E2B" cx="367.1" cy="107.7" r="10.5"/>
		<circle fill="#EBEBEB" cx="364.8" cy="105" r="4.4"/>
	</g>
	<g>
		<circle fill="#763E2B" cx="500.8" cy="108.3" r="12.7"/>
		<circle fill="#763E2B" cx="499.7" cy="107.7" r="10.5"/>
		<circle fill="#EBEBEB" cx="497.5" cy="105" r="4.4"/>
	</g>
	<g>
		<circle fill="#763E2B" cx="633.5" cy="108.3" r="12.7"/>
		<circle fill="#763E2B" cx="632.4" cy="107.7" r="10.5"/>
		<circle fill="#EBEBEB" cx="630.2" cy="105" r="4.4"/>
	</g>
	<g>
		<circle fill="#763E2B" cx="766.2" cy="108.3" r="12.7"/>
		<circle fill="#763E2B" cx="765.1" cy="107.7" r="10.5"/>
		<circle fill="#EBEBEB" cx="762.3" cy="105" r="4.4"/>
	</g>
	<g>
		<circle fill="#763E2B" cx="864.6" cy="423.9" r="12.7"/>
		<circle fill="#763E2B" cx="863.5" cy="423.4" r="10.5"/>
		<circle fill="#EBEBEB" cx="860.7" cy="420.6" r="4.4"/>
	</g>
</g>
</svg>
