<?xml version="1.0" encoding="utf-8"?>
<!-- Generator: Adobe Illustrator 18.1.1, SVG Export Plug-In . SVG Version: 6.00 Build 0)  -->
<svg version="1.1" id="Layer_1" xmlns="http://www.w3.org/2000/svg" xmlns:xlink="http://www.w3.org/1999/xlink" x="0px" y="0px"
	 viewBox="0 0 216.7 216.7" enable-background="new 0 0 216.7 216.7" xml:space="preserve">
<g>
	<path fill="#472A19" d="M108.3,216.7C48.6,216.7,0,168,0,108.3S48.6,0,108.3,0s108.3,48.6,108.3,108.3
		C216.1,168,168,216.7,108.3,216.7z M108.3,6.1C52,6.1,6.1,52,6.1,108.3S52,210.6,108.3,210.6s102.3-45.9,102.3-102.3
		C210.1,52,164.7,6.1,108.3,6.1z M108.3,199.6c-11.6,0-23.2-2.2-34.3-6.6c-0.6-0.6-1.1-1.1-1.7-1.7c-0.6-0.6-0.6-1.7,0-2.2L84,161.4
		c0.6-1.7,2.2-2.2,3.9-1.7c6.6,2.8,13.8,3.9,20.5,3.9c1.7,0,2.8,1.1,2.8,2.8v29.9c0,0.6-0.6,1.7-1.1,2.2
		C109.5,199.6,108.9,199.6,108.3,199.6z M79,188.5c8.3,3.3,17.1,5,26,5v-23.8c-6.1-0.6-11.6-1.7-17.1-3.3L79,188.5z M129.4,197.3
		c-1.1,0-2.8-1.1-2.8-2.2l-7.2-29.3c0-0.6,0-1.7,0.6-2.2c0.6-0.6,1.1-1.1,1.7-1.1c7.2-1.7,13.3-4.4,19.3-8.8
		c1.1-1.1,3.3-0.6,4.4,0.6l17.7,24.3c1.1,1.1,0.6,3.3-0.6,4.4c-9.4,7.2-20.5,12.2-31.5,14.9C129.9,197.3,129.4,197.3,129.4,197.3z
		 M125.5,166.9l5.5,23.2c8.8-2.2,16.6-6.1,24.3-11.1L141,159.8C136.5,163.1,131,165.3,125.5,166.9z M56.4,183c-0.6,0-1.1,0-1.7-0.6
		C45.3,175.2,37,166.9,31,157c-0.6-0.6-0.6-1.7-0.6-2.2s0.6-1.7,1.1-1.7l25.4-16c1.7-1.1,3.3-0.6,3.9,1.1
		c3.9,6.1,8.8,11.1,14.4,15.5c0.6,0.6,1.1,1.1,1.1,2.2c0,0.6,0,1.7-0.6,2.2L58,182.4C58.6,182.4,57.5,183,56.4,183
		C56.9,183,56.4,183,56.4,183z M37.6,155.9c5,7.7,11.1,13.8,18.2,19.3l14.4-19.3c-4.4-3.9-8.8-7.7-12.2-12.7L37.6,155.9z
		 M175.2,168.6c-0.6,0-1.1,0-2.2-0.6l-22.7-19.3c-0.6-0.6-1.1-1.1-1.1-2.2c0-0.6,0-1.7,0.6-2.2c4.4-5.5,8.3-11.6,10.5-18.2
		c0.6-1.7,2.2-2.2,3.9-1.7l28.7,9.4c1.7,0.6,2.2,2.2,1.7,3.9c-3.9,11.1-9.4,21.6-17.1,30.4C176.9,168,176.3,168.6,175.2,168.6z
		 M156.4,145.9l18.2,15.5c5.5-7.2,10-14.9,13.3-23.2l-22.7-7.2C163.1,136,160.3,141,156.4,145.9z M24.3,138.8
		c-1.1,0-2.2-0.6-2.8-2.2c-2.8-8.8-4.4-18.2-4.4-28.2c0-2.2,0-4.4,0-6.6c0-0.6,0.6-1.7,1.1-2.2c0.6-0.6,1.1-0.6,2.2-0.6l29.9,2.2
		c1.7,0,2.8,1.7,2.8,3.3v0.6c0,1.1,0,2.2,0,3.3c0,5.5,1.1,11.6,2.8,17.1c0,0.6,0,1.7,0,2.2c-0.6,0.6-1.1,1.1-1.7,1.7l-28.7,9.4
		C24.9,138.8,24.9,138.8,24.3,138.8z M23.2,105.6c0,1.1,0,2.2,0,3.3c0,7.7,1.1,16,3.3,23.2l22.7-7.2c-1.7-5.5-2.2-10.5-2.2-16
		c0-0.6,0-1.1,0-1.1L23.2,105.6z M195.7,118.3L195.7,118.3l-29.9-2.2c-0.6,0-1.7-0.6-2.2-1.1c-0.6-0.6-0.6-1.7-0.6-2.2
		c0-1.7,0-2.8,0-4.4c0-5.5-1.1-11.6-2.8-16.6c-0.6-1.7,0.6-3.3,1.7-3.9l28.2-9.4c1.7-0.6,3.3,0.6,3.9,1.7c2.8,8.8,4.4,18.8,4.4,28.2
		c0,2.2,0,4.4,0,6.6C198.5,117.2,197.3,118.3,195.7,118.3z M169.2,110l23.8,1.7c0-1.1,0-2.2,0-3.3c0-7.7-1.1-16-3.3-23.2l-22.7,7.2
		c1.7,5,2.2,10.5,2.2,16C169.2,108.9,169.2,109.5,169.2,110z M53.1,94c-0.6,0-0.6,0-1.1,0l-28.2-9.4c-0.6,0-1.7-0.6-1.7-1.7
		c-0.6-0.6-0.6-1.7,0-2.2c3.9-11.1,9.4-21.6,17.1-30.4c1.1-1.1,2.8-1.7,4.4-0.6l22.7,19.3c1.1,1.1,1.7,2.8,0.6,4.4
		c-4.4,5.5-8.3,11.6-10.5,18.8c0,0.6-0.6,1.7-1.7,1.7C53.6,94,53.1,94,53.1,94z M28.2,79.6l22.7,7.2c2.2-5.5,5-10.5,8.3-15.5
		L40.9,55.8C35.9,63.6,31.5,71.3,28.2,79.6z M157.5,81.3H157c-0.6,0-1.7-0.6-1.7-1.1c-3.9-6.1-8.8-11.6-14.4-15.5
		c-1.1-1.1-1.7-2.8-0.6-4.4l17.7-24.3c1.1-1.1,2.8-1.7,4.4-0.6c9.4,7.2,17.7,15.5,23.8,25.4c0.6,0.6,0.6,1.7,0.6,2.2
		s-0.6,1.7-1.1,1.7l-25.4,15.5C158.7,81.3,158.1,81.3,157.5,81.3z M146.5,61.4c4.4,3.9,8.8,8.3,12.2,12.7l20.5-12.7
		c-5-7.7-11.1-13.8-18.2-19.3L146.5,61.4z M74.1,64.7C73.5,64.7,73.5,64.7,74.1,64.7c-1.1,0-2.2-0.6-2.2-1.1L54.2,39.2
		c-0.6-0.6-0.6-1.7-0.6-2.2c0-0.6,0.6-1.7,1.1-2.2c9.4-7.2,20.5-12.2,31.5-14.9c0.6,0,1.7,0,2.2,0.6c0.6,0.6,1.1,1.1,1.1,1.7
		l7.2,28.7c0.6,1.7-0.6,3.3-2.2,3.9c-7.2,1.7-13.3,5-19.3,8.8C75.2,64.7,74.6,64.7,74.1,64.7z M60.8,38.1l13.8,19.3
		c5-3.3,10.5-5.5,16-7.2l-5.5-23.2C76.3,29.3,68,33.2,60.8,38.1z M129.9,58c-0.6,0-0.6,0-1.1,0c-6.6-2.8-13.8-3.9-21-3.9
		c-1.7,0-2.8-1.1-2.8-2.8V21.6c0-1.7,1.1-2.8,2.8-2.8c11.6,0,23.2,2.2,34.3,6.6c0.6,0.6,1.1,1.1,1.7,1.7c0.6,0.6,0.6,1.7,0,2.2
		l-11.1,27.6c-0.6,0.6-1.1,1.1-1.7,1.7C131,58,130.5,58,129.9,58z M111.1,47.5c6.1,0.6,11.6,1.7,17.1,3.3l8.8-22.1
		c-8.3-3.3-17.1-5-26.5-5v23.8H111.1z"/>
	<g>
		<g>
			<path fill="#834D32" d="M108.3,3.3c-58,0-105,47-105,105s47,105,105,105s105-47,105-105S166.4,3.3,108.3,3.3z M108.3,209.5
				c-55.3,0-100.6-44.8-100.6-100.6C7.7,53.6,52.5,8.3,108.3,8.3C163.6,8.3,209,53.1,209,108.9C208.4,164.2,163.6,209.5,108.3,209.5
				z"/>
			<path fill="#865D4B" d="M108.3,8.3C53.1,8.3,7.7,53.1,7.7,108.9c0,55.3,44.8,100.6,100.6,100.6c55.3,0,100.6-44.8,100.6-100.6
				C208.4,53.1,163.6,8.3,108.3,8.3z M191.8,136c-3.3,11.1-9.4,21-16.6,29.3c-4.4,5.5-10,10.5-15.5,14.4
				c-8.8,6.6-19.3,11.6-30.4,14.4c-6.6,1.7-13.8,2.8-21,2.8c-11.6,0-22.7-2.2-33.2-6.6c-6.6-2.8-12.7-6.1-18.2-10.5
				c-9.4-6.6-17.1-14.9-23.2-24.9c-3.9-6.1-6.6-12.2-8.8-19.3c-2.8-8.3-4.4-17.7-4.4-27.1c0-2.2,0-4.4,0-6.6
				c0.6-7.2,1.7-14.4,3.9-20.5c3.3-11.1,9.4-21,16.6-29.3c4.4-5.5,10-10.5,15.5-14.4c8.8-6.6,19.3-11.6,31-14.4
				c6.6-1.7,13.8-2.8,21-2.8c11.6,0,23.2,2.2,33.2,6.6c6.6,2.8,12.7,6.1,18.2,10.5c9.4,6.6,17.1,14.9,23.2,24.9
				c3.9,6.1,6.6,12.2,8.8,19.3c2.8,8.3,4.4,17.7,4.4,27.1c0,2.2,0,4.4,0,6.6C195.1,122.2,194,129.4,191.8,136z"/>
			<path fill="#6D4029" d="M191.8,136c2.2-6.6,3.3-13.3,3.9-20.5l-87.9-6.6L191.8,136z"/>
			<path fill="#6D4029" d="M159.8,37.6c-5.5-4.4-11.6-7.7-18.2-10.5l-33.2,81.3L159.8,37.6z"/>
			<path fill="#6D4029" d="M56.4,37.6C50.9,42,45.3,46.4,40.9,52l67.4,56.9L56.4,37.6z"/>
			<path fill="#6D4029" d="M108.3,21c-7.2,0-14.4,1.1-21,2.8l21,85.1V21z"/>
			<path fill="#6D4029" d="M191.8,81.8c-2.2-6.6-5-13.3-8.8-19.3l-74.6,46.4L191.8,81.8z"/>
			<path fill="#6D4029" d="M24.3,81.8c-2.2,6.6-3.3,13.3-3.9,20.5l87.9,6.6L24.3,81.8z"/>
			<path fill="#6D4029" d="M108.3,196.8c7.2,0,14.4-1.1,21-2.8l-21-85.1V196.8z"/>
			<path fill="#6D4029" d="M159.8,179.7c5.5-4.4,11.1-8.8,15.5-14.4l-66.9-56.4L159.8,179.7z"/>
			<path fill="#6D4029" d="M56.4,179.7c5.5,3.9,12.2,7.7,18.2,10.5l33.2-81.3L56.4,179.7z"/>
			<path fill="#6D4029" d="M24.3,136c2.2,6.6,5,13.3,8.8,19.3l74.6-46.4L24.3,136z"/>
		</g>
		<path fill="#865D4B" d="M166.4,108.3c0,32.1-26,58-58,58s-58-26-58-58s26-58,58-58S166.4,76.3,166.4,108.3z"/>
		<path fill="#6D4029" d="M147,108.3c0,21.6-17.7,39.2-39.2,39.2s-39.2-17.7-39.2-39.2s17.7-39.2,39.2-39.2
			C129.9,69.7,147,86.8,147,108.3z"/>
		<path fill="#6D4029" d="M134.9,107.8c0,14.9-12.2,26.5-26.5,26.5c-14.9,0-26.5-12.2-26.5-26.5c0-14.9,12.2-26.5,26.5-26.5
			S134.9,93.4,134.9,107.8z"/>
		<path fill="#834D32" d="M132.7,106.1c0,14.4-11.6,25.4-25.4,25.4S81.8,120,81.8,106.1s11.6-25.4,25.4-25.4
			C121.6,80.7,132.7,91.8,132.7,106.1z"/>
	</g>
</g>
</svg>
