<?xml version="1.0" encoding="utf-8"?>
<!-- Generator: Adobe Illustrator 18.1.1, SVG Export Plug-In . SVG Version: 6.00 Build 0)  -->
<svg version="1.1" id="Layer_1" xmlns="http://www.w3.org/2000/svg" xmlns:xlink="http://www.w3.org/1999/xlink" x="0px" y="0px"
	 viewBox="0 0 215.6 215.6" enable-background="new 0 0 215.6 215.6" xml:space="preserve">
<g>
	<g>
		<g>
			<rect x="33.7" y="101.2" fill="#432415" width="148.7" height="14.9"/>
			<rect x="100.1" y="34.3" fill="#432415" width="14.9" height="148.7"/>
		</g>
		<g>
			
				<rect x="33.6" y="101.3" transform="matrix(-0.7071 -0.7071 0.7071 -0.7071 107.3782 261.9944)" fill="#432415" width="148.7" height="14.9"/>
			
				<rect x="33.3" y="101.2" transform="matrix(0.7071 -0.7071 0.7071 0.7071 -45.3467 107.9466)" fill="#432415" width="148.7" height="14.9"/>
		</g>
		<path fill="#753E26" d="M107.8,0C48.1,0,0,48.1,0,107.8s48.1,107.8,107.8,107.8s107.8-48.1,107.8-107.8S167.5,0,107.8,0z
			 M107.8,165.3c-31.5,0-56.9-25.4-56.9-56.9c0-31.5,25.4-56.9,56.9-56.9s56.9,25.4,56.9,56.9S139.3,165.3,107.8,165.3z"/>
		<circle fill="#BA6F2A" cx="107.8" cy="108.3" r="24.3"/>
		<circle fill="#432415" cx="108.9" cy="107.8" r="13.8"/>
		<path fill="#BA6F2A" d="M107.8,7.7C52,7.7,6.6,53.1,6.6,108.9S52,210.1,107.8,210.1S209,164.7,209,108.9
			C209,53.1,163.6,7.7,107.8,7.7z M107.8,170.3c-34.3,0-61.9-27.6-61.9-61.9s27.6-61.9,61.9-61.9s61.9,27.6,61.9,61.9
			C169.7,142.6,142.1,170.3,107.8,170.3z"/>
		<path opacity="0.5" fill="#BA6F2A" enable-background="new    " d="M139.3,15.5c0,0-53.6-14.9-95.6,18.8
			C1.7,68.5-5,145.9,47.5,186.8c0,0-40.4-50.3-23.8-103.4S92.3,11.6,139.3,15.5z"/>
	</g>
	<g>
		<path fill="#753E26" d="M171.9,29.3c-5.5-3.9-10.5-8.3-14.9-12.7c-0.6,0.6-0.6,1.7,0,2.2c0.6,1.1,10.5,11.1,10.5,11.1
			c-2.8,2.2-7.2,4.4-8.8,7.7c-1.7,3.9,2.2,6.1,4.4,8.3c0.6,0.6-1.7,3.3-3.9,6.1c3.3-2.2,6.6-3.9,10-6.1c0-1.7-0.6-2.8-1.7-3.9
			c-1.1-2.2-2.2-3.9-2.8-6.1c0.6-0.6,0.6-0.6,1.1-1.1C166.9,34.3,170.8,32.1,171.9,29.3z"/>
		<path fill="#753E26" d="M166.4,194c0.6-0.6,0.6-1.1,1.1-1.7c-1.1-2.2-2.8-5-4.4-7.2c-3.3-4.4-6.6-8.3-7.2-14.4
			c-0.6-3.9-0.6-7.2-1.1-11.1c0,0.6-0.6,0.6-0.6,1.1c0,2.2,0,3.9,0,5.5c0,2.8-1.1,6.1-1.1,8.8c0,3.9,2.2,6.6,3.9,10
			c0.6,1.1,1.1,2.8,1.7,3.9c1.1,2.8,2.8,0.6-1.7,3.9c-2.8,2.2-4.4,5-7.2,7.2l-0.6,0.6C155.3,199,160.9,196.8,166.4,194z"/>
	</g>
	<g opacity="0.3">
		<path fill="#E59051" d="M66.3,22.7c-3.9,5-8.3,10-11.6,14.9c-6.1,8.3-10.5,18.8-15.5,27.6c-5,8.3-11.6,15.5-18.2,23.2
			c-6.6,8.3-9.4,16-13.8,25.4c-0.6,1.1,0.6,1.1,1.1,0c6.1-9.4,9.4-18.8,16.6-27.1c6.1-6.6,11.6-13.3,16.6-20.5
			c5.5-8.8,9.4-18.8,14.9-27.6c2.2-3.3,5-6.6,7.2-10C65.2,26.5,65.8,24.9,66.3,22.7z"/>
		<path fill="#E59051" d="M87.3,16C66.9,35.4,57.5,61.9,39.8,83.5c-8.8,11.1-15.5,22.1-19.9,35.4c-1.7,4.4-2.8,9.4-3.9,13.8
			c1.1-2.8,2.8-5.5,3.9-8.8c1.7-5.5,3.9-11.1,6.1-15.5c5.5-12.2,14.4-22.7,22.7-32.6c6.6-8.3,11.1-18.8,16-28.2
			C70.8,37,77.4,27.1,86.2,17.7C86.8,17.1,86.8,16.6,87.3,16z"/>
		<path fill="#E59051" d="M85.7,201.8c-14.9-8.8-26-24.9-33.7-40.4c-3.9-7.7-6.6-16-9.4-24.3c-1.7-5.5-2.2-12.2-6.1-16.6
			c-0.6-1.1-2.2,0.6-2.2,1.1c-2.8,6.6-3.9,13.8-5,21c0,2.2,0,3.9,0.6,6.1c1.1-8.3,3.3-17.1,6.1-23.8c3.3,5.5,4.4,14.9,6.6,20.5
			c3.3,8.3,6.6,16,10.5,23.8c6.6,12.7,18.8,27.1,32.1,33.2C85.7,203.4,86.2,202.3,85.7,201.8z"/>
		<path fill="#E59051" d="M81.8,201.2c-8.8-4.4-16-10-22.7-16.6C52,177.4,47,168,40.4,160.3c-0.6-0.6-1.7,0.6-1.7,1.1
			c0,6.6,3.3,11.6,6.1,17.7c2.8,5.5,4.4,11.6,8.8,16.6c0.6,0.6,1.1-0.6,0.6-0.6c-4.4-5-6.1-11.1-8.3-16.6c-1.7-4.4-3.9-8.8-5-13.3
			c11.1,14.9,21,31.5,39.8,37.6C81.8,202.9,82.4,201.8,81.8,201.2z"/>
		<path fill="#E59051" d="M121.6,200.7c-13.8-6.6-29.9-15.5-41.5-25.4c-11.1-8.8-17.7-22.7-24.9-34.8c0-0.6-1.1,0-0.6,0.6
			c7.2,12.7,13.3,25.4,23.8,35.9c5.5,5.5,12.2,8.8,18.8,12.7c7.7,4.4,15.5,10.5,23.8,12.7C121.6,202.9,122.7,201.2,121.6,200.7z"/>
		<path fill="#E59051" d="M134.9,179.7c-5-2.2-9.4-5-14.4-7.2H120c0.6,1.1,1.1,1.7,1.7,2.8c3.9,2.2,7.7,4.4,11.6,6.6
			c5.5,2.8,13.8,8.3,21,9.4c1.1-0.6,2.8-1.1,3.9-1.7C150.9,186.8,143.2,182.4,134.9,179.7z"/>
		<path fill="#E59051" d="M117.7,188.5c-7.7-3.9-14.4-9.4-21.6-14.9c-0.6,0-1.7,0-2.2,0c8.8,6.6,16.6,13.8,26.5,18.8
			c8.3,4.4,18.2,3.9,27.6,2.2c2.2-1.1,3.9-2.2,6.1-2.8C141.5,193.5,129.9,194,117.7,188.5z"/>
		<path fill="#E59051" d="M107.2,13.8c-3.3,3.9-6.1,8.3-8.8,13.3c-3.9,6.6-8.3,12.2-12.7,17.7c0,1.1,0,1.7-0.6,2.8
			c3.9-5,8.3-9.4,11.6-14.9c2.8-4.4,5.5-9.4,7.7-13.8C106.1,17.1,106.7,15.5,107.2,13.8z"/>
		<path fill="#E59051" d="M154.8,14.9c-16,13.8-36.5,19.9-53.6,31.5c-0.6,0-0.6,1.1,0,1.1c3.9-2.2,8.3-2.2,11.6-4.4
			c5.5-3.3,11.1-6.1,16-8.8C138.8,28.7,147.6,23.2,154.8,14.9C155.3,14.9,155.3,14.9,154.8,14.9z"/>
		<path fill="#E59051" d="M141,12.2c-10,6.6-19.3,14.9-29.3,21.6c-5,3.3-0.6-1.7,1.1-3.3c1.7-2.8,4.4-5,6.6-7.7
			c1.7-2.2,2.8-3.9,4.4-6.1c-1.7,1.1-2.8,2.2-4.4,3.3c-0.6,0.6-1.1,1.1-1.1,2.2c-3.9,5-7.7,9.4-10.5,14.9c0,0.6,0.6,1.1,1.1,0.6
			c5-3.3,10.5-5.5,14.9-9.4c6.1-5,11.6-10.5,18.2-15.5C141.5,12.2,141.5,11.6,141,12.2z"/>
		<path fill="#E59051" d="M168,23.8c-10,7.7-19.3,15.5-29.3,22.7c1.1,0,2.8,0,3.9,0c9.4-6.1,17.1-14.9,25.4-22.1
			C168.6,23.8,168.6,23.2,168,23.8z"/>
		<path fill="#E59051" d="M163.6,181.9c-5-2.2-8.8-6.1-14.4-7.7c-5-1.7-10.5-2.8-14.9-6.1c-0.6,0-1.1,0-1.7,0l0,0
			c2.2,4.4,10,6.6,13.8,7.7c3.9,1.1,7.2,2.8,10.5,5c2.8,1.7,5,3.3,7.7,3.3l0,0C164.7,183.5,164.2,183,163.6,181.9z"/>
		<path fill="#E59051" d="M178.6,171.9c-5.5-2.8-10.5-5-16.6-7.2c-2.8-1.1-5-2.2-7.2-3.9c-1.1-0.6-1.7-0.6-2.8-1.1
			c-1.1,0-2.2,0.6-2.8,0.6c8.3,4.4,16.6,7.2,25.4,10.5C175.8,171.9,176.9,171.9,178.6,171.9z"/>
		<path fill="#E59051" d="M181.3,154.2c0-1.1,0-2.2,0-2.8c-2.2-18.2,2.8-36.5-2.2-54.7c-1.7-6.1-17.7-33.2-11.1-38.7
			c4.4-3.9,8.3-7.2,11.6-11.6c0.6-1.1,0.6-2.2,1.1-3.3c-3.3,4.4-6.6,8.8-11.6,12.2c-1.7,1.1-5,3.3-6.1,5.5c-1.1,3.3-0.6,5,0.6,7.7
			c3.3,6.6,6.1,12.2,8.8,18.8c2.8,7.7,5.5,14.4,6.1,22.7c0.6,7.7,0,16-0.6,23.8c-0.6,11.6,0.6,24.3,6.1,34.8c0-1.1-0.6-2.8-0.6-3.9
			C183,160.9,181.9,158.1,181.3,154.2z"/>
		<path fill="#E59051" d="M189.1,157c0-2.8,0.6-5.5,0.6-8.3c-0.6-3.3-0.6-6.1-0.6-9.4c0-10.5,2.8-19.9,1.7-31
			c-0.6-7.7-3.9-15.5-5.5-23.2c-2.8-11.1-1.7-20.5,0.6-31c-1.1,2.8-2.2,5-3.3,7.2c-0.6,4.4-1.1,8.3-1.1,12.7c0.6,10.5,5,21,6.6,31
			c2.2,10.5-0.6,20.5-1.1,31C186.8,143.2,187.9,150.4,189.1,157z"/>
		<path fill="#E59051" d="M204,121.1c-0.6-7.2-1.7-14.9-3.9-22.1c-2.2-7.7-6.1-13.8-7.2-22.1c-1.1-7.2-0.6-14.9,0.6-22.1
			c0-0.6,0-1.7,0-2.2s0-1.7,0-2.2l0,0c-2.2,12.2-3.9,23.8-1.1,35.9c2.2,8.8,6.6,16.6,8.3,25.4c1.1,5.5,1.7,11.1,1.7,17.1
			C202.9,126,203.4,123.8,204,121.1z"/>
		<path fill="#E59051" d="M173.6,122.2c0-8.8-1.7-18.2-3.9-27.1c0,1.7-0.6,3.3-0.6,5c2.2,12.7,2.8,25.4,1.1,38.1
			c-0.6,6.6-1.7,12.7-1.7,19.3c0-1.7-10-8.8-11.1-11.6c0-0.6-0.6-0.6-0.6,0c1.1,3.9,2.8,7.2,6.1,9.4c0.6,0.6,1.1,1.1,1.1,2.2
			c2.2,1.7,3.9,3.3,5.5,5c0.6,0.6,1.7-0.6,1.7-1.1C169.7,147.6,173.6,134.9,173.6,122.2z"/>
		<path fill="#E59051" d="M164.7,134.3c-1.7-0.6-2.2,1.7-2.2,3.9c-0.6-0.6-0.6-1.1-1.1-1.7c-0.6-1.1-1.7,0-1.7,0.6
			c-0.6,2.2,1.1,3.9,2.8,5c0.6,0.6,2.2-0.6,1.7-1.1c0-0.6-0.6-6.1,0-6.1C164.7,135.4,165.3,134.3,164.7,134.3z"/>
	</g>
	<path opacity="0.3" fill="#703917" enable-background="new    " d="M149.8,55.3c-16.6-17.1-34.3-24.9-58.6-19.3
		C79,38.7,68,44.2,58,52c0,0,0,0,0,0.6c-7.7,7.7-16,16.6-17.7,27.6c-1.7,10-1.1,19.9-1.1,29.9c0.6,17.7,2.2,40.9,18.2,52
		c28.7,19.9,69.1,18.8,95.6-4.4c14.9-13.3,26-30.4,23.8-50.9c-1.1-10-3.3-23.8-9.4-32.1C162,66.9,155.3,61.4,149.8,55.3z
		 M107.8,165.3c-31.5,0-56.9-25.4-56.9-56.9c0-31.5,25.4-56.9,56.9-56.9s56.9,25.4,56.9,56.9S139.3,165.3,107.8,165.3z"/>
	<path opacity="0.3" fill="#703917" enable-background="new    " d="M107.8,0c-7.2,0-14.4,0.6-21,2.2c16.6,1.1,33.7,5.5,49.8,12.2
		c4.4,1.7,22.1,10.5,17.7,18.2c-2.8,5,2.8,7.7,5.5,12.2c1.1,1.7,1.1,3.3,0.6,5c3.3-0.6,8.3-1.1,7.7-1.7c-0.6-1.1-1.1-2.8-0.6-4.4
		c0-1.7,0-3.9,1.7-5c3.9-2.2,7.7,1.1,9.4,4.4c4.4,8.8,8.8,17.7,13.8,26.5c5.5,10.5,10.5,21.6,10.5,33.2c0,14.9-6.1,26.5-10.5,40.4
		c-3.9,11.6-7.7,18.8-16.6,27.1c-6.1,5.5-7.7,11.1-16,7.7c-3.3-1.7-5.5-3.9-7.2-6.6c-1.1,2.2-1.7,4.4-1.7,6.6c0,3.9,0,7.2,0,11.1
		c0,1.1-1.1,2.2-2.2,2.2c-40.9,3.9-83.5,3.9-116.1-24.3c-7.7-6.6-9.4-14.9-12.7-24.9c-3.9-11.6-8.3-22.7-11.1-34.3
		C6.1,97.3,4.4,87.3,5.5,76.3c0-2.2,0.6-3.9,1.1-6.1C2.2,81.8,0,94.5,0,107.8c0,59.7,48.1,107.8,107.8,107.8s107.8-48.1,107.8-107.8
		S167.5,0,107.8,0z"/>
</g>
</svg>
